<mxfile host="app.diagrams.net" agent="Mozilla/5.0 (X11; Linux x86_64) AppleWebKit/537.36 (KHTML, like Gecko) Chrome/137.0.0.0 Safari/537.36" scale="1" border="0" version="26.2.12">
  <diagram name="Page-1" id="TbB1-XEriHaKDYEF2LrI">
    <mxGraphModel dx="985" dy="479" grid="1" gridSize="10" guides="1" tooltips="1" connect="1" arrows="1" fold="1" page="1" pageScale="1" pageWidth="850" pageHeight="1100" math="0" shadow="0">
      <root>
        <mxCell id="0" />
        <mxCell id="1" parent="0" />
        <mxCell id="PHQyoOw9yE4qoI6ccOwa-9" value="" style="rounded=0;whiteSpace=wrap;html=1;fillColor=none;" parent="1" vertex="1">
          <mxGeometry x="410" y="85" width="350" height="205" as="geometry" />
        </mxCell>
        <mxCell id="PHQyoOw9yE4qoI6ccOwa-1" value="GitLab CI" style="shape=image;verticalLabelPosition=bottom;labelBackgroundColor=default;verticalAlign=top;aspect=fixed;imageAspect=0;image=data:image/png,iVBORw0KGgoAAAANSUhEUgAAAXwAAAF8CAYAAADM5wDKAAAABHNCSVQICAgIfAhkiAAAH5ZJREFUeF7t3V+MXNddwPFzZzde7zrrXTs4cdOE2An12gEU960PSLFI4A3FeUBVaVG2AgQIVQoCiRZUqVIFTSWQIiGEECpt1ULVp4QHJASq5Ep96FvNC8kaguM4zR+C4/W//WPv3Mv5ze4469mZuX/mnnt+59zvSIZ47rnnz+d39tfr3965YwwvBBBAAAEEEEAAAQQQQAABBBBAAAEEEEAAAQQQQAABBBBAAAEEEEAAAQQQQAABBBBAAAEEEEAAAQQQQAABBBBAAAEEEEAAAQQQQAABBBBAAAEEEEAAAQQQQAABBBBAAAEEEEAAAQQQQAABBBBAAAEEEEAAAQQQQAABBBBAAAEEEEAAAQQQQAABBBBAAAEEEEAAAQQQQAABBBBAAAEEEEAAAQQQQAABBBBAAAEEEEAAAQQQQAABBBBAAAEEEEAAAQQQQAABBBBAAAEEEEAAAQQQQAABBBBAAAEEEEAAAQQQQAABBBBAAAEEEEAAAQQQQAABBBBAAAEEEEAAAQQQQAABBBBAAAEEEEAAAQQQQAABBBBAAAEEEEAAAQQQQAABBBBAAAEEEEAAAQQQQAABBBBAAAEEEEAAAQQQQAABBBBAAAEEEEAAAQQQQAABBBBAAAEEEEAAAQQQQAABBBBAAAEEEEAAAQQQQAABBBBAAAEEEEAAAQQQQAABBBBAAAEEEEAAAQQQQAABBBBAAAEEEEAAAQQQQAABBBBAAAEEEEAAAQQQQAABBBBAAAEEEEAAAQQQQAABBBBAAAEEEEAAAQQQQAABBBBAAAEEEEAAAQQQQAABBBBAAAEEEEAAAQQQQAABBBBAAAEEEEAAAQQQQAABBBBAAAEEEEAAAQQQQAABBBBAAAEEEEAAAQQQQAABBBBAAAEEEEAAAQQQQAABBBBAAAEEEEAAAQQQQAABBBBAAAEEEEAAAQQQQAABBBBAAAEEEEAAAQQQQAABBBBAAAEEEEAAAQQQQAABBBBAAAEEEEAAAQQQQAABBBBAAAEEEEAAAQQQQAABBBBAAAEEEEAAAQQQQAABBBBAAAEEEEAAAQQQQAABBBBAAAEEEEAAAQQQQAABBBBAAAEEEEAAAQQQQAABBBBAAAEEEEAAAQQQQAABBBBAAAEEEIhWIIl2ZSwsV+DtX3nydDczZ3c3nErMq4/8+3+ezz2ZBuoF+vHtZNlimiSrMmHiqz5sTidIwnfKq7Pzi2dOHpvqJN8yiXl66Awz88Numi0fP/f6m0OP86ZqAeKrOjxeJ0fC98rf/OBy1Zem2Tk78kLO6Nc6neQMV/s5SsoOE19lAVE2HRK+soC4nM7FM6cXp6c2z2fGPFZkHLs5Lm11Z04fP3e+Vw7gpVuA+OqOj4bZdTRMgjk0I9DpbC4XTfYyI2kr5zQzO0aZVID4TioY//kk/PhjfHeFncS8WHa5SZItlz2H9n4EqsSqyp7wszpGrUOAhF+HYgB9XH725JkyV/cfLSl5Sn4JGMASWz3F7RglT5VFkD0he6PsebQPU4CEH2bcSs86y5Ll0iftnGB/eXvPrZtV++E8dwKTxGiSveFuRfTsQoCE70JVWZ/yyzw7pcpJu0qpQBlB9NOZMEZnd/ZI9E5tXyAJvwU7YKqzIck+7zbMMRKUdcbgeD9UtZyza+ILO3vE+1qYgFsBEr5bXyW9Vy/n9BcwSclACUK006gnNpPvkWiBI1oYCT+iYA5bSu/qb9QnaoedMOK9CUsGI3rl7ToE7OclKpfr7o5v9wi/nK8jGrr7IOHrjs/Es5ueSkrfijl8UCnr9H4XwEuRQC8mNfwPuiypvr2iCIip3CNAwo9/Q0x+9bdjRJ1X32apOSa17RV9UsxIBEj4Ee+Dt545dbbavfcjUBJuzxwh4+/tGmMie0X2jL/FMLJrARK+a2G//S/XPPxzlHVqFp2gu51YPDdBF8NOrXvPDBuD9zwJkPA9wbse1lEyMDWXEFwzRN2/o1jwP+oR7xoSfqTBdfbQsxpLCJHSN7csR7Fwtneak2GkEQIk/BEwob/t8KFYXAEq2Byu/gUnS3O4dxTItXsKJPwI4y9fglHrL2sHjByVEiKMhLsluYyB7B3ZQ+5mT8++BEj4vuQdjmu/0aqme+9HTNJRKWHEaLw9TMBxDJzvoWFr4j3nAnzjlXPi5gewt9at2lEneHZO/py73ZlDfBNWvpOLFlLOmZravOqi7119XrMxPkaMHSs33D1X+A2Dux7urV8+uWzHcJrsZQ0uSwqujULvvyF7HqgW+kYZMn8S/hCUsN9KlhuZv+OSQiNrCHWQxuwb2kuhxiHAeZPwAwzaqCnX9aC0Uf0PvF/3B34KDkszK9CMPQ9Ui26zkfAjCmlnurPc5HL4GH6T2ttjNW3e9J5qXrRdI5LwI4p3J2v8C8d57krz+6dRcw97qnnRFo1Iwo8k2LU/KK2YS6PJp9iUom/VqDkPVItrP5Hw44lno4lgh22h6RJDPOEqv5Ida+d3YA2ZmY+9NWQavDWpAAl/UkEF5+98zP4FT1MhGTQH78v6BZ6S2lyQXY5Ewnep21Dfnh925SsJNaSrahhv1p73mKoghDwZEn7I0duZu+fvm6Ws08Ae8ljO6a3O8x5rQLgdQ5DwA4/z9kOukqc8L8PblafndTc5vGfj5CkeqNZkuN2MRcJ349pYr0oecuU5GTXG7XMg78ZK9prPGAQ/Ngk/+BAa74nAElLWcbiPfJdzdi1Nw15zKB1/1yT8gGPc1IPSChKRDApCVWimxXZhZ89VWAKnaBAg4WuIQtU5NPYQrUIT1JKUCk02sEaKbJPlwOyY7i4BEn6g26H3oLSmHqJVzGjh8rMnzxRrSquiAju/KPXxYavhU+SBasNdAnmXhB9IoAanqfKhVlmi6Ep0UCzMv2dp489HyoVSufdyZ00DESDhB7oPlD7UioRf/35SZ6p079UvH2GPJPwAgyqlE5dfUl6VhC+/rio3/DzXX0Y/fNT8dyXOlO/ynTS2IOFrjErOnLJM7y/ONJYgcjjVHtZsqXkPqg2ogomR8BUEocwUPD8orchU1ZUgikxaaRvNljxQTemmGTctEv44HYXHGvoC68orp6xTme6eE7WWc3ZPUvterCcScfVCwg8tnol5UfuUNZcitNv15xeEYQB7MZR4NzVPEn5T0jWMo+RBaUVWorkUUWT+GtoEYMgD1TRslDJzIOGX0fLcNoirPmtEWWeyjRJCOae/wlD25GQRiedsEn5AsbSJdDmU6ZIIqkcqJLuQ9mT1iMRzJgk/kFgqe1BaEbUAShJFluGlTUh2PFDNyxapNigJv5pb82fpelBa7vop6+QSDW0QUjnn7gIC25tD4VvyJgk/gEArfFBaIbVuNztTqCGN7goEavbczh4lksoFSPjKAyTT63TCfCgZ34NafnOFahbqHi0fobDPIOEHEL9OsPc7J09x5Vd8g21bef9+4uIT3tUy3D1aabnBnkTCVx46rQ9KK8rGlV9RqXD/JScr5IFqxePssyUJ36d+gbFDf0hVqCWKAqGpvUnoVqHv1doDqrDDROGcmNKOgDwobWpq8037Vz3feFQhOvYXkcePn3td1sFrhICUc6amkosjDofy9rVud+bY8XPnV0OZcNvmyRW+4ojvPJwq6GQvvJR18jdZJEYLPFAtP9Y+W5DwfernjR3sL2vvXVjopYq8MNVxPBqjSPZsHTHV2AclHY1RsXOK5J/4d3Up64zeaMR6tA1H6hWYrrc7eqtLYHoqedHe+RDNy9anX7707JPno1lQjQtJsux0jd1570r2rp2E/OGlTIArfGUB6U/nrWdOyS++gq/fK+VlWm4Frv3sD15bdDsEvVcRoIZfRc3xOTbZy8OzSPaOnenemcDCzh52NgAdVxMg4Vdzc33WsusB6B8BxwLsYcfAVbqnpFNFzeE5O/feX3U4BF0j0IgAv6hvhLnUIFzhl+Jy37jT2Vx2PwojIOBeIJLPFriHanAEEn6D2EWG4iFURZRoE4IAe1lflEj4imIS5JdfKPJjKroE+BIcXfGQ2ZDwFcUkTTPuXVYUD6YyuQB7enLDOnvgl7Z1ak7QVywPSpuAgFPjFOCBaoriyhW+kmDE8qA0JZxMQ48AD1TTEwtKOnpikSzrmQszQaBOAfZ2nZqT9EVJZxK9ms6N7eFZNbHQTUQC3JOvI5iUdBTEYedhUwpmwhQQcCPAHnfjWrZXrvDLijlov/n7J+7YLwWdvrORmM1bibm9Zoz8Ny8EQhW4b39m9s0ZM3MgM/LfJjFbM3974b5Q1xPLvMkqniN5/TdPfm1uMf3i4DTS1JiN65L8E7NxIzFpd7AFf0dAj0Bnypj985LkM7P/YGa/5Wzv3NZWOy8d/M7rX9p7hHeaEuB5+E1Jjxhnajr79WGH5AdmbjHr/ZGXXPGvrW4n/+6dYWfwHgLNCkzZ63VJ8rJHe1fxOa+dvU7Cz3FyeZiE71K3QN/2iujxAs16P1ALR+WP6V3195M/V/5F9GhTl0D/Sl6SvFzNl3kV3etl+qRtOYEh//Aq1wGtqwtc++zSi0nHVjdLvuQHbfHh1Dz4iW7v/xe5uio5BM0RuEdA9tjuPVc22Utnstdlz0PrT4ArfH/2xv6T+IVJht9d9pGSz60Pt6/8J+mTcxHYLSBX8gcOFyvZFJHb2fMvF2lLm/oFSPj1mxbucXomWyrcOKfh9hVYZuaPGHPzSsesX+MXvTlkHB4hIGWb2YXM3P9AKhcltb7q3PO1TqwlnZHwPQZ6ep+ZrXt4+QFdOJqa+QeNuXVFrvo73OFTN3Kk/UmiP3A4NQceGH6XTR3LdrHn65hXW/qghu8p0q5rmVLumT+S9er8/Tt9PC2VYQMQkD0ie0X2zLBbKutcguu9X+dcY+uLhO8pop1p83QTQ8sPr/yy7SH7wyy30PFCYLeA7AnZG7JHXCf6/rhN7X0ivVeAks5ek0beSRJzrJGBdgaRUs/hR9PeLZ1Xf9ox3MvfpL6+sWQ/HPp4WvrWyjpW0vTer2POsfRBwvcUyen7mk34/WXK7XRyRXfjA+r7nkLvddh+nV5KN75evva+r/VqGpeE7ysanWzG19AyrvzAzy12zeo7nd7ze3jFLyDPtZHSTd133pSW87z3S883ohNI+J6CqeFuBfnBf+CxtHf//o0PuJvH01ZwPqxc1c8fsXff2PvpNbw07H0NDj7mQML3oa5sTEkE++ZSe7Wf8JROZbGZdDr9z2fwaexJJeM4n7t04ojjxKuQhHDkcT1XgRMviA56V/QSU5I9m6EvQML3sBc034csH9qSu3mkDMArTAGJncRQYqn1pflnQKtZHfMi4dehGFkfcm/2kce7XBkGGNftf6nxmYsAQ9fIlEn4jTCHN4j8QpcST1hx65dwvN+FExZbq2bLL21bFe7yi5WywMyBpHf7Js/eL+/XxBlSwpHbLfkkdRPaYY/BDdie4rf1hRM67pEruH55/DJ38RTEarBZqHfhTP/1BXJPg/ukPxQlHQ/oIQ4pieWBYykPYlMUPHngmcSEu3AUBUX5VCjpKA+Qpun1H8S2by4x19+nxOMrNlLCOfgQ/+Pryz/kcUn4nqLX3TJbU9MmSP/tL63mg1o+tk6oJZzdVrL3fdgxpjGUdDztgmwruelp6FqGpcRTC2OpTmIp4YS+90sFTVljEr6ngNirnCuehq5t2H6Jp/csdT6oVZvrYEf9u3CafGb94Bzq/PvWHfNmnf3RV3EBEn5xq1pbppl5u9YOPXbWu/K0D2Hjl4f1B6H3LylrG9O3lmUZCb/+nVKsRxJ+MafaW6V3zKu1d+qxQ0o89ePHUsIZlEm3zA8H3+PvzQiQ8Jtx3jNKmnVe2fNm4G/0Szyan+ESCrEYxlLCGTSPce8PrlHr3/nwg8fIbPzuibVYnw0uH9T68DJfpVh2e/W/ijLW8tjWbbO+/+8uzJV1oX09Alzh1+NYqZetzWSl0okBnCQJ68gTPMSrTKh6D62zZrEme7GIec+XibWvtiR8X/J23LSb/KvH4Z0PLSUe7Y/pdY5QcIC7j6WO/Ccy9j1fMNzemlHS8Ua/PXBoz9SpykWJZ7hc7CWcwVXzDJ1BkWb/Hvn1RLOYVUa7vZa8V+W80M6hxLM3Ym0o4exedVv2+t5I63mHhO85FvaXWP/ieQqNDU+J5yPqtpRwdm+uNu31xn6oSg5ESackmIvmd/7gRJp0TKtiISWeK5fa9wA2+dRsGz+klqUmu+9vLnCB6SKBlOiTAJTActV081byH6761tqvlHge/ETXfrlKUF8LMBGnrFXWHPNdOKOA2rjHR1n4fJ+E71N/Z+zbm9kXFEyj8SlIiUeudueP6P2y7bpQZI2yVllzG19t3ePaYt2qMoI2/N3zWfutpXf3zWVHNc/R5dzsL/R6H9SK7WsUpYQjt6ba2LrkU923/LJ27hsrH1M9yZZMrqXXG/qie2fDfF3frJqbkSTE2Eo8/RJOm5O97KC27+3mforyR+IKP9+osRYbv7N0dXp/ttjYgEoHuvFBYm58EPa1iJRw5o+096q+v7W2NpLV/X+/ckjpVmvdtML+qYosXBtr2e9FtqRKy5FE+TP2u1pDfMa+zFnmTrLfDj17utKPgLOTuMJ3Rlut41ufX/rvmfuzJ6qdHddZqf1d7lVb17d3eASxMCnhHLL1+rb+YnYwSJs3kzcOfHPl5wbf5+/+BLjC92c/dOTbm51n5J7loQdb9mb/Lp4Dh/VzyBzbfBfO4NaUPSx7efB9/u5XgITv13/P6If+6bVLGzeTf95zoMVv3P1UqsKvUezfhcN3ANy7QWUPy15u8bZVufQw/q2sks7tpPgF7l7f7h3Tu3VTPqWr4SUfoJJbLuUBaLw+EuAXtXp3A1f4SmOzdjP7NUo79wZHEuuRx1OjocQjc5C5kOzvjZHsWdm7Sn+sWj8tEr7SLXD4exd+tH690+p780eFxmeJhxLOqKhsvy97Vvbu+FYc9SWg49/GvlYfwLg3l5d+Yh+jezqAqTY+xaZLPJRwxod440Zy/v5vrXxyfCuO+hQg4fvULzh22x+7kMd07b2OufWh260sJRx+MTs6Ejw+YbSNpiOUdDRFY8RcNtc7n5Ivfx5xuPVvuyzxUMLJ316yN2WP5rekhW8Bt5dFvlcX0fhXf+PUY7Pz3dem95nZiJZV61Lk7p3Vd5La7uKREs7iw1krH2dcNDCS7NdvTJ3iFsyiYn7bkfD9+pcanaSfzyWfzr1uSzxrq5Nt7bnFzBw8yqdmx4mT7Mfp6Dw22U+FzjVFPSuSfrHwSsK//n75xy1LCefgQ6mRhM9rtADJfrSN5iMkfM3RGTE3kv4ImIG3y5Z4KOEUcyXZF3PS2IqErzEqBefEg9byoYqWeCjh5FtKCx6IVsxJayvu0tEamQLzkicRrl9PXi3QtLVN5AFsiw+nvT/DHrcs7909zk/D2H0ie42nX44lUn+QK3z1Icqf4OpnT3x69qD57tS0mc5v3d4WgyUeSjjF9kJ3y2ytXzefW/zHC98vdgattAqQ8LVGpuS8pK4/M5v+uM3fi1uErF/ikbbchZMvJh+oknvsue0y3yqEFiT8EKJUYo43Xlh6ZfZgdrbEKa1rmkrp5iFjOu+2bumlFiwlnPlvrzxf6iQaqxYg4asOT7XJUeIZ7ZbO20R/wh63tfv0hv3v/7H/vTm6fRuPUMKJN+ok/EhjS4nn3sBmclv9Y8YkRwfet8/YNxft+6uRboSSy6KEUxIssOYk/MACVna6lHjslbwt4XSetHJzo/XSn9o29k+bX5Rw4o8+CT/+GJs2l3h2l3DyQt3WEg8lnLydEc9xEn48sRy7kraVeEaVcMYi2YNZy0o8lHDydkRcx0n4ccUzdzVtKPEUKeHkQbWhxEMJJ28XxHechB9fTHNXFHOJp0wJJw+qV+K5YFt181qGdZwSTljxqnO2JPw6NQPqK8YST/Zxe7eN/VPnS0o8yRu2x+t19uqvL0o4/uw1jEzC1xAFj3OIocST2l3c+XmLOOYunEmJs8s28Qf+QS1KOJPugvDPJ+GHH8OJVxByiSe13//Vu+XSfpDK9Su9uvNBrcBKPJRwXO+McPon4YcTK6czDbHE46KEk4ccWomHEk5eRNt1nITfrnjnrjaEEk8TJZw8qBBKPJRw8qLYvuMk/PbFPHfFmks8TZZw8qC0lngo4eRFrr3HSfjtjf3YlWss8fgo4YxFsge1lXgo4eRFrN3HSfjtjn/u6jWUeDSUcPKgNJR4KOHkRYnjJHz2QK6AzxJPus/eGfOLdooN3IWTC5HTIP0/O9dLtlHDd/FQwskJDIfvCpDw2QyFBHyUeLIj9t7344Wmp6ZRum6TvnxQa62ZKVHCacY5llFI+LFEsqF1NFHikUfXJyft/znY0KIcDJPZK/3kfQcd7+qSEo5b3xh7J+HHGFXHa3JZ4gmphJPH7KrEQwknT57jowRI+KNkeH+sgIsST4glnLFI9mDdJR5KOHniHB8nQMIfp8OxXIE6SjwxlHDyoOoo8VDCyVPmeJ4ACT9PiOO5ApOUeGIq4eRBVS3xUMLJk+V4UQESflEp2o0VqFLiibGEMxbJHixb4qGEkyfK8TICJPwyWrTNFShS4mlDCScPKrO3biZXxreihDPeh6PlBUj45c04I0dgXIkntR+g6vyC7WAmp5MWHE7tbZudt+1CBz6oRQmnBcH3tEQSvif42IcdVuJJF22COxH7ysutr/c1ipfsOTsf1KKEU86P1uUESPjlvGhdUkBKPDMHs+fsJ2aTxH5yltdeAXkAW/amyTYuJv9w8Dsrv723Be8gUI9Ap55u6AWB4QLz3155fu2A+Ux6wGwNb8G76R2ztXbbfIZkz15wLcAVvmth+u8JXP2jU4/NfCz98b6HsqOQfCRw+/3kvc13O5869FevSWGHFwJOBUj4TnnpfFDgxleWXpl9Ijs7+H4b/77+RvLq/FdWnm/j2lmzHwESvh/3Vo+6+sUTn549br47NWem2wjRXTNb6xfN5xZfuvD9Nq6fNfsTIOH7s2/1yG0t8VDCafW29754Er73ELR7Am0q8VDCafde17B6Er6GKLR8DlLiOXDCfC+5z0S5HynhtHyDK1p+lD9ginyZSkEBKfHMPpqen34gsx/Piue1dSVZXb/cOc1dOPHENOSVkPBDjl6Ec7/x1aVzs8eyp2NY2vqbyQ/nv7xyJoa1sIY4BPjgVRxxjGYVkiBvvZ78of30qTxjLciXzF3WQLIPMnxRT5or/KjDG+7iQi3xUMIJd8+1YeYk/DZEOeA1hlTioYQT8EZrydQp6bQk0KEuM4QSDyWcUHdX++bNFX77Yh7kinslnuPd16YXzKymBWxdM+vrF6dOcReOpqgwl1ECJPxRMryvUuDmXyz9ZP+j2WkNk9u4nJy//09XPqlhLswBgSIClHSKKNFGjYAk2LULnZd83sUjY8scSPZqtgUTKSjAFX5BKJrpEvjwT0780tyj5t+aLvFICWftsvnVw1+/8CNdIswGgXwBEn6+ES0UCzRZ4qGEo3gjMLVCApR0CjHRSKtAEyUeSjhao8+8ygpwhV9WjPYqBVyVeCjhqAw3k6ooQMKvCMdpOgXqLPFQwtEZY2ZVXYCSTnU7zlQo0Cvx/FfyjUnu4umVcGwf3IWjMMBMaSIBrvAn4uNkrQLyjP39j5hvlr2LR0o4G2+bz/P1g1ojy7wmESDhT6LHuaoF5NO5+x5MfzDzcPZEkYluvpO8cft/O8/wqdkiWrQJUYCEH2LUmHMpgetfPvm1mUfSPx71penyjVSbb3f+8uBXX/9SqY5pjEBgAiT8wALGdKsLXPuzpRc7+83Z3T2kG+bVhT9febl6r5yJAAIIIIAAAggggAACCCCAAAIIIIAAAggggAACCCCAAAIIIIAAAggggAACCCCAAAIIIIAAAggggAACCCCAAAIIIIAAAggggAACCCCAAAIIIIAAAggggAACCCCAAAIIIIAAAggggAACCCCAAAIIIIAAAggggAACCCCAAAIIIIAAAggggAACCCCAAAIIIIAAAggggAACCCCAAAIIIIAAAggggAACCCCAAAIIIIAAAggggAACCCCAAAIIIIAAAggggAACCCCAAAIIIIAAAggggAACCCCAAAIIIIAAAggggAACCCCAAAIIIIAAAggggAACCCCAAAIIIIAAAggggAACCCCAAAIIIIAAAggggAACCCCAAAIIIIAAAggggAACCCCAAAIIIIAAAggggAACCCCAAAIIIIAAAggggAACCCCAAAIIIIAAAggggAACCCCAAAIIIIAAAggggAACCCCAAAIIIIAAAggggAACCCCAAAIIIIAAAggggAACCCCAAAIIIIAAAggggAACCCCAAAIIIIAAAggggAACCCCAAAIIIIAAAggggAACCCCAAAIIIIAAAggggAACCCCAAAIIIIAAAggggAACCCCAAAIIIIAAAggggAACCCCAAAIIIIAAAggggAACCCCAAAIIIIAAAggggAACCCCAAAIIIIAAAggggAACCCCAAAIIIIAAAggggAACCCCAAAIIIIAAAggggAACCCCAAAIIIIAAAggggAACCCCAAAIIIIAAAggggAACCCCAAAIIIIAAAggggAACCCCAAAIIIIAAAggggAACCCCAAAIIIIAAAggggAACCCCAAAIIIIAAAggggAACCCCAAAIIIIAAAggggAACCCCAAAIIIIAAAggggAACCCCAAAIIIIAAAggggAACCCCAAAIIIIAAAggggAACCCCAAAIIIIAAAggggAACCCCAAAIIIIAAAggggIACgf8HbyKIVc4x4PoAAAAASUVORK5CYII=;" parent="1" vertex="1">
          <mxGeometry x="40" y="132.5" width="90" height="90" as="geometry" />
        </mxCell>
        <mxCell id="PHQyoOw9yE4qoI6ccOwa-2" value="&lt;font style=&quot;color: rgb(0, 0, 0);&quot;&gt;Container&lt;br&gt;Registry&lt;/font&gt;" style="sketch=0;html=1;verticalAlign=top;labelPosition=center;verticalLabelPosition=bottom;align=center;spacingTop=-6;fontSize=11;fontStyle=1;fontColor=#999999;shape=image;aspect=fixed;imageAspect=0;image=data:image/svg+xml,PHN2ZyB4bWxucz0iaHR0cDovL3d3dy53My5vcmcvMjAwMC9zdmciIHhtbG5zOnY9Imh0dHBzOi8vdmVjdGEuaW8vbmFubyIgd2lkdGg9IjM3Ny4xNTkzMDIxNjAyNjMwNSIgaGVpZ2h0PSIzMzYuMTYyNDk5MDAzMzEwOCIgdmlld0JveD0iLTAuMDU4MDAwMDA1NzgxNjUwNTQgMC4xMTI5OTk5OTgwMzMwNDY3MiA5OS43OTAwMDA5MTU1MjczNCA4OC45NDMwMDA3OTM0NTcwMyI+JiN4YTs8c3R5bGUgdHlwZT0idGV4dC9jc3MiPiYjeGE7CS5zdDB7ZmlsbDojNjY5ZGY2O30mI3hhOwkuc3Qxe2ZpbGw6I2FlY2JmYTt9JiN4YTsJLnN0MntmaWxsOiM0Mjg1ZjQ7fSYjeGE7PC9zdHlsZT4mI3hhOwk8cGF0aCBjbGFzcz0ic3QwIiBkPSJNNTMuMjQzIDYyLjA5VjQ3LjA5NGwxMy4yMDEgOC40MTZ2MTUuMDM4em0tMzMuMDIxIDBWNDcuMDk0bDEzLjIwMSA4LjQxNnYxNS4wMzh6bTE2LjUxMS0zMi4yODVWMTQuODFsMTMuMjAxIDguNDE2djE1LjAzOHptNjIuOTk5IDMzLjk2VjI1LjQwM2wtOS41NjItMS44ODR2NDIuMTMxem0tOTkuNzg4IDBWMjUuNDAzbDkuNTYyLTEuODg0djQyLjEzMXoiLz4mI3hhOwk8cGF0aCBjbGFzcz0ic3QxIiBkPSJNNTMuMTg1IDQ3LjA5NGwxMy4yNTgtOC4yODcgMTMuMDE2IDguMjM0LTEzLjAxNiA4LjQ2OXptLTMzLjAyMSAwbDEzLjI1OC04LjI4NyAxMy4wMTYgOC4yMzQtMTMuMDE2IDguNDY5ek0zNi42NzUgMTQuODFsMTMuMjU4LTguMjg3IDEzLjAxNiA4LjIzNC0xMy4wMTYgOC40Njl6bTYzLjA1NiA0OC45NTZ2MTIuMjE3TDc3LjAxIDg5LjA1NVY3Ny43NTJ6bTAtMzguMzYzVjEzLjE4Nkw3Ny4wMS4xMTN2MTEuMzAzek0tLjA1OCA2My43NjZ2MTIuMjE3bDIyLjcyMSAxMy4wNzNWNzcuNzUyem0wLTM4LjM2M1YxMy4xODZMMjIuNjYzLjExM3YxMS4zMDN6Ii8+JiN4YTsJPHBhdGggY2xhc3M9InN0MiIgZD0iTTY2LjQ0NCA3MC41NDdWNTUuNTFsMTMuMDE2LTguNDY5djE1LjR6bS0zMy4wMjEgMFY1NS41MWwxMy4wMTYtOC40Njl2MTUuNHptMTYuNTExLTMyLjI4NVYyMy4yMjVsMTMuMDE2LTguNDY5djE1LjR6bTQ5Ljc5OCAyNS41MDNsLTkuNTYyIDUuODh2LTMuOTk2em0wLTM4LjM2M2wtOS41NjItNS44OHYzLjk5NnpNLS4wNTggNjMuNzY2bDkuNTYyIDUuODh2LTMuOTk2em0wLTM4LjM2M2w5LjU2Mi01Ljg4djMuOTk2eiIvPiYjeGE7PC9zdmc+;" parent="1" vertex="1">
          <mxGeometry x="220" y="90" width="50" height="50" as="geometry" />
        </mxCell>
        <mxCell id="PHQyoOw9yE4qoI6ccOwa-3" value="&lt;font style=&quot;color: rgb(0, 0, 0);&quot;&gt;Artifact&lt;br&gt;Registry&lt;/font&gt;" style="sketch=0;html=1;verticalAlign=top;labelPosition=center;verticalLabelPosition=bottom;align=center;spacingTop=-6;fontSize=11;fontStyle=1;fontColor=#999999;shape=image;aspect=fixed;imageAspect=0;image=data:image/svg+xml,PHN2ZyB4bWxucz0iaHR0cDovL3d3dy53My5vcmcvMjAwMC9zdmciIGlkPSJzdmc4MjciIHZlcnNpb249IjEuMSIgdmlld0JveD0iMCAwIDIwNS41MTIyOCAxODAuNTE4MjUiIGhlaWdodD0iMTgwLjUxODI1bW0iIHdpZHRoPSIyMDUuNTEyMjhtbSI+JiN4YTsgICYjeGE7ICA8ZGVmcyBpZD0iZGVmczgyNCIvPiYjeGE7ICA8ZyB0cmFuc2Zvcm09InRyYW5zbGF0ZSgtNC42MDIwNzI4LC01Ni43NjcxMjYpIiBpZD0ibGF5ZXIxIj4mI3hhOyAgICA8cGF0aCBkPSJtIDE0Mi4zMDMzMiwyMDIuNTM2NzUgMjYuNjMwNzgsLTE0Ljc0MDkzIHYgLTI5LjExOTQ4IGwgLTI2LjYzMDc4LDE0Ljg2ODYzIHogbSAtNC44MzQ4OSwwIC0yNi42MzA3OCwtMTQuNzQwOTMgdiAtMjkuMTE5NDggbCAyNi42MzA3OCwxNC44Njg2MyB6IG0gLTI3LjM3NTc4LC01My4zNDI2NCAyNi42MzA3NywtMTQuNzQwOTMgViAxMDUuMzMzNyBsIC0yNi42MzA3NywxNC44Njg2MyB6IG0gLTQuODM0OSwwIC0yNi42MzA3NzcsLTE0Ljc0MDkzIFYgMTA1LjMzMzcgbCAyNi42MzA3NzcsMTQuODY4NjMgeiBtIC0yNy4zNzU3ODgsNTMuMzQyNjQgMjYuNjMwNzc4LC0xNC43NDA5MyB2IC0yOS4xMTk0OCBsIC0yNi42MzA3NzgsMTQuODY4NjMgeiBtIC00LjgzNDg5MywwIC0yNi42MzA3NzksLTE0Ljc0MDkzIHYgLTI5LjExOTQ4IGwgMjYuNjMwNzc5LDE0Ljg2ODYzIHogTSAyMTAuMTE0MzYsMTg1LjQ1NzQzIFYgMTA4LjU1NzM1IEwgMTg5LjY4MTczLDk2LjcxMDk4MSBWIDE5Ny4zMjgwMiBaIG0gLTIwNS41MTIyODcyLDAgViAxMDguNTU3MzUgTCAyNS4wMzQ2OTYsOTYuNzEwOTgxIFYgMTk3LjMyODAyIFoiIHN0eWxlPSJvcGFjaXR5OjE7ZmlsbDojMzM2N2Q2O2ZpbGwtb3BhY2l0eToxO3N0cm9rZTpub25lO3N0cm9rZS13aWR0aDowLjI2NDU4M3B4O3N0cm9rZS1saW5lY2FwOmJ1dHQ7c3Ryb2tlLWxpbmVqb2luOm1pdGVyO3N0cm9rZS1vcGFjaXR5OjEiIGlkPSJwYXRoOTY3LTAtNiIvPiYjeGE7ICAgIDxwYXRoIGQ9Im0gMTM5Ljc5MjI1LDE2OC4yODM3OSAtMjYuMDI5NjQsLTE0LjUxMjkzIDI2LjAyOTY0LC0xNC40MTkzIDI2LjIxNjg5LDE0LjQxOTMgeiBNIDEwNy41ODE1NywxMTQuOTQxMTUgODEuNTUxOTM0LDEwMC40MjgyMiAxMDcuNTgxNTcsODYuMDA4OTE4IDEzMy43OTg0NiwxMDAuNDI4MjIgWiBtIC0zMi4yMTA2ODUsNTMuMzQyNjQgLTI2LjAyOTYzNCwtMTQuNTEyOTMgMjYuMDI5NjM0LC0xNC40MTkzIDI2LjIxNjg5NSwxNC40MTkzIHogbSA4Ni43OTQ3MDUsNjkuMDAxNTkgNDcuOTQ4NzcsLTI3Ljc4NzQ2IHYgLTI0LjA0MDQ5IGwgLTQ3Ljk0ODc3LDI3Ljg1ODIyIHogTSAyMTAuMTE0MzYsODQuNTUyNTU3IDE2Mi4xNjU1OSw1Ni43NjcxMjYgdiAyMy45NjU5MjEgbCA0Ny45NDg3NywyNy44MjQzMDMgeiBNIDUyLjU1MDgzNSwyMzcuMjg1MzggNC42MDIwNzI4LDIwOS40OTc5MiBWIDE4NS40NTc0MyBMIDUyLjU1MDgzNSwyMTMuMzE1NjUgWiBNIDQuNjAyMDcyOCw4NC41NTI1NTcgNTIuNTUwODM1LDU2Ljc2NzEyNiBWIDgwLjczMzA0NyBMIDQuNjAyMDcyOCwxMDguNTU3MzUgWiIgc3R5bGU9Im9wYWNpdHk6MTtmaWxsOiM1Yzg1ZGU7ZmlsbC1vcGFjaXR5OjE7c3Ryb2tlOm5vbmU7c3Ryb2tlLXdpZHRoOjAuMjY0NTgzcHg7c3Ryb2tlLWxpbmVjYXA6YnV0dDtzdHJva2UtbGluZWpvaW46bWl0ZXI7c3Ryb2tlLW9wYWNpdHk6MSIgaWQ9InBhdGg5NjktOCIvPiYjeGE7ICA8L2c+JiN4YTs8L3N2Zz4=;" parent="1" vertex="1">
          <mxGeometry x="220" y="210" width="56.75" height="50" as="geometry" />
        </mxCell>
        <mxCell id="PHQyoOw9yE4qoI6ccOwa-5" value="" style="endArrow=classic;html=1;rounded=0;entryX=0;entryY=0.75;entryDx=0;entryDy=0;exitX=1;exitY=0.25;exitDx=0;exitDy=0;" parent="1" source="PHQyoOw9yE4qoI6ccOwa-1" target="PHQyoOw9yE4qoI6ccOwa-2" edge="1">
          <mxGeometry width="50" height="50" relative="1" as="geometry">
            <mxPoint x="290" y="180" as="sourcePoint" />
            <mxPoint x="410" y="280" as="targetPoint" />
          </mxGeometry>
        </mxCell>
        <mxCell id="PHQyoOw9yE4qoI6ccOwa-24" value="push &amp;amp;&lt;div&gt;attach&lt;/div&gt;&lt;div&gt;attestations&lt;/div&gt;" style="edgeLabel;html=1;align=center;verticalAlign=middle;resizable=0;points=[];" parent="PHQyoOw9yE4qoI6ccOwa-5" vertex="1" connectable="0">
          <mxGeometry x="-0.3926" relative="1" as="geometry">
            <mxPoint x="13" y="-3" as="offset" />
          </mxGeometry>
        </mxCell>
        <mxCell id="PHQyoOw9yE4qoI6ccOwa-6" value="" style="endArrow=classic;html=1;rounded=0;entryX=0;entryY=0.25;entryDx=0;entryDy=0;exitX=1;exitY=0.75;exitDx=0;exitDy=0;" parent="1" source="PHQyoOw9yE4qoI6ccOwa-1" target="PHQyoOw9yE4qoI6ccOwa-3" edge="1">
          <mxGeometry width="50" height="50" relative="1" as="geometry">
            <mxPoint x="180" y="190" as="sourcePoint" />
            <mxPoint x="213.75" y="240" as="targetPoint" />
          </mxGeometry>
        </mxCell>
        <mxCell id="PHQyoOw9yE4qoI6ccOwa-25" value="store" style="edgeLabel;html=1;align=center;verticalAlign=middle;resizable=0;points=[];" parent="PHQyoOw9yE4qoI6ccOwa-6" vertex="1" connectable="0">
          <mxGeometry x="-0.4906" relative="1" as="geometry">
            <mxPoint x="9" y="1" as="offset" />
          </mxGeometry>
        </mxCell>
        <mxCell id="PHQyoOw9yE4qoI6ccOwa-17" value="" style="edgeStyle=orthogonalEdgeStyle;rounded=0;orthogonalLoop=1;jettySize=auto;html=1;" parent="1" source="PHQyoOw9yE4qoI6ccOwa-8" edge="1">
          <mxGeometry relative="1" as="geometry">
            <mxPoint x="590" y="187.58333333333337" as="targetPoint" />
          </mxGeometry>
        </mxCell>
        <mxCell id="PHQyoOw9yE4qoI6ccOwa-18" value="container&lt;div&gt;image&lt;/div&gt;" style="edgeLabel;html=1;align=center;verticalAlign=middle;resizable=0;points=[];" parent="PHQyoOw9yE4qoI6ccOwa-17" vertex="1" connectable="0">
          <mxGeometry x="-0.2621" y="-1" relative="1" as="geometry">
            <mxPoint x="12" y="-19" as="offset" />
          </mxGeometry>
        </mxCell>
        <mxCell id="PHQyoOw9yE4qoI6ccOwa-8" value="FluxCD" style="shape=image;verticalLabelPosition=bottom;labelBackgroundColor=default;verticalAlign=top;aspect=fixed;imageAspect=0;image=data:image/png,iVBORw0KGgoAAAANSUhEUgAAARgAAAEYCAYAAACHjumMAAAABHNCSVQICAgIfAhkiAAAIABJREFUeF7tXQdcU9f3T5gJGSxFwI2Cq8h0VUURUBTcgiK2dYKrbkWt1lkH7ll3tSoiuNqKCxRR62RqrQNwD0SBBLIII//z/Gt/iAnkJS/Je8nN5+PnI++ec+4533Nzct8d59Bo6IMQQAggBBACCAGEAEIAIYAQQAggBBACCAGEAEIAIaBpBOia7gDJpy4CMpnMbNcZwbjUxxKftFxpT7DEikaj853sTa4GeDDPRfRh/0qn0yupayHSXNMIoACjaYQpKj/rqbTDqLXvY2l0WpMaTOCt+sEqvGc71pkaaFCTASOAAowBO1+e6YWFMstl8R8WpdyTToR2c3k01Z5JvJubH1n0ne2i+rb0l0rQIxIDQgAFGANydk2mwusQfcfZ4uFHkoVLBWKZU020ctvotA+Rvbk/R/bh/Cq3HT00SARQgDFIt39pNAQX45Bf8k8/ySsPVBcOOyujyytGcMM9W7LeqCsL8VMfARRgqO9DtSzYcbp4zM5zJdEwEGzUEvQlc9GQrqwV80It18EisIxAuUgUxRBAAYZiDiNK3ex3kmY/buEdyOdVdCZKZnU51hyj22vG24zybGz+b/U29LdhIIACjGH4+QsrDyULfth1tnilQCRz0LT5MH0pDPdlbxgxiLvBnk4Xaro/JJ9cCKAAQy5/aFSbR29kdaZuz9uZz6scpNGO5AiHszMXtky1G+HAob+X04we6SkCKMDoqWOrm7Uqlhd5Jk2E7RDZVW/T4t/SsO7s2bOHWG7WYp+oKx0igAKMDsHXRtdHrgj8DiUJ1r4trHDXRn/K9GHNNno+tqfFpLAelgnK0CMa6iKAAgx1fVej5i9lMuayjR82puZKI2ok1GGjaxOTIwvC7aY6O6DXJh26QaNdowCjUXh1I/xCurjbplP8X2DWorEdIqIsYzHpzyMDuREj/NgXiJKJ5JAHARRgyOMLQjSJ2lOwLDFTsoAQYVoU4trUdPPyGXXnNqTTxVrsFnWlYQRQgNEwwNoSfzFL3OOXI7xtPEFlS231SXQ/bCY9e3KQVVRod4uTRMtG8nSDAAowusGdsF4fvpdxVu3PX3P3eXkkYUJ1LMi7udnRxaF1Rjs60kU6VgV1ryYCKMCoCaAu2f/6W9Rpx/nig7DW0kyXemiib2u28evRvdhRcEjvsCbkI5naQQAFGO3gTGgvaTmS5kdThEuTMiTDQLBe+9CrudmZod050/3dGY8JBREJ0woCej04tYKgljtZe5z/XcxlwXqajFZHy13rsrtK2GmaEBnM2aVLJVDf+BFAAQY/ZjrhuPNY4rTuOH/r49flvXWiAAk6dbI3vTyhL2umnxsrnQTqIBWUQAAFGCVA0jXJytjCifHXxNt0rQdJ+q/09zT/efUo25UoHzBJPFKDGijA1ACOrpty34gbrYoTrk3LKQ3RtS5k69/BxiT95zDLsA6t0NoM2XxTVR8UYEjqndgUQXh0PH8vqKdMXlySWqFxtUTDu1vMnzXEepPGe0IdqIQACjAqwaY5ppvZpa3XHi2KfpJXEaS5XvRLcov6JlemDbKe0qGFWZZ+WUZ9a1CAIYkPnxbJrLYfL1hxMbN0HKhkQhK1KKVGN1fzQxOH2E5ytqUXU0pxPVYWBRgSODcxVeAatZ+fDKrYkkAdqqsgjgrlfjfUh3Oc6obog/4owOjQi895MuttJwqiktJLJ4EabB2qom9dl8NsZvuk/ra/NLen5+ubcVSyBwUYHXkrMVPosSq2+ESRoLKJjlQwgG7pb+eEcEcO64ZSQejK2SjAaBl5rN7z9F2Fm6/ck+jN5UQtQ4i7O6g8+duMQcwFLRuhWk24wVOTAQUYNQHEw56YKgyK2s87BDxQRB59tIwAb9oA7oTv/TmxWu7XoLtDAUYL7i8ultVZd6po5l+3xdOgO4YWukRdKEDAs7lZzKIRdeY0rEN/rYAEPSYQARRgCARTnqidCSWTdp4tngdt9eW1o2faRwASW+WFd2OtHtKJu88WbWlr1AEowGgI3uuPRPWXHOTHvOdV+mioCyRWTQSs2fTr68dYDXVztnilpijErgABFGAUAKPqY1jENVoZx5917KoQm7WgtRZVgdQeX2VwB4vFS7+zXqa9Lg2nJxRgCPT1kzfixuO28I4VlVR6EygWidIOAs+jx1iF+Huw7minO8PoBQUYAvycJ5Ox/kjghx9OES2EyokNCBCJROgEATp/mK/FihGdLLeifMDEOAAFGDVxfFsiq/vjpvxDT/LKe6opCrGTBAE7K6PUJeHW4SgVhPoOQQFGDQzXHiuaGnNZtBZEoMuJauBIUtbSkK6sRaNCLbfa0+lCkupIerVQgFHBRTEXi/vuTRRuhWP+jVRgpxxLl9bmNDcnM5qjjTHtHa+C9vBlGe3SXQmtvIJypuBWGLa0X04M5s6D6waougFu9PQ8I70KeNTIki2Tme/eU7gqKUuCHZjT+48R/PxMCOLQmjuafmXrs7wy2uY/SyD3uGF8nOyNE9aE1xvRtCmdZxgWE2MlmsEoiePhS4Je+y6UrIdZS2slWShP1suTQQv0tlBox82HEtrRK4ZTG83BxvjJD36c6SE+FgmQD9gA5m8KXa90AwowtUD1UiZj/rTu/ep/npX9WAupXjWbwarS8u+taaYmNQ+RdSf4tFcfDOu7hlWenD21zg/OdHqpXjldA8bUPHo00CGVRMZdFg3cmsBbDVvPzlTSmwhdxwWyaa0bmdUq6uFLKW3nWUGtdPpGAK+GhRGB7EkTgi3R5ckanIsCjBxwsFnL0o0f9qflSkPlNOv9ozaNTWlje3GUtvNAkoCW+USqNL0+EdazpCf+Os3hhyZ16W/1yS6ibDEiSpA+yIFj/vRzmWLfCYvyMww1uNDhJ6eHG74L34M7W9DMTQ3zt+odXxbwffTbjMOXSgbpw3eAaBsMc1TIQfFslqTFieSSDWk5UoOtnIjB4u1sRoOC83IQqvnR5bti2h83xTUT6Xmrk4PJrXmDrSK8Wprf1XNTlTYPzWAAqh0JJeN/2l3wr6EHF+zXJsCTqfTgqUro48qgMWpfslFJNlWYnrwt7zBu64c0KPG7EJsNU0VvTepp0CBcuiv0Wh5TvI4nqOymSZCpIru3N5PWU8UAg9l47b6Edvxvw9m2rsmv9jbGd6YN5E7v6WHxd010+t5msAFmZVzRyPgrIqxyIprFAQhWLDptUbi12uN9yWEejSesVFuOvgjw82Buix5t/SOcmzGUM4lfuM7gvly3Hkhchix/dxGCyz4UXP43FoLbKz5Qh+fLPqwbi2ZscKNKMUIXM8STghflXcFqXymm0t8Wg5rBrD1RND3mkmg5uJOYb5OejAsHa2PanBBLwqyBE8+0e8/KCJOnJ4Iq/T0YS6PH2C7RE3uUMsMgAsydbKnHumNFmx6/Lu+qFCoGRGRqTKNNH8ilOdgQdyH8XVEFbc1xPq0CvSl9NZKsWUbpC8Kspvq6M6991aiHD/Q6wOTny9jzYz7sTM+RDtdD3xFikp87g0bU61FVha78I6GdvI4WfBU5yauZWdzsQZx5Lo0ZTxTR6MNzvX1bznoq7dB76ZsHKLgoHqZcCzrN5xt8h+oUS/uyBZNbD1690Ec+AthBzmFrCu5eSBf2k0+hH0/1bgaTkyezWx37fmFaTlkEuMjAT2bUPEhH9GDRvJqb10ykRuu9Z1LavguGd08JJ2SlTvYmxzZPtJvvaEN/gZOX9OR6FWBiUwQ9o+OL99NoMgfSI69jBZvUM6ZN7U/cwq4iczb/UUx7+q5cUTN6/j8E8qYP4k7+rgfnuD6BohcB5uELoeO6E+Jf0nJKR+qTczRpy0RIJOVc/+tEUkT3iWXA23SqmCaWGuQxENxwutQ3+WPKIM6kb1tY6EXlScoHmPN3JAHzDhTEgSdRDSIlh3NzBxPapL5cJanVJzt5XUi78g9KnYIHyRAfVuS8UKtdeHjISEvZRd6XH2T1Z+8r2AHB5SQKLviGVi8v1e4b4evlf9TY7WymGeV/y1Q1XyW++CvCneM2fdj7ME/cVCUBJGGipNd3JBT3j0kR/CoQobUWvOOoSxtz2uDOLLxsatMnZohpZ+4Y9m1rFUHkhXWzmDE7xPo3Ffl1yka5GczRZIH/rrMlp1BwwT9ubLlGtKB2ujnEjFUmqAP9ow9uBKyOpIh2H0wSBOLmJAEDpTyeWyiz3HqmeA8JcKOkCt0/plTQzaSVaW5EGwSJqdBHJQSMN5zin374jHqvS5QKMCcv8UYKxbLGKrnIwJmgWiHtW5hF6PLTqqEZrU0jze9c6dJGDfZtfOqWeKIG5WtENKUCTEyKaIFGUNBzodicJawbm2aE5cPU8UfVhFY6VpsU3Z9JlQwjhSI4lKBMgHn6VMaAKl91cNiGSD8h4AlpMJvUI+4yozrANrYzoXXW8UxKHf11yQvVLRrosn9V+qZMgMmTSOxVMRDx0Gg9PbS7LV0b5oGwTW7FoszQq80crbafvstTPyuYFjWmjJe5towPWsRFb7oa2MmCZmdFrkuHbKYRrbe3Zi5Z6o3jFBgS3NaqSEETKR9TJsC0saNjt+bQcVAcw6ixnTENS8ZNxk/7Fgxaw7rkCnxkxKmaTpS7OUqZAIMB7efJ2EKBQUAaFQNI9mpUHZjh3Vk0I0qNwOoWaPdv72ZmMdrtUf3eKOXeEV2Zm8Bknvpm67+E+rbGtDaNyZ2twt7ahNahhW63zqk0Egb7WFDubhKlAoybs8Wrcb3ZS6k0KHSlK1aChAqfAA8GTfeb5+RHys/DfFUvL1Ya+TX9UkNKBRhM9QlBlhvgLEUU1YDWpr6uTUxJP3v5jIc125jWGe5HoY9iBEK6WKxbM6bOPMUU5G2hXIDBoFw92iZ6xkDOICu20UPyQqsbzczguMvgLtq/zKiOtX7uTBqmN/p8iQCLSX8+LpAdNneoFWV/UCk9O30pkzGPnuBNjEkWL4QsdppPz0aBb0C/Dkyarxs1Xo+qwpmeW0o7eFFIAYS1omJlcAeLTWP6Wi1rbEWn1LZ0dXQoHWA+G3MuVei58WRxfD6/0qm6gYb0N5ZzZdn3VlD4jJpu3fQHn/bsXYUhuewrW63ZRi9GB1iEhPtZ3v6qkYIPqDkSFQC98GDh/IRb4mXQTMlXPwVmKf14AqTBdNFCGkylFcJJmP1aStueQLmjHjitVEheEdLVYnlogNWGZjZ0vkIqijXoVYDBsM/KFjWYvrc4lieo6EwxX6ilboM6xrSZg6j/lrgWCra9LjCsWUxdK+PMFSOsf/BqaX5XrUFAQma9W1rDtrILCmR9jt0oHn34inCOoSSmMjfVj9+KOpbGhhRgBMN92atHdedutrWlF5MwPqitkt4FGAyRT87amPtSkhCxrehkkaCyjdpIIQEIAWIReL1qtE14T09myixi5ZJKml6vVTRryMhOWmnvDu+2SyDVQwmpkCdYGawetEBM7WLQxaJK2uNXZQQjQz5x3V3No9O2ODbCggv5tCNWI/2YVyuByf2nMvsNf35Ylp4tHasEOSVJvmlsShvTi0NJ3TGlT/wtpF29r7/3Wb2bm54Y2Zs9RV9qHikz0AwmwHwG48gVgd+auOKD+lr90a2pKS3cl00zNaGOa0vLZLQ/bopoNx7obXB5PRWKqf3Qg/uHMl9KfaKhzigkEPWSElndhTEf5l+5J50MYvVuHQoral/f1oTGZsp3L5Y50x4K07doYEpztNGc+flQ1fERvPK8KaygVVTKr+woLpV9XNSFdTICPUweUc4NTE5tiLCbqo91p5VBWf4IVIZTD2iOXikZvDqu+ACYQq2z9QRiH+jFoPXyIj7b/9//Smgnr4sgsBCoLLVECeA6y4wRftzd1FKbWG0NOsBgUD58L+PsPFG0LeWe+DtioaWONFgEp33birjEVKnZpbTDyYZ77N+ruVnsjP7sea2aMp9RZxRoRlODDzCfYT2fLvaJjuMdhqk65RIrEzE01o61JuyKwYaTfNqL94Z1WO7/fUDnzwm1/GGYD8vg1loUjUG93qZWZLS85708mVcOzrf3CPBkYEmtJPJo9PnZy/flhJiHbZW/+mBwwUUGlRv2HFvo0AIFly+HEQowVfBw5NI/rB5tO233NFtXBxvjVEK+cRQRUiKWvwiLV32BREZTsJ6LVxQl6OFy4t1ZAyx77Zlad5xTPfo7SiitRSVRgJEDtldzRs7pJfXaQxaxn6DZ4H6O5UCCHslBIMCdseniKge34f7sRDnN6BEgoLk9SorDS6fTsZ/0FRezhOd2/CVcm5tX5ktxk5D6BCHgaGN8c9oA7gx/T4sbBInUWzFoBlOLa/3cWOnxC+x6RAZyI4HUcDdda8HJQJqlw31ZP51eat8JBRflPI4CjHI40SKDObuix9q2gi3I00qyIDI9QgDW5P7dNamO96zBViv0yCyNm4ICDA6I/d0Zj3dPq9s31IdJyQTMOExFpFUQ8PdkroQ1OXfvVub3EDD4EEABBh9eH6nnhtqs2j61ThuXBiYXVWBHLBRBwJpjdHvNGOvO0aNt5sOanP5f89aAX1CAURHUjs7m/8bOrec/N8SqP4dJf6SiGMRGTgQKIgNZoRdXOnTw87C4Tk4VqaEVCjBq+im0G+vPQ9EOHq5NTTeqKQqxkwABfzfzw5CrxSEy2CqeBOpQXgW0TU2ACxvS6WIQM/1wsiAhJlmw+21hRRMCxCIRWkQADszlhXZhLooIstwDr0Not5Ag7NEMhiAgMTGQhyVp/fh67VybmBwmUCwSpWEEnBxM/twwwb41zFp2oeBCLNgowBCLJ62FI/3DgVn1RswexA6GX8UnBItH4ghEAPLlvIgaYjn82E/1+rdtTO0CZwTCQqgoFGAIhfN/wsJ6WCbAMfJm/m4MtDajIYzVEQv1u/ecnOvgOrQ7+4g6chBvzQigAFMzPmq3Ro+znb5ytFUfOKilF5X61AZExwKwWcvMQdzBB2bZjdPXUiE6hviL7tEirxa80cuTdVYmk12GomIzYi4LZ0ASHhstdIu6+AIBOt/fk7F9Rh/rjfb29HwEjnYQQAFGOzjTYPEQ22n6JeuJ5NiM3UW/F5VUttdS1wbfjZ2l0ZOZA7hDAtqxMqINHg3tAoBekbSLN83NifEoaYV9R0hTidXbKtJy94bWXWVwe+b8c784NMOCi6EZTwZ70QxGB174lApi3bP3spjxm/IO5fMqe+hADb3uEnbwrq2ZyB3q2Yj1Rq8NJblxaAajQwc1qUt/e265g19kH+5EUAOtCxDjC8GwbhbLY2fa90HBhRhA1ZGCAow66BHEG9mH8+uxebY+da2MMwkSaZBiYNZy//cZdbvMCbFeWLcuXa9LBVPFwSjAkMRTTvUZj84vt/eICGRPodHofJKoRQ01oO44Vn8cq0P+jZNZFjWUNgwtUYAhmZ/HB1tuSdviYNfdlbmNZKqRUh1IALb74CxHl3lDrRfD2hYxpRFIaSk1lUIBhoR+gy+KdH2kzeToUZZuNmyjHBKqSAaV8meHWvpDArCINk3peWRQCOnwNQIowHyNCWme+Hux7+6da98efqV3gFKousFHz9DLmtqbHj29zLF9mA8bJfwizWiVrwgKMPJxIc3Txlb0IviVnrByjLUPKGXYO02w1jInhDPs+AK7YY7W9OekcRJSRCECKMAohIZcDb0gs1riEkdnyA+7FfsVJ5d2mtemmyvjQMxix/rDunFOaL431ANRCKAAQxSSWpCDXc6D/LA/Ro+x7Iwdf9dClzrvAraeX60eadN1Q6TtyJZo61nn/sCrAAoweBEjAb2/B+vOvkn2rtiBMlBHb3dOvJzNDn+sF+7NvEYC2JEKKiCAAowKoJGBxdGRLsIOlO2eUqetUz2Tq2TQiSgdsNQWq8daee6eWncEVi+cKLlIjvYRQAFG+5gT2qOXi/mDYwvr+YR0ZU4AwVTPJVuB1QOHGkQdA9zR5URCB4qOhKEAoyPgie523lCbHXtm2Di51DdOIFq2NuQ1szdJ2jGlrveaMXVWfLoMqo1uUR8aRgAFGA0DrE3xnk7M57Hz7INH+LLDYXGUKlvalVjd7/gF9QLau5ihu1jaHDBa6AsFGC2ArO0uZgy2jFkx0qqjVzPTC9ruG09/Tg7GaUtHWLXH6n7j4UO01EEABRjq+AqXph1aMp/umlY3cLgv+3tgJN0pYKy+97Gf7L2DO7LScBmGiCmFAEo4RSl34VP201rGwfsvJTc2Hi9Zk5YjHYBPAvHUWD3vaYOtpmCld4mXjiSSDQE0gyGbRzSgT5uGjBy4bjBw3RgbX1ibuauBLmoVCdn8H2J1vLF63ii41AqX3hCgGYzeuLJ2Q3w9mJeBym3O3oJFSRmSxbVzEEMBlROPxc+3C8duiRMjEUmhCgJoBkMVTxGoZ/QY2yUzB3EGwGxGo68pcGDuaVQodwgElzAUXAh0IIVEoQBDIWcRqWp4D+4feyLtvT6lgiBS9EdZWH3uHePqeQ/14RxHiaAIh5cyAqEGGPoYOgIX0sXd3hWV721U16SZulgUCSp5AjFt+Ag/1ll1ZSF+6iOAAgz1fUiIBQUlstaPX5UelJbJPFUVaGpMe+jkYBRqb2N+T1UZiE+/EEABRr/8qZY1UN6WnfO2fMqbD+VRIIiLR5gVi77dycl8MYdOf4+HD9HqNwIowOi3f1WyDmYzbV7lSxfxhJVDQECNY8SSZZzoaEOLsrM2Q5UTVUJbv5lqHDz6bTqyrjYEPvCl7R+9rFhaViHrBQu1X5AzTGkpjR1MltlbmaK8uLUBacDtKMAYsPOVNR1enegv8qStTRlGthXSSl7DeuY6OaynrL6IDiGAEEAIIAQQAggBhABCACGAEEAIIAQQAggBhABCACGAEEAIIAQQAggBhABCACGAEEAIIAQQAggBhABCACGAEEAIIAQQAggBhABCACGAEEAIIAQQAggBhABCACGAEEAIIAQQAggBhABCACGAEEAIEI/AnccSp9uPpO2Il4wkUhEBlPSbil4jsc48oazR+C3vL609zptDYjWRalpCAAUYLQFtYN2wY5KFq4N+zvs7KUOIZjMG5vyq5qIAY8DO17Tpbwsrvp2zl3d7zp4PqyBpFRprmgachPKR00noFH1TKSmzNCpi84fziZlCD32zDdlTMwIowNSMD2olCIG0bKl/1B5e+riN+duyX4kaECQWiSE5AijAkNxB6qqXmCbqOG7j+5P3c8WN1JVFBH9aTtnEoat4t2OvCoOJkIdkkBsBlPSb3P5RWbv372WcFccL16X8Ixn3SUhFt7bma+cNsF1uZ0cXqCy4FkZYazGLSRaM3HdBMBSqPPaoidzL2exw1BDWvOb1LV7WRIfaqIsACjDU9Z1CzQ8kCj1+v1h8DL7gTnKISiOC2IPG97Y8I6eN0Ec5r0UNd5+TLE/MEPcDwVYKhJeu+sHar2c7i78VtKPHFEYABRgKO6+66i9fymx2J/Pmn74tmg5tNb7+ejYzPTA22DK6o7P5v9XlEP13Tp7M7mIqf0BqblkIrMX4gHyzan2U+7sz9o/0t/m5dRP6W6L7R/J0hwAKMLrDntCez6eJe2w4ydufz6tsiENwZYAbc9vYsdaznen0Uhx8KpPeeiBx+ftfcd+DyaL5MPhsqgqyZhvljfJnjRvhzz2tcgeIkVQIoABDKneopsy5zJI28/cU3wZuC9Uk0CSLwq39+3fS7mvK0SvFne+/KA86fVMykkaTOXzW3au5+fE5Q20nODugOtcq+pM0bCjAkMYV6imS9ri01co4/vYneWXdVZEUGcgZGRnMPaAKLxE8D18IHS/fqxiWlCHu+CSvvD/INPZxZa7aEGG9BMrWlhHRB5KhfQRMtN8l6lETCHi5mD8Aub5wanYyHGzbook+NCmzZSPWG5C//nMfB5MEgVf/EYcHzHt3Ov2JOMLTiflck/0j2ZpBAM1gNIOrTqViJ2bjUkTR2OE2ZRXR9QxGkZ65hTLLgvdlLtZGpnednbWzTqRIF/QcPwJoBoMfM9JzBLizMuA8Ss+ofYU/J2VIFpNe4RoUbGZD50PznRpIUBOJEahxK5PEeiPVakEA1i1k0WNsl2yfbuviUt/kZC3kqBkhoBEE0AxGI7CSR2jHZoxs0GZQYqq4y8pjvN08QWVL8miHNNF3BNAMhoQehtcbOvxjEKlagDfzWvxs+w4RgZyxDjbGOUTKrioLuyqAUjNoCl3qyUUBhmQ+O3KJH+Q/7+2j4EXvUpPSBG2JVM/Wll48Ppi79/SSeq1mDuaMdbI3uUukfExWUqbk226z8x5FbHwf+9d14YCnb8VNiO4DyaMOAmgXiSS+gl9905Hr3sfce1Y2pIpK5aFdLGbNHWa9SVNqxqWUDF0VX7wZdpHmEHEOBu4ddY/aW5hcVd9m9iZJcHjuWNRQy33oTIumPElOuSjAkMAvF7PEPZYcKtorEMuayFPHs7lZTNTQOtM0ebL1aZHMqqk1nSevfzzP5AWYqvwONibpXdqYJTSua5LVyZed0JROl+CRj2iphQAKMDr0F48ns/7lWMEvFzNLJyihRuW4XpwhE/pySb0jVFuAqW4n3D+6G9KVtbFpPfMbvbzNH1ZvR39TGwEUYHTkv9grwv7b/+ItE4hprnhUcHIwOTZ7iPXyDi3MsvDwaYsWb4CpqhcsPmc52hg/9XVjHm/WwCi3fXNmOrxSaeUSprbwMbR+UIDRkccPJfM7rj8uwG4N2+JXgc4PcDfftHqs7SL8vJrlUCfAyNHsjZ+7+aW2TuZ/jfBln4BgUy6HBj0iMQIowOjQOQ9eSVwmby06AImhOqqiBodJfzR7IHdq8Lfs86rwa4KH4ADzhYrwOvWgS2uz8w62Js98PMxOtXZE95M04UMiZaIAQySaKsqKPs7/MTZZgO0UqeQPazY9a3RPztLwHpwTKqpAGJsmA4wcJQWwO3Xepb5plpuz+a0AN/NLaJYjByUdPlJpQOtQX73tOjZF0DPXzSwUAAAgAElEQVQ6nn8UDFSUWlIZ23NmD+GMDuvOvaoMsSZotBxgvjLBzsoofeC37D0ezmZX2jub3/+KAD3QKgIowGgV7po7e/Ze5vDLoQ8b03KloTVT1twKB+guDOjE3AEzmgT4RZfWTE1saxFsdx/9u2RwWk7p4PQcqauMRtNViZJKa5ZRppOj6RNYrzrWxMH8UXsXs0xirUXSakMABZjaENJB+++XhH02nuBhrzvm6nQPgeZ6/46sZd/5s8+pI0dVXjg8aJKUKQq6kCbpcjFTMhnkEHr9QQW9Hvh5Mq6EdmFFt3NhPFGBH7HgRAAFGJyAaYscK04WHS9cAbOZEdCnWn5iM+nZYb7sPQGenP3N7en52rKhej/n0gVuz99W9k5Ml7hB5r0gsIpTnUaLf/O8m5nFebkw7vbtyj7qyKV/0GLfBtOVWgPXYFCqxVDsct/6k/wx3b9hXvuUWa4WDuWbz6WKfdcc48XATpO98lyKKb9pYnpihB97fU8P7ebfladRxlNxkyOXRFPTs6WdCgWVHeTRaO2ZjPZoXBBnnb8H55QmT0xrzR6SdIQCjJqOqJo9DmYKr5YM5/b19WAT+q7/7p2s3tqEwlkXMyA5toxWR02VP7LDobbbXdqYx/l5sC6SYW3izkNJizf8iubX/ynt9SK/zO3R63IvUJNFhK34ZND5ns1NU/t1ZC3o19HiJj5eRF0dARRgqiOi5N9YUbHV8YK5WCnUaizikK4WK0eFWq23p9OFSopTiuzlB1n9zX8UTL71UDoG7i3VVYpJCSI4X/Lvj/04MwaQ6DzNU0hXkZ8j9kjJKvPMfiUNevS6rAnY3EoJc4gikfl7mMeEdGX/jNZrVIcUBRgVsItLEfZbFc/fUbXURnUxXvB+v2taneGwi1NRvU3dv7EM/HsTS+dfzBBPUlfWZ36y5uStah82Wyzky9r+dqEkLJ9f2Yso22uUQ6d9CO/Gnj5ziOWhGulQo1wEUICRC4v8hwUFMu7yY4XLUu5Jpsin+PKpNccod94wq1H+bkyNnEvJfiFptv2sYHHKvVJsIVitDxUCTHUD/7wu7va2qLx7arakZVqOtC+0a+yVyrm+8Zmfh9Ub06YpPa+6HuhvxQigAKMYm69aflibHwf5WkK+aqjlAdynWQj5caM1dSblbYms7s97P2yCL9lQUEWlJGJUDDDVYU/NFTeKuyya8uRtuTvUVvJVFYvqcqv8LZw+wHIgbPsn1kCDmqoggAIMjuGAneuYsetDdMo9KVb7GdfHwdr48sKRVhGfcuTi4lWWGCu+9udt4chr90sHF5VUNlOWD6PThwBT1V5sdpf2pMLl9iPJoJfvy7/JzSv3hPbqNbHxQPQfrXdzs6NRoew5zRyZL1QSYEBMKMCo4OxxG/NXweJuFG5WeJ8f0Z01d8Zgq724eXEwZMtk5hkpwtBVx/gbgE2p29r6FmCqwwWvUc0evizvAOs3P6p6ubSazNI5IZZjhnVjH67eF/r7fwigAKPiaNhxhv/9rjOC3cCO+1cRyohcGtWTPaeXFytNxe6VYsNmXHFXBf0T08R903PLvgMmha9PRAWYT3eR/oI0mef9PS2yrFm0v0N82Nc09XqoFBDViJ5Doq8zfwtC07MlHp9eK1W+/+Vkb5wwL9R6NtHnn1Sxi4w8KMCo4ZU7OaXfzN1TuA9+EdupIgYCzdmRAewFgd6sdFX48fBghwFjLgkGZz2V9oTE3Nii8BfH9gkOMF/k5MX0hDNCmYFeFuds2cZPe7Zn/9nUjjyLpXceS5xSH5eFJdwS9nhTVNEDD67/T0svC+tusWTWYMvV6Db3l+ihAIN/NH3FEbWnYG9ipmT0Vw1KPoCUA/vn97ed3rSp+jlxlekSgg19ZRx/9pV74gH5vMpOGI+mA4wcvYpdG5sdHuHHutikMTPRGSoeyKHR+qNHb2R19p4tnAdld4Pgh6MFTgVerh5pGRTgzb6Hk09vyVGAIcC1WEWAnQkl38dcESwTiGQOqoiEX/gXnVoxtn3va/27NrdCbz+Wul/KFHZr2dD0/oBO7CRVdK/Ko2K6BsjrYpbKYRr/06ud+RkbC+Mn7VoyHqmrizr8mE8vpEu6XrgjHJz5rCwQgo2TkvKK/T2Z2yYNsl7T2IpepCSP3pIZdIB5+F7GaVmXXkKUd3MhQ13oqoKLaqYoyA9wZ+xYNcZmCUy3K4nSTVtyVAwwX6kHeV1utG1qmtXTi73B353x+CsCLT84eqVk8OqjxWvhgmYTZbrGzkDNDuEMDvRkkzJ3sjI2EEFjkAEGe0XYlVA8dec5wQqv5qbndk2tO4yoRUjsMN6qU0Ur4JRtJDhIndK8RSFdWNsDvBi/eTszcolwtjZkEBVgqukqcnE0OQXJwO95uJj/pctEUufTxD2OXRUMg8XhH0DHWhf4u7U137F+nO0UGF9l2sCfbH0YXIB5/Ka0VdiKD/Ewy2jz2RlQd+jc7ql1+sAggMfEfC7cEXXe8Ac/5h2vspG6EuEXfLefO3s9Fcp6aCjAVIewHKor7BwXyD3Ry4t5qXqjNv7GfqRWHeUvi78mnAb91XiCGO56PVo33jbMvYlZhjZ0I1MfBhNgCgtlljuTiibHXxVPk3cjGQbB5S1TrEYSmUg6G2YzJy/xZsemiGaA0y3UdHwl7DpBpjqLfd1asC87ONDfqylPI+xaCjD/6Y69ijSrZ5zl58E82riBaYYmDzLKAywnT2aXmFYcfuSycIqiwnmf+ITB7ZmbZ/a3XmtpSS+UJ0sfn+l9gMF+aXacLR5+JFm4FAZAjQt1sNCaP7GvZcQwH9YfRDobS4W5+UThnMv3JONBLgFZ3T6mFLjRrwPrN9eWzAtEVGQkyt4L6ULvuft4KSBP3YCqkkoQcFLdmpjfDG7PiPV1Z97S1rZxvkzGvpQi6A3ZCBfkFVbUVFP8dWQf7i+RfTi/qmQgxZj0PsDM2VO4IilTPA+PX8b15oyaEMTdj4dHGdrz6WKfDcd5v8FN4BoDnTKyqtDk+Xsw/urlxlrt502OtZqXL2U2D9+LfeOvCLuk5kix7XsuTpuIIs+BFJmnRnawWdKmDV1AlNDa5PyeVDxm46mS1UCn8BQ1LGJfXjGCG+7ZkvWmNnlUbtf7APPopaj+xK3Fp4uEFe54HOXjyvxlY6TNAjw8ytLGJAtG7D1fshC2Pl2U5VGOTvYkuKPF0W8amZ6HPCZXybILhb1GXEwXDM59K21682Fpb5hJfqOcPcRRQYKtv/t1sDjdqz3nQJO69LfESZYvCVvs35nEH3/sqvAnoFAUYIvGBbInTgi2jJUvhfpP9T7AYC5680Zm8d2WvGS4ANgej8uwrdKtk+0HaCqP7cq4opHxV0RLQaeGePRSklYEMxtIAWlxsacnE3tlIc0He23deaak35M8aUhSeqk3bP3iPdCmli1O9UwOjQvm/NrLw+K6WoKUYMbW4eb/mn8eLlsqLK5nZ2l0fvskq0gnPSwkZxABBhsH2W9ldSdseneoUFDRU4lx8R8JrMs8mxjEmTOsOyceD5+ytPfzZewzKfxwWJ+Z/bawAtcNaGX7gF/vB442Jv90dzWPb9bI7H5HZ/N/leXVNB0WbO48LvNOzxE3h9y8/XPflTeFHwLs6oXGxyYsmt90a2p6sJ8P83QbDd6MBhtNdsI64GFYBxSKZY3lYQrj7GV4N4vlfYMsDznS6SJ5NFR8pnEnkg2UcRvf/wVnGILx6gXnZbbunmb3I14+Zemxk6OHkgWj1p8oXgpOqacsnyp08At+w9PF7GJwR6v1bRuT77TprQcSl0dvyjvsv1DyA09Y6aeKjTh5hLBWc2hsoM2CFo6aqy5QAnl7Ju98v62mnELYJdHNU+2+c+CQc5cQJ66a/5XAq5Cm6eGLbBy5qWB3ak7pKLx92bCNcqYO4Ezq25F9AS+vsvTYr118ijDs+A1RSPbrMixLm6Y/eZAQ6+SQrtydHVqYke7UKeDBOHpV1OvFO6n3+TRJb1i3wvK6aOiHkV7m42q+L7CD2ZZAd47GqkLGJBcPWHu85DewQ9EtbmlEIHvW+GDLLZp2vqbla8hRmlZbffmHk0uGrTtevA8kMfFKg8uJ8aN6W0z/toXFa7y8eOixhcJ9ybyxf90Sj4eFUWc8vHhpibrsiLdfvPQQcMzir4oC/nlR2jk5SzJc0SsHXrnV6eG18voPfuxtIT6sWE0slr+UyZgbdhWtuXxPcV5l0OHW9AHc6ZD24kZ1/ajyt8EGGMxBR5JLuq85URwv7+CdMg4M7cr8ae5QmxXK0KpLcz5N6LX7rGAhpILsr64sefxUCTDVdU/PltWNvVIYdRfSUMDNcNfq7er+DQcwH//Qkzv9+x6sM+rKkse/4kjRlGN/i7DEYApz9UT0Zk8bH2S5SR4/2Z9RLsCcuiHse+iiYOqGH+1CGxJwIhK7oDhlF+8wLLB6q+IsGID3xgRwVob1YMVr41AXlrsk/bHEPzW3LARSCnQGnXHPwOTZSdUAU9WWO4+k7ZMyhb2znkh7PX79cdeGsPENs4mL00PYM/xd2Xfl4afOs/Opog6/HOXF1nASWBQRyJkyPpir0UyI6tigiJcwByjqgMjn2PqJ/7y8XHgPbwx1ly8eW1DPnwj52LQ7al/h9qQMyRhV5cGW9u3RPS1/DPWxuK2qDLx8T9+Km5zLKAvdnVCyQN0yrPoQYKrihwWbrX/yQ+49/5g/2RgvtgroKyEVw/bZfa3n1yXwFj7WV+4bcaOQXwov1LRlv22STdNOrZjPFOhGyseUCjA7Eopn7Dpbsu4zkli6wp0T6g23JShZUcxFQdiak/ytAIqNqt7q5mp+aFh37lptL5imZks9Ux+X9jl9Sxj0prBC4ZkLRXYRFWCw/DKxyYKxLg1Mnrg5mZ7Q9RcC253blVAyHE4UB6XllA4G+xW+iijCpvpz2FJ+16cdc2VUiNUWItdnnsKC9rxV+bth9iW3DE3f9oyNS763xZ1wvrr+2vybUgHGY/LrgupffizIxP9Urx9RjsYSZs9bkZ8CpS/UqpUMO05nZodwf9Z03l15g+XpUxnjyC3e+PQc6WBYs+kij6b6M6ICjJzLjmJvZ9N9g7uyEqAedpIu0xZgM+BVcfxlcVeFkdXHUXU8lPkbXo/vwi3pkUTfko7aV7AsMV3y9SlySBqfvqU+YRU9lbFRXRrKBBhs+9brxzdyc2r4fGO+f2qk7YSmdLpEXUAwfujLfO0J3k9HkkVz4E9zdWRCHpPEAV3Y29p9Y3G5mQ2dr44sVXhvZpe2fl9Q0frPm6LQR6+lrRQd09dggKmqdj6cJ8pq6mh6rkMr85s9vmGmQsCRqmKXOjzY5dOzd0p6n74pioC1N7V+SEAPQVh31qaR3SxXE/natOY4bx5c0P1qAyF9a33KfGcxH1FG2dtPBfbj1/EV3iFxcjBOWzLKchCRJzKxe0xrjwlXpuVKwwErtabWMK3O825mfijMlxPfroWZ1tZpqn8Rb+ZKnN/lV7Q6fUsUViSoaP4kr8IDaIy1FGC+UAeS7xR6NzdN83JmHPF2YWRB8MkkaiZa3W5Ff2OvljEXS8Zf/keCFa1TdGdIEft/z2EROHPaQM6CAA9WQq3EShLsSOBP3XVWsLEq+fLRXLs+nhxSpuqQZxZlAgz2Lg0zmBp/7bDEPvvm2nciOhfq+QzRt/P2Fh0BANVOHoU5ARaor33b2mztjEHWhKaFkOfg2p7deShp8eBVmYejrVGuvwfrTm30tbXLeUWqjeW/dizVAuTmTRnT22aVJk/UylMoP19mv/aPgkVJWaVYSg2VP3D/azFU8VyisoBqjGuP8yfC5dhtnx+jGQxRyMqR4zn5NZY/ly2nqeqjgsXhVt/168Q6WwsdrmbstWl1HG/2mVTxNHjNUHgNH49Q7Bc8tKvFgTaNzBKJ1hePHkTSqhNgquphzTLODPQ2/8PnG2ZMh1bay8l7J1vqAelUp8CC8EhVcWlWz+TvZaMtx7SsT0zi8iozGR4EGGtV9dIFH2VmMBg4647zFx5OFmC3j2v7VA73Zc2bNdgqujZCvO1FRTKrOQfe74PKjgPx8tZIDwt4w+Gym29biwtULuJFVID5AisZ7dm4IM4Kn8acI9rK64KtXS0+ULjnc1mXGn0nt5HOh1O4w6CO9Tm5zTgfwkzmx3e8ihZrxthMxsmqU3JKBZiHL4SOEVv4GTCDsFMGNZhu714RXmcmkYtvWL8wm6FfSBO335dUMjf7VfkAZXTBQSOFV6jUNo1MkiDF4gXvFsx0WJcQ4+DXKalGAsx/FtH53s1NLsKO1P7WzS3+JuKgZU1ggZ+NDl8WhOw7L1jME1S2rIlWUVuYL3vx7MGWhLwyvSmUNXK0ob9Q1BcZn1MqwGAA7kjgjd91Vqh0ukH4smauCbfrBEXNCNlhqu7ExDRRx5XxxWt5ggrsVC3hH1hXeubpbJ4wwo+5zq0J8ynhHRAsULMB5n/KwsB9NcSHuWNeqM0vBJsgV9zsvR9WXswonSu3sZaHsHi9Gm7iq8Rbi2jSN1MuwGCI7jjNn7jrnGAr/Fcp/bG1Duw+x4Qgy4Oa8siRy8Vd/7ghngCHpMI01QfILYCbz3HNHczvt2tmdJKM6Rax08XHrpeOP3dbHFAk/HjzWdOfUpipHhrcnX040J2ZrMnOIPWq78rYog1FApkb3n7gh+7s5il23ztyNZcOAq9O2qBX6guqDUXw9oHVhY6O5a2FTGG9lOWF2cC1+WHcqX5umqsFnfNa1DDuqnTiuTTRSHiVs1dWNxXpeJBE6ohLA7McL2ezU+1cGE9UlKMRNuxgW2KGpPvdJ9LOyXfFgXDm5GOZWk19WEz68/Bu7K3d3Dm/tWpAL9BUP7+e4Y3bfUa0Bl6WLfH0AUcVstdG2A7UZV0nPPoSQUvZAPPZ+J2ni3/Yea4E28arsTZNVbCwrcRpvW3WODpqLnMYtk6z/nhx+I2HkplwmhZXPmA1HIut3+yLCOJcamrPvOxMwtImv57hh9/8t3TAvWflAXi/oDhwkQ7pyvppZFfL7ZryMWxrsyftyk+BHzjcszQo9Ofl7WyWjsMeypJSPsBgyKdlizquOlqyDJyt9OVHexvjO0uGc6e3a2nxtya9hy0Uns+SdDt/SwTVAEsHKLtATYBOohb1TVIb1TPJ6NyKcb6elXGuNrd7a9P/JV9mc/+pxO3GXVG/OzllPWop9VGbOLntWM2kQG/m3r7tTA+0bER89n4syKz9q3BWUrpkBp7Lplh5nAlB7CFh3blX5SquRw/1IsB89seKo7w5kMUdKxeh7KfCtYlJ7PKZduMaamGnBivnkfxYGLTxJG8xLB8RWbpEKXuxsyWezib/tHMx3xPqw0lRiklLRNhhxotpkj6wzlFrpUS8Kn08b+TDXAQLwti6HeGfuCv8oFVxghMguNZSslU6l47vw+0Z0YdcfiAaHL0KMBg42FH4jXH8rbDYiie5d1FIV9bq0ADLHdq6L3Qus6TNvdzKIWfviIbAFqjWy3gAVBXWLKMrge2Y1zlM+v2QjtwEom6lqztIT98Sd737tLQPrGMNhRlfU3Xl/ccP52lmDbFcONyXfYgwmZ8EXcqCnC5H+EexVCLKysYC39FZdbq4NDF/oCwP1ej0LsB8dsD6E0WjDl0SrYe/FeU9lecr3oxB3J/Cfdm7tXnrFzvfsy9Rshjy0fQBperLU0w7z+hvYZdqB5Q6udbTk5EMGMB3QLef83ckATEpJRPvPZP2A03Uug/22RJIrJ00P8xyokczRjaR1mHrbiEr3t158rbCS0m50pAuzJnzhmlmZqWkDhol09sAg6F266G46dKY4v1vC8t98KAIF9dy4IDU8s7dWUeJuqGtTP9PIR/I03uSDtgW7/0X0h6fbvoS8qVSpv9qNK/h/Ma/TR3MkrCbz/UdGBktCU6yhEen+y8lzf+6IQ66+k/pCFWzD1brjzesu8XmyACrTUTWisbWlqZteb/9aV4ZdnlS4Qd2NG/OH24V5deWeUUhkR406HWA+eyfoyklodtOlyyB6Tau05jw8/3O15VxJKwH5/d2zmYZ2vY3VhHxwTOR9+UsSWjmU+k3MP1W9pdRE6pKoY7QLecGpuf6dmT+3dSKkU70CWlllb71SOqWcFsQfvluabhAXOmoLJ8CujeRvdmrI/pwseRRhM3Yfv69cNLp22LsJrRJ1X6xg5Oje7GWh/tSL/2lAvxqfGwQAQZDoLhYVufHXe9XQk2asTUioqARtn/Pje/NivL3Ij4nq4Iuv3p8Ll3g9qGosv1viYJJqhz2+kqgeg8KAjwZl5ramcWOD+ZgC5xa/zx/LrOOv8P7Pubyx+qYKqdawBTHqnhujOAOIXK36VBScfD6UyV/fQYGqlEcXzrGdoK+1DxSxuEGE2A+g5GcLvFfHle0FWYDKpUrZVvQMyJ6cXb1aMX+XVNnLJRxHLzvm8I9mf5QO6ndtX9KsXpBhGfUV0aPzzQO1sZn+nVgJnZraxJH5JdUGR3eyGQWf5wtHg0JmibCLLWVMjzyaGD7uCCiD3vkCF/uaXntqjz786aw/5rj/HWT+3Kihvpwjqsig8o8BhdgPjsrak/B+sRMiVr5TWFWszsykPt7gDfzmq4HARZwNpzgBefxKqHes6QTnMtooiudsPMnIwPY0e1amyS2tNfu/SlscT/htmQBBFyVjwH4eTC3RY+2ngavTOW6wlBf+jXYAIM58PCl4v77Lgg3wmBU68uIZTPr0pqRALsvf+oyW93nQYntZqTmlLmnZYtd0x6X9YMk4E1hoRv3iVMCBjl2T+i6p7PZX/6u5n86N2LkEiCzVhFPIaXGsaTiH2GbeyL4VqXrGthBzK2RVt85EZTTpVal9ZTAoAMM5lPsvoyqpWTljQknB5NbHVua//l9V8vNdnZ0gTwaXTzLyhY1ePSm0uf0HXHgP8+k2A4HnkNhRKgsdW1imgiZ/DZH9rHSWOndqopmPJVZbf/jQzTUIh+nigHYOZWoEMuwYd00VypYFb2oxGPwAeazs2JTBD23n+avFYhpRK1lyCCz2fX2LRnnXZuaJAR6a+6CpSoD7hIc9Hv8Shb8+HVZ08v3JFgNbHV3Y/CoUdC3A/O3rt+YxxGRprO2jrGqmPsvCFY9eq38VZIqMqX+7sw10WNtvs7yX1vHqF25dAeGghM2m4m/IhqzKp6HZXMnJC1mFewkcK4kztuZ8U+7VqZxnk7M52TC9c0bmcW1x+Jez96XeqbcK+0JZ03aa0M/WFh92a8jc1Owj9UuTZ+zOXJF4HcoSRityuuiS33Ty+vn1g1ypGvugqw28NZ2H2gGIwdxqCtkNedw/mW4PIk774cccQoe0fn+7oyt/p7mtwM8LM6QcUFxx5nivk/elIXD/aB22rg7BXjs/q4ba7Wrs2bXaoYsz9sH1RRGKXCMwsfWbPr1g1McAnS5e6hQOZI2oACjwDHYL/r+a7zx5+6I58HWZx0FZEQ9zoPF0HQnR+Ozfp6MdIdmzAxtXL5UVnmY2ZnBgrFH8l1pW7gRPvTxK6yON75cKMr2BXQVcF7kBKTF3NLLk3FDU4E39nJJyPaEklXgW1y7TVjlip+Hc0K6tWXfw2GTwZKiAFOL67GawaduSEdBsvH5QKqthVEhvE5daNHQPHmwJ/cgpPvk1aKmVpux6pfP0sVBh5IFw+DgIpb8/IvTqkQpA3eGrswMsxzbkeA7Q5/1w05KT9769nA+T6Z0mg+MFzt0CXXRexNlpz7LQQFGSe9iv+I7zpaMSH8s7QO/4oOATWvYwTrFE2xnChaNn7s3Mz9Dprwu2PkbKMXa4/5zqe/pW5LvYWbjoCSkypJVQra+I2G+Fht6tGWlKcuEh27N8aJpUMVzgxI8ghAf5ry5IdbYZdhSJegNnkRrXxJ9QhrL67LlQuFP6dnSfoWCyuY6sK0Utnz/6uNtccLNiZ6i7ZOzNdl7PrW05bFrxbOg2PxAGFw2NdHibbOzMj60dQJ3fvP6Fi/x8tZGn5gp9FgVW3wWzs3Uk0cLr0b/rv6e6+/dmqWwuqg8PkN/hgKMGiMgO1tm/qRY0vl8qqhv1jNpl6KSSlib0PqnHGY2txraGT9t3wIOszUwfwLrORr5pcdjGQRhZvpLYTc4dzPi0auyrrDWQUhVTJjNfejQ0mzPj/1stzSqS3+DR6faaLFcQnN2FByvelQB+ivq7c3cMKyn1Zam1uR6Va3NHjK0owBDoBdSH5W2/POOKODth/KBUJgNTs5qbCG0Nq0/Fplv0dD0vE9bRqqtLSNTW4m05CkGr1EMqIXd489b4lFp2aVY6gyl6lrJk/X5GXbTfXh39opZg7lb4XWlsiZaPG2FhTLLqN8/rIPDeaP8PRkHB3VlLujobPEKjwxE+z8EUIDR0GjAXqMefBD77UooGQ1JvwM11I2yYovh5vN5awujq9/7WO3V5TZr9ltZ3VsPBCHrTxYvocloau/OwS3oe8tGWIe0a0lMmdbPgCalCdrq8ua8so4lOx0KMFrwEPyCmxy5VNL74Zvyrtful/ZVtUogUapi5TN82zLi2zRkpIZ0Y56FGYBGitLVpC+GSdwVwaATN0RhBFTHFId2ZW6LCrVeqAtbarLT0NtQgNHBCMDO2By5WTz20Uupf2q2tAeooHTJFU2oW9fK6MqoAM6u1k1YZ9o2phdpoo+aZCbeEXocShFFQ1pMXNvF1WViZ1TWjbcNc2+i/eRg1XVBf/8/AijA6HgkPHwv4xQXSTwSbor83hRW+sDuSytwitydDC2oKoIj8bd93czivF0sbmt7sfhShqjzkSuiabBOg92NMlfNXjoftrRXzxpkuRZmM2WqyUBcRCGAAgxRSBIk5yksiGZninpAmgXX+KvCSSC2IUGicYvR1c3w1AelrgsOF27O51V2x630JwZY5P4dCpyNhCBDWBpMVXUxZD4UYEjufay4V+I94cAXH8qaXbsv8XtbWFlzYvQAAAeeSURBVNlFBypXwunVJKiIeaZfH+5ubV34u5Ql9lt8uGiNQCTzUMVmeGW6Hz3W9gdtz8RU0VVfeVCAoaBnsVQLj97IgvIKyhv+dVs8jIjdGBwwlDdzMDk98FtmQlh3zn5N3RWqqs/RKyWDDyQJf1ax+mPlkC4WM+cNtcKSelfgsBOREoAACjAEgKhrEQUFMu7OJH4EX1jRPjFd0gv0USsBNg57KgPcGVt6uLN39PI2f4iDTyXSOXsLFkLtqFmq2AcXKPfvnlZnlEodIyaVEUABRmXoyMmIBZvcQonHlSyJ+6OXZX3ScsvcQVO1D7bVYm0llDQ5DwfftvTtaHFOk+sed7KlHtFHeUty88qwhWClPvB6d2HeUM4iL2eLm0oxICLCEEABhjAoySkIzpvQk9KFPZOySrvA7GYCaEl0Iq0vDIeDb/dH9mQvH+bDidUkIiuOFk05dlW0qbY+hnRlzZ4/1GptbXSoXTMIoACjGVxJKzX7lajBxayywVC0rBOkyxwMimok1QLIfYHdgJ41yGqbpraLk7LEXVce4e2WV4IGZlTnoA71ZMggqJVE46R1uI4VQwFGxw7Qdffn0sRdL2UKIxMzSv1hMGji/E1pqI9FVFSI1XZNBBpshhax6f1+uPsFqSI+fsoD3JgLV4+zWaVrbFH/WsxpgsAmNwLY2k3qM4k3djMc8t30LhHLVCpMp8hKBxuT9OD2jDXjg7gnIdAQmksFy9WzM6F47J+3xYHT+7F/CvBG2eYU+UHbz9EMRtuIU6A/+MIapeeWeZy6UeL74Hn5QLisiaWhICSbH9SQetK3vcWKkE6ceFtbejEF4EAqqoEACjBqgGcorNjJ2ssPRENiLonmEhVo4BDc3dmhnO8DPdlZhoKjIdqJAgyJvX4+Q/Ttb5Cm08vFvLCRnXFG1+bss7pMtYDdgF57vHjiuVRRCCysEnKiuJsr8+CCIdaT0WyGxANRDdVQgFEDPG2wYouYc/YW/noxUxKJ9QfbwHcHfsve0aSe0e1eXprJUauMXbceSFwgK/9quAGN5bphKMNTA03B1P6cAT8EcHVe47sGHVGTCgigAKMCaLpgwXZ7tvzB3wkF0Vp97h/qJ99t6Wh6K7Aj61hj28r7LRpavNa2bg9eSVx+Oy8ccfNh6XeQFrOJGv1Xwp2h36KG1Znf3J6er4YcxEoiBFCAIZEzalMF2y2J+q1gaVJ6aZQcWsnH2s8tmacjgzm75LRr9BF2Czw2jhcVf1W0WM2O8leOsgnr5cW8pKYcxE4CBFCAIYET8KpwEdZmVsTxN0CScYXlXWG3JhHqPyf4e3GPaHNGUFQks9pzqXjqkWTBNLDLCq9tn+hlUA96xawx1qvs6HSBijIQGwkQQAGGBE5QVYWdp3khO88J9wB/jZcbWUx6bh9vZgxUHTjt525xW9X+8PJhZ1N2nS1ZBAlZGuDlBXppRG/W1PFBVjtU4EUsJEEABRiSOEJVNbDqhMsOvz9x72lZZyVl8CJ6sxf3as09oK2KkVG7C+cmZomXgH5KnaWBio5Z84baBXg6098raRMiIykCKMCQ1DF41MIOxu08w4+IvyperKhwmBx5UA/b/GpYd8bepm6slKYaTvyd+ljUYVV8yfwnb8v7ydHl4yOs5lF4N9YvfT25u3S5Ha9IP/QcPwIowODHjLQcd5/LrJcefP/7k7yyYDxKwiB4DMXm98Kt42g8fKrQ/ppQErr7bPER4DWqyg/b7ze2TbQa1syR+UIVuYiHnAigAENOv6ilVWyKIHz76eKVsG2MN5+vEA6+/Rbew2KjJm8hY7WRomOhuFmu9DswVDKuN2fChCDufrWMRsykRAAFGFK6RX2lsMuL4399dyQ3r6KPKtJgyzt+Qn/LxR2dzf9VhV8ZnkNJxcHODUzvd2jJfKoMPaKhHgIowFDPZ0prDGszzJ0JJcNjUgQ/q1gbuhTWaU4P9WVt8ndjXlW6Y0SIEPiEAAowBjAU8mCnaf2ZomlJ6ZKJqtbLhrSTmQO+Za0J92Ud0WRKTANwh0GZiAKMAbn7XKrQc+PJ4uP5/MomqpoN9YZOLh1TN9KBg7aQVcXQkPhQgDEkb3+y9edDhT+dvileBn+q6v9KH1fG5nEDbRa2sUMnbQ1wCCltsqoDTOkOECE5EYDMdR3m/VZ0AEKMOpnrSkO7WETMHWb9OzmtRFrpGgEUYHTtAR32z+fLbHYl8mccuSycCmqwVVUF1meuTRzAmtzjG5Q8SlUM9ZUPBRh99SwOuzKfST1m7ig4CKeA2+Bgq05aMa4PJ2JCH+6+6g3ob8NF4IvTlIYLg2Fb7t7ELCNppb17SFeLJVCGtkRFNIyzX0rVed1SsVvERmYE0AyGzN7RgW73nsjq7btQ8HPKP6VjoXulLic62ZtentCXNdPPjZWuA5VRlyRGAAUYEjtHl6q9eSOzWBT/YVdatjS8Bj3EoV1Y0+cOs9pZAw1qMmAEUIAxYOcrY/q5TFH7E5cFUak5ZUFAbw4722VODsbprRuZXR/Zg7nTqT7jkTJyEA1CACGAEFCIAFw7MD6bIW7y9KlM3QTfCvtADQgBhABCACGAEEAIIAQQAggBhABCACGAENBjBP4PozG5A3Fy6REAAAAASUVORK5CYII=;" parent="1" vertex="1">
          <mxGeometry x="450" y="157.5" width="60" height="60" as="geometry" />
        </mxCell>
        <mxCell id="PHQyoOw9yE4qoI6ccOwa-10" value="" style="endArrow=classic;html=1;rounded=0;exitX=0;exitY=0.25;exitDx=0;exitDy=0;entryX=1;entryY=0.5;entryDx=0;entryDy=0;dashed=1;" parent="1" source="PHQyoOw9yE4qoI6ccOwa-8" target="PHQyoOw9yE4qoI6ccOwa-2" edge="1">
          <mxGeometry width="50" height="50" relative="1" as="geometry">
            <mxPoint x="360" y="330" as="sourcePoint" />
            <mxPoint x="410" y="280" as="targetPoint" />
          </mxGeometry>
        </mxCell>
        <mxCell id="PHQyoOw9yE4qoI6ccOwa-11" value="detect changes&lt;div&gt;&amp;amp; pull&lt;/div&gt;" style="edgeLabel;html=1;align=center;verticalAlign=middle;resizable=0;points=[];" parent="PHQyoOw9yE4qoI6ccOwa-10" vertex="1" connectable="0">
          <mxGeometry x="0.4182" y="-1" relative="1" as="geometry">
            <mxPoint x="25" y="10" as="offset" />
          </mxGeometry>
        </mxCell>
        <mxCell id="PHQyoOw9yE4qoI6ccOwa-12" value="" style="shape=image;verticalLabelPosition=bottom;labelBackgroundColor=default;verticalAlign=top;aspect=fixed;imageAspect=0;image=data:image/png,iVBORw0KGgoAAAANSUhEUgAAAPAAAADpCAYAAAAajLrBAAAABHNCSVQICAgIfAhkiAAAIABJREFUeF7tXQWcVNX3P29yGwSkOxQFRKREQkrFbn52IqiEov4VTDBQDFQM7E7sRlBssRCTlFRAmmVz8v2/3zeMrrtT782b2p37+Yy4M+/dOPece88995zvUSRbMp4CU2arjlWLSgrdVtuQ9Rv9R7m80rusQjqqqjg4OEURV36OrHA65PvWTSzvWPO9n7fvWFgyZaTizvjB1/EBKHV8/Bk9fFVVc4aPLe3ndllO3lUuZ1ZU+gus1sCUQmj/UyDMWvH5VclzKsX5+cozDrv/tfkPFixQlKwgZyojZAU4Q2fuyEvKT/5rk/9sUWSAyy31LBZ9A4Eci9MuOyyKfNmiieXJd+/Oe0NfDdmn04ECWQFOh1nQ0Ydzp5Qd9dNy9aZKj+yDyXPqeDXso5Dlyhy7LO7XTSY/OLlgbtgHsz+kHQWyApx2U1KzQ6OnqHk7ysv6r9skd23fpXZz2BTZrRHXfNjgN2QEt1eVPYqURXu3Uq9o1KBgwd2XKRUGq8u+liQKZAU4SYQ20syFN5e3WLzOf7DLJRfuKlMHwhxFg1RCS+CsrEpRgfKp06Y+tF8nyxf3X5W/IaGNZis3TIEEs4PhftXpF59+XW340LvlF1dUqMd4/dLL6xXRe8aNl4B+v4jNho9VvsvPUd66+IS8WacfpeyIt97s++ZSICvA5tIzrtpgVbYPv7j02r+3KhdCRW6AyiBCaVG8WEC27VmkPDj/kbxbYLX2pUWvsp2ATpYtKaXAJ5+otpd/KG2w7i/l7LUb1al+v5KbaDXZ6ICpXlstUtayseW6Lm29z/ZtXbhj5MisMBulpxnvZQXYDCoarOOw8aXdKyqUo0rK1bHlLmkG4ciIQvU61yHriwrkgdw8eW/OvQW/ZETHa2EnswKcgkk9/+byPouW+ceoPjmkwiWtkn2+NWvIvEvOccham0U+6t1FmTVrcv5Cs+rO1hMbBbICHBudTHnqxkdcXd5f4Llj5y4ZhN02D/xfW+iv+vxSvkehzD9yqP2q685yLjGFYNlKolKgtjBQ1IGm6oEpT6o5K1e6263+23vz5u3+E+y8w1W1a9zaRnttTD6fKk0bWl5t3MR6bdPGzjX3TVBcqaJ9XWi3tjFR2szZzOfUotc/K+sDfj5nR4mcnoqroFQRg2dkO+znRXnytNWqPnP20QXfn3+sUpKq/tTmdrMCnIDZPeTi0nO2FaunerzKII9XcjL1jBsvaTRBtkuFzer/rHF9ywsfPlDwbLx1Zt//LwWyAmwiRxwzsfTsNRuV6zxetSWugkzxUzaxe6muqtJilT87tpCb3rwrK8hmTUZWgOOgJBwvLOdftTW/RPKG/PGXf0aFW+mA6J5siUABWq5xBbWiQwvlsiKl/LPHpzcqg2MI9upsMUKBLLsZoRreOe2aijZ/b/cN3VUmY0vL1J5gwoT7KRvsatq9RocQLH5SL1/5Lj9PZrVoYp3/7NTcdWnX0QzoUFaAdU7S0++Ut5j1uu8il0s5BiF93fh6log6ibj7cQoyvc4Ql/yL066+fcEJllnnH5sNnNBDzSzvxUitr39XG0y6p/ymLdvVU3CWKwLzpYufcowjSO/HIMher092NW+gPH/j+LwbBu6XDZyIZcayAhyBSg8/rNo/WlNav7RELlm7Sa5QVcWZrn7KEYaRWT9pt8lqZZvmltsL8vz3D29bsHPMGMWTWYNIXm+zAhyC1jROjRhXvj8C3E/CHe64ikq1MIg1FeLx7FcJoAAdQnJzlOJ6ReoDeXbLq+/PzPs5a+yqSeisAFejySlXlw77Y52c4/bJoW63NK6rd7g1WSU13/AuGWiam+1WmduprfrkizcXzk9NT9Kz1awA756Xc6eUH/TLH+r08kq1O9TkwvScrrrdK9UvJXl58lP3Tparnrg+b0HdpkZg9HVagA8frzpb7Vm2108r5c6Scjm0ThMjg6QBgixFhfJh9/byf39uyV/+wX1119+6TvLslCd31P/yO0f/kgr/qJIyOQ7GqewdbgYJMLsauIIidpe8UZhneax/L/fXU87dY2eGDSPu7tYpASYQ+uAxpefuKlFGenzSHyFw9qxVOW4eSmkFu1FCPDgjf1VUqM7+9OGCJ2DsqjMRUHVCgGlVhp/y2JXrlYlwdWwGd76clHJdtvGEUABzWwmj18b2rSwz3pmR+2BdsFrXWgGeAqH98DJxts0tO3HJaple4ZbmmQJZkxDurkOVQrMiUsj6Lu3lqtXl+a8fNkNcU2qpv3WtFODTJlW237jDM6K03HJZcZm/g213vqC6wsNUKxHGqJ0TWXhMYHxuXTsueAFUX6/AsjIvzz+jxR72OS/clrOqtvFArRLgS6e79lmw2HN+pVuOBAN3rpW4F1E4UMNztooccqBNurQPTO9vK1WZ940Xic2Sjy8dpbuJ/3k39gkWsKXYld/rt7/98Xsm1h7In1ohwNNfLGv+9jz11h0l6uE49zTEGbfORvXl54o8dm2O7NXGIkzBwsKUKUvX+OWCmyulvDLxMpOOLVCOwRR+1a9uq1+kzDn2EGXSVadmfuBExgrwlCmqzd6irOG875XrtuxUx2q7S8aOxhyWZ+rQD+/LkzbNQuPTrlrvk8MnVGCHrtuEYkwy7SF71lceOKS3epNnff62KVMUHDoyr2TcTDJ7wSEXV/Qsd/tP2VUq44A1Zc26O4qUVahy1dkOuegkO7gw3LSqcv9sj9z5nFuQLiXzuNXkHu9OH+PDXfL9RTmWlz+4P/cHaHAZFTiRUbN45CVlx2zYKmfC0X0IzrgN65pRJiz/Ykfh7vvpI/lAhIw8pRu3+uXgMeVip7oS+dGwzdW2H2jswxl5GwJWPmnZWJ575+78tzJljKF1rTTr/ZhbKg/pfkrpN0g98pzLrZ6EuNGs8FaZI5wepNmeFsl1ghN3W57DTWEezsjNG1qE72RLgALcCMhT5K3V69VnwWvfjr6p8tBMoE9aBqVDTVaGTBVrB0dF38XL/Xd9stDbl5bVbAlPAVhYcU0UfVdV4DaK6J6AoGd34BoEhSJT6PdJn08XeT/se07pd907Wi9f7s355pMbxAf6Rlkea1SX8C/Sbge+4o6SxoNHVxznWlv24ZcLfV/uLJWs8EZjA02F/vfeN9zj5D7Ir/ZstkSmADcM2Fj6fLbI+0Xl2rK5Qy8sPf6KWSWNI7+V/F/TZg2ePUdtMPPVsnNLy5XjccbtB19lS123KsfKDjzDIa2JIOgdjguRp7S4VBWAFUhxWd1z7IiVntWfI30h0KpVUb7Oz1ffvPxU/5MnDC/aVv25VPwdebaT0CP6KR82vnzy+s3qKDTXHJZBR9Y4pZ/wLo8q3zyZJw3rWcJ7XIERt+70S99zyiXHmfKp1z/IFL9BQcaNB63U61s0UR7/cGberVCrU5orOSWziDtcy577St6HCyrOX73Rf6PboxZZs9ttXOxZXKbKG3fkSu99eSoKN60Q8t/8ctKVFVF36rg6UwdeptXfYbeUtm+mXH9ov9xHtyyWctwlJ/1wkvQz8JnXVrT7ZEPFJY+8WbZ8+Tr/PT6fZIXXBIbHviu//RGdfxav9AeMXSa0WZer4IaDo17BsnX+GY+8Vbbis40Vl5K3k02TpApw//NLxvy20vvWlh3+GcCbapZ1wDBvuh3w31iymtpcuN2XbUHIV/kCVmjzmq7TNZGH3S5pumm7/65fV3rfJo8nkyBJEeAVK1Rnn7NKHtpZotxd6VECYOiR+CyZFKglbdlwIbhqQ/RbjrV4JnslZ+6kB202Lo/SlTxOXl+hqknJjZVwAR49Rc07a1rpzF3lyhgYAXKzBipzmSdYGydyw5boKvQGeGJlzQ2JmQPyNnmcvH7muaX3kPcT09K/tSZcgJesL7t2xy4ZnWWaxE6lgpnculO76Y3QkKpZobOLaAQSmfATeb24VC5c+lf51SZUF7GKhArwIReVjd22QyZnL3QjzoFpPzKIf2dJeAHeXqzCZTB7djGN4BEqolccFtRrDrk4sWfihAnwxQiuX7/Ff31Em0oEAmR/0k8BomtuiYDLuKUY+7M/K8D6KWvwDZB6/WaZOvn+yr0M1hD1tYQJ8PeLPVdCV2sUtQfZB0yjAONcS8vD78BIg5oNYjCN2jFWpCiN537jvTLGp3U/lhABPmJiaTeXS4agNwmpX/co69AL7gjRrO6MDFnP+MlTPF51yNETS7okYiSmCxgjiUrLlIMQntUmER3O1hmZApHQNoCdnD3RRCZfQn6F3aF9SZmlH2XD7AZMF+AxUyXX4/IPpzqXLcmlABhEmkc4tDRtBFCoiFbq5Pa3rrRGWfB4/EPOnSqm3w2bLsDrNxU7varSL3ttlFz2hMYjBx9gRWC/8g+cbNUe0BG/ZWNFBna3Mng9W5JIAV7buX1Kv507d5qeUMB0AW7RKrcJDCktkkifOt8UBXLfdoo8cBX4A4Ia6p43+N2Dk5zSua2SFeIkcg31ZmCWtWtYPzeCfmSsQ6YL8LZd3sEIUMiWJFIARhI5abhNivLRaCjp/acvCoHO5aRhdg34PVuSRwHSu9TlHWh2i6YL8OZt/sOy2ezNnqZ/66MqTDRFl1sEKVFlFwLzy4D1bCdUbETh/bcOGrOIYsn3S/Gh5Zr1ZkviKEDj4vqtMsLsFky3ivU4vbQYmRGKTK/Y7JFnUH2MeGFOXAYs1Afyxl6tLdKto1X2Bnh766aKtGhskcK82ClOYd0Oj631m1RZu8knixGG+Nsqv6z80y+lFYG26JqZhd4xj0lI87xcdevCZwv3NK9Wk28Vnp9b2WnKLM9yu00D/4qdo8wcUQbXxUkGlJBwM21QT6RhfYu0hFGqSweL9NzHIvu0tUKAE0tWBkT8jpjhH5b6ZNlaVf5G8MPWHaq203OD1yKZEtuFDJ7ByF3nUeeeK2xtj+yfuzbyk7H/aioq5Qvv+kfs9nvOTnHsc6CdRytcKnZSRQ7sapUDOluwy1qlQ0tF9tzD9FNOxJ41BzwtP8ytxPLnJr+sWOdHrLFfvv/dJ98v8UlJmYLdJJDdIGJl2R//QwELVsBHX/cfhi8fMYs0pgrwrjLfsGzgQuxTw7MnMkvIgB6KnHG4Q1OL6wOULi83fda/Vk0sws/gniJnHqEK8k/J/B+88tz7HvnjT5FcGL6zaVtjm3PSaXuJDDdTgE3llH1OKvkbURhNYhtO3X2KqqgTCBrHHmyTC46za6DsmVgWLvbJfbPd8sMSuIdkjWCxTCGopG5c/EqhadespgnwVTNLu7/5qfoZLNBFGIlp9cZCleAztM4GnRSC57UYDbN6mjH0LHfbfOxWHVpRPbXKmYfbJT+Ndlq9g6pq5Fj5l1+efscj30DFRvYMbfKtaQLEX5Un2GfugilEJFGBo7Xr9BGO/tePdv6ul+ahnjdNhf5hqdILVlInVuKkCy9X//JKFc4MFs3gk+NQZDMML9/95pOdwEFmIq9UbRC8E/f6VKigVjl2sE0G9bDVCkTIqpPcoaVFbrzIKas3+OTj73zy+ideWQKrdi7onsoFlFdktCMc2M0qjeor2nXb4pU++Q6ag8OupAKZRMF1kuOrXz04kEh6CfD2Xf6e8NVm0o6kFgovV9SpYxxyRH+bFOA6hczlgdCUwHL6yOseeRK7A79PduFdK698rhvlhGHKmtE7biy0a9fcKucfG1io3vvSK3c849EMdEgcltRCnmDk1Q0X2OWYgwOajgN98EJDK6/wY5HxyrQnPYLrzlQsMM4t29TeIMgzZhDFFK7evFktOOzS0rcAWDfUlAp1jIwq0UUn2fAJ7SfOyXzlI7fc/IQHMKA6Ko7zUTLtxFMdcvbRTPdZNwsXsEn3u2TeN76kqtT0SLt1fI4MPoC2hdAc+dhbbpn5IngiOoyYqZNHTdBpV+cter7gWNiLcOseXzHlpLJGubzdlmJlFNAeTL2kjmVoTRuK3Pd/uNMIU6jCdelg1dJuLvjVp+0IiVLreP5mkrEhvazyIPySBx6Q5K0nDA1S9TXVVGpFXTtaZM0Gv/y9neerxKnVPO9SVb5jglMG4qgSTnhJD17VvfqxR3NcSWbhcoJAn8qvFqrv//LlzdvjbdsU8+f6LUoLTEvreDuj933uqAMQXRNLOX6IXaaMdmh5dBNhMSUSRpf2ikwb55B7Ls/RvKOyJUCBwT1t8sg1uXLZ6XakdBFNdTW7cCflldYdlzrkoO6xLJwKslhYNbfUpBdFabVmq6elGe3GzWUMUsak7A0rK13pk1q8EMamjWIfwlEDbTJjolPzAzaz0MI8CtdBD03OlcMPsidshzezz8muaw841446zikv35ojfbpYNMcVs4q2IOM/jMbq2yW2BZ1t10efUhG3Dn4psiqWTmaMP3buD9PahPvEgRV1/1QQgg78q9brWUIVGXGQTa4dhZ3YpPMwMyLcdJFdM1Q1bhD6vBWGdHF/TcblzuM3QPzAe8kNYmCMeKdWVnnqhlw5bYSNicJMKbSD3DbeKX27hj/zhmpo9V9qSpxQOF3wbd9/5sz4wd9j0TVCjf2f7/5Ysd3p9Tr70n832YUM8O3vfpxrVVg6Y+sAc9qMOtYO+FXRrNOxvVVzZDxLd25D4c2R7nvFvurXrEnfNztL/bJzF6OQ4Ke8TdUWsD1x7jsRIYJ6yjufezQatG9hgd+1ogVJ0M+6IAl300wwfjPotk9bj8x6zSObcTY2YqnmAsb3Lj3VLsfhii7Smbc6bXbs8stPy73QloxyQPUaY/+bC1mlR+370V9beWvjiv3Nmk/GLcANm+bkr9+idjcsCTX7pOubbQAzf+Itj4w5MfYbLE7a5WfYJRfnsTufdeu+3mHAwdGDrDL5HAeMJiZtIxFGvQJRQou04AI/7lpV+WszDEJbGQ4IlEkw8fFgXr0C/MkPPnnzM6+2A+0BwaUfNs/tHXFvyvv0nvtYoVEkdmynw5ll3/YWXOm4MT6/rpxNHDc1jxvOdcr/DtW3eBH1YNarHhylki+8nGauGQgH7ZFvy2XmBiyjxkvcApzrl948z8S6Axrvaug3uQo/+qZHOrZWZFjv2FdhOpZffJIdwQKKXHmvK+Z7Yvoun3eMDau+I6E5drkrvTzPI/O/98om2CpJ40qs1RwvNQ8yQR4cJVh4vtRb+E5wt6VRacU6VZav9clnC1lvoO72ME3S+eRIWJJpUU5E6bG3FWdXp1w104VbAn9MKi0NT6TDrEk5MrR37NoPXsE+o2p+3C/N9abMuYd0LHeplvr5lgPwvx/EQ9fYRx+mlfqdrxkLo1DfVKgiwS7x+ubNT73SBDtGF6zonKZYNCP2mc+3aqLIF4ui+/OynfGn2GBNdSI211yGDuwoIj8s9srVD7rkxkfd8iN8jLdDXWbwPs+sHFNQeINj59+9sFv2j9EaH3zvO+QJ/hVxwGRqlqp1c5wVWCw2blHlQ9zhPgkNZyPCCvfCIkmvNtItFvoG24r2L11Kj4Nf+I/LffLn37hqikBa9rcQ+9a9VzjlYHi3xcp3gZsHVaY/7ZY7nvXA+SdCI9E6bMLvbN0DRWr199PmxlNd3ALcuMvVM9wepVEkosfTwVjf5YS8/YVXVsEw0R5qYEOc62KZXD6zb3urJsS/w/1vG9KPcAHQBIb/h//w/xl8cO15dngahXYYibWfoZ5jyN6HX3vlypmVMvPlwI7Ls10sNKUA01Wwjw7rK/vw4zIfPtEXLarYXFwWLVXlUQjycsQI01GiHtTuXKeJQoDBMrhjAxaNpWsChkmN9lhMuKBoRjf0gyAGt+Gqrj+uimKZX47V5VblR6jo4++olHe+8MesbYWaK7O+4304SFv018/TZsVTZ1wqNK6QijqfVNqZhqF0KPXyFZmLHWMhYlYPh9p3xuE2+MLGtkYdNdAuHWEhnT3PjTA5MCnC+hjYvnqjXxpC3aTl+vjBdk11i0WwYqHHur/98grU5HnwH2bMLY8hegP2SXojgsR3+G6sxnje33JJ+/h7n3z6ow+7vgVOGlbt7O00Tb1W5OaLndIA4TBPvuPVXGF7d1G02Gjes3fG2fyEoTZp1jD2s/k3v3o1dXk+zvzUZArg8xPYjWOZoQQ+A9rvLFO7QobysRBhpMZKXAJ8ztTywTyPpFM8KK91iB7x8jwvdjWfnDzcKhOh8sZSOre1yKRzc+AvG7CK8r54xvNuzcpM4WUxQ3i5q9w/2yWvwel/G3IZkYY5cexm+eEd0cIOm5FRRgrpy/LDYsDwYIF7fo5XLjnFLoceqNeQFLp1LiqXnurUzvz1sIiedSScPxCcQj/mgPoe+r3q35bB5/n6h93yORYbYn+x3hRGIVXvnva3D/aUi6eVD8L/Gj4HxyXAq/6SEXauvsGDVMhuJv/LoJAV46rlkTcDq+9dcODoiN2YKmekQqd3x27YGp7NboNPrVmFauCyNT659C4XXAuxSOzm+Wh9itQ+jTJFBgI1CiEcgRgtY9oTwwV5lcZxjLvdDUOXT66/wAENwhL3Ikfsr+tGGaM7wvVkwS8++GC7ZdsuVRPcdNpgqs6lHQvT72vlCHxnWICjsHMk1tEiOwaBf9JMfP/bZ04gsZ2Ou7xSnnoXk4r8uKkom3f4YTxxyYgJFbIOYHJB4Y23LypWq6IC/bXwHGtW5CfP62997pXhF1fIe1/yeiY1LLEe12u3PuWWM6+v1GwZaXKyCz85IFNZuX9g+Aei/2JYgOf8oDYrrZTmaMLYEh69b6Y9EXQSoGX30rsqge2ErSOJ5RNA0Fxwk0see8OjoUeauSOQ+HoQKYPD5q5t5sTxTF0Oy/XEGS6ZdF+lrNblIRf/ZMyBEfCCWyrlMWhchCSKR6uJvzex1wD1vs2PK1TDQUCGBfiB58r7wngVu/dE7GNKyJNUq6kS/7BEhTXSJW/DEykZuv9d2HUvBVMvh5HKCZXJ9IJ8WQEDk76a6cRi1g4cbJk7Hu+LP/reL2dgF/zkh0CqxIQajVD5w6+7tbBFOrkYsQfoo5y5T1stFtuUh8v7GK3VsADvLPH3wIRljAD/w2QYMY0aEyDE73/FnTgx6l4lri7OmVIhD7/h1YDrErUjUGiCDh16mIBoGYns006A350PreOBV9xxn4nDj4s2Do9Me8KtncfTXmUOMRCrRXXuKBYidBgqhgW4uEy6417OHNOjoa7H9xItmpff7UpIjqA1G31y1vUVmmeRER9fPSOzWFVDAkyhB/PoaUr3s3lQq+95wSNXP1ApNCiaWwKZJW553J0W97pGx0YZ2lXi7270fUMCPHFGeQuopC3NnhKjgzD0HnYuBnOvAiCbmeU3YC6Nm+6SRcvUpFxb2DCDRq6EqGqaeRYPRUPyB6+dXv3YB3fVSuCTmUlrRTuWJCDlbqihJPY7i9rq0rvLmhlpxJAA/7pCWkFfgadsZhcaXh6FYcksNZpq4xnXVYKxVI1xk1GscP4wcofMsSfLnZBayMc4F583FahyJh1ZGMhw30tuDWA+0wsOMy2XrFJaGRmHIQHeVepr5fVIUyMNptM7ZKz34exBAwjvD+Mt9KJ64WYnfLIDzhnx1hfL+0xUZrQkC/qVjitdO1gC6U9NsH3TK4sW5+8QSppoLcIobfW8BxtJs+07fS31vBN8VrcA//CDaocTQI/alCSarnlmMfO+7W3y5l258EyyaEaiREK2cMmJx+qquRUa4ZoY3yGP0Np9OlxaZwOJo5kO9JRITRB3rDFioDNdAwyOkeGpCNDoQdmKNO5Qv+kW4HtfEkd5hfTMRItfdQLQOb5TK4QVnky6mccODetZZMZluXLd+Q4NpaOcmmMiCvrPyByjpTCBIEjcJZl0/LbxDg2txMxwREaCTTzdoSWAM3HajJIx7vcoS+UupRdlS29lugX416077S6v2tsMn2C9nTX7eYLB3zbOmZBYZqp2Iw+xyzNTc+Qw7MYMz0tEKcjTPYX/dKMgF+8mYAtm9A9jpmdNzpHhfXRvKjGRiWADkwCoUGo4DCCmZpLyEGXJ61V7LV67Q7drs+7ZH9zd0b6sQvZIysgS2Aid5c8/2qZFuCSytGmGsx8Cz8f/jxhQ5koLayuIYwfmu+b2KABxc8tYp9wwOgdQvoml7ZED7ICPtWh3wJleSiqk0cEHFrTVOw7dFP5jjTqMyaYzufBcSiSOcado7kgJLwy3nHiaUx64MkfaNAvEGpvhncQ6ihBCabRo75owfh5FWAiO8MptOfI/aB7JKlPHOLX7bDPomaw+h2qHPLl6vXdYqN8ifadbgHeWymFIYBapzrT/jbmKzgewXT2eAZN4FhgEoPdnpubKqYdCUwIJ4zVw8X3GzhotPEMyQiqeQgszjUqEJ3r2xhzphNjdZBYuiKceZheXx4SVKJkdr9YWr/S27vIfqrcLBgRYPTiJPK93PFGf50rdHsm4hvexwvKc/IWImQOuOc+BbBLE1AogTkTtdJgHKHwNYDAzWhoUWQwLMHmAWFrNG4s8NSUHqW0cifH1jjI4Mv7Rg2xa5o1M3oVJTyTiGxJluDV+1jX7dz7n7g1gNR60M3a549XOwP0tgFNN7k5RlfK0og7rbZcvHsXdwd4WzVfaSPFj92sAOFijhbs36zBSiG5xAgDv5j2QJ907RY+zNtJGrO+Qhr0BFp/hRa2oFMfMF9099IxD16jnfuMethvVIPlbl55RRXg2F+re6SOMndE2ANhtu4aZZU5hxsQXp8HABaA83ufqVWd59iyM4wzMd4Pn11hHRJWZONS3jrNraUzMhFPasAWY10gHq78oMlKD9tH/Zhq9gdSjiOxf4NZ1DtYlwDuK1cMsGXwBzLMv0RvbGdx9/w/+vPysB6OZV2BMG+mUmUBZ5E7C+9NY7zbJ6vEkCSesbKziQvW0FIH6w/ta5KGrnXLSMF5ZmreOLwFSyUW3Vsr0p4zdtzEfUiegZmayGk3ZAhDBCD28FbMAA3zLCVP3vqg81jnX04+kPOsCb1x6GhlP/xDe/Mwjv/2hytf6kyiMAAAgAElEQVS/+LVQxHUAuzOzHNgN96aTnHLFmQ4NkysWA5dFUZHfx3gv6MhhiYEWmtcdSDYDOy4hhjq3Nff48TPgZEnT5QATnPuN1zDgwriRjpShgRifhf+8qQLPrRtkLWZdImYBvuCWih6AMCRQkXnLrkmjjqUaMuFB2H3bNucqrW8Iu8r88ipA8rSYU1CMaJVnT6mUvzb5TF3xiSdFJnwazh97QDAjLTP8jUawDkiqHfnJ8NRpiUwM1miuAyBVG3i9v3p7jpw41GFy6hUVwHg+xE2DlpsDEDgVLkWefo95eyONPvSYaOVv29wS0+IXuoaUf6vgitY59rby/WPtScwCvHyt9LU5lNjgHWNtPYnP0etqzImBhU2vFf1rgKT9tML/z40T/aaRTkaOvaISYYPmggKwb4OQ23b2rbnItAd/avwd6mxcifGcwbM8dmEjayrfYgaGUw+zIeNDTWHhgseIqkP7WuX1O/M07Gwzl27sMohQ8srxl1cgT9C/wfgcP4MUvl9sxLqmyugTbFIG2mRqAbSwc/Fqf99Y+x+zAAN8a3+odbp9NWPtSCKfozrKnD88Y+rlQiJrvPKRV8MUrloYyQSfcBl1s0veQo4ho7tguHG3bGKRx6/P0XI47VmfKCKqpgGwH1yMDj3QKhOQ1EvveILtBXQQpJU5y4GMjVYNxrUMPtt0+SxB8H0H0OvGMQ65+7Ick3ddLkjIZ/W2R8bf7hIiM1Y3q2wrFnnvC5+4dd7tUrM6pI9Ny/WUqWdhkMZZWqHEbImOpkBp8/3GJ2r9Gx4ubQcCxQqGH44vU/I9L/mH9w3gC+vrAPMF+eUTgJkTgqZ6oTrNfEU3AH+4uFSAYUxy1nyu+nux/s38Tecc7ZAB+9tkzgKv/IKzIr2nhuIOm7s0rdjxlqJ8i9w+IUdOGu6Tb3/1aYEX3TtZtCTZzRrFX3/V/lGoFGgMM55zQ03GaoTxhWqB1uTX5nu0IJNmjVhDqKdqjpy7Ny3rQ3pZ5V1k6UgIBlnNZk39BjRSPB61/bx5ar1DDlGwlEUuMQnwo2+XtQJx+MnIwuD1g7pZDEXEzHrVHdHhgzThznjDwy4mrJILT2D2BnNzB3VshbNxSyg/CaI/LdmDe9pkCD4sAUEzf6opvJMfcGmZEgi3E244pCm1m2dwFr7qbH1KH73CBve0AN7W/P4no0aOXVEsre55p7QV2osqwDGp0MWlSktU2yIZAzC7DTIjjTBtkQdXX1Flyw5V2/liQdegEBCf6cZHXfBQSsAZLBy36xtU2KerVp+IhZpoJWMQhP/SHJ+WYSFayQU9mUWQsbJ6ClVEAvg33xP29QRMg56+GH0W9oEWuypik7eoXI3KLDZF7YyzV8YasNrCUtumadShVqN3AG4n1rSpZBaqt8994NNSZW4rNveaySgzpMN7zAE1djpgZhf6NQicWASLIs4z+ctzA9C0esbRDmBPbZrGfsetp+5kPOvyCJe4zpS9aO1FfeDcqeKAimgY9jJaBxL9O41NXToQQjX6ql+1L3T64O4bqwAH32V78771ycW3VcouzasoQ7cBUyZGRbZBn4y6qVLLDqgXoZM5kV76UD9mWT7inPdGnisC/mVqAfsdQNmL1v+oQ/yrYocTvrq9E4UhHK2D8f5Oue2H9Jt6y1c/+ZAkzZjwkVY/r1DlyEvKd6crNVaP3j6n1/MwAAI18rDxu+94o3Jazd5TlV+/RWTxKv3aDLMnWm2ZSXfyj9slff7asCOq1huVrM1ycuvh2mKvmuTNjG9ycdfZpYN+Af58kQ9Ad/p27aoUISLHVpggDkcupN+QSLsuFYrNfFjuT8A9Oa/w4jlTM9iCqUH1lgM6W7EDG58/ve2Z/XyFW+3caM+cqH52UQUYenh/6OQZWXjWagfPHL35a0vK/VqSaaa0jKdwJWWO2zHTKuWjbwMhR5m5J+ijwktz3fAZd+kOlAjVCo1Yv/7hI+RMqJ/DfrfnHhZpCjyyTD3B8L4f12n9wg5w9w9RBfjPjf4RycIPjtZZvb97MOn994s6xBrVrkWOnfVw7TNj/aYQb98lGkMzmbdWpz5erNG/dPwiOKR7XnDJtMc92n1yPDtv1TGCB+XPTfpX0x6djcc7p5rGlLlVG/xRAxuicjfuNoemejBG23d7FOm5b0xX3f9pYuM2v2zaDgE2Q4JRs3amwQY8CXegD7wCzw+T6jVKl0S8xyFNvr9SHnzFq+28ZtlMOAcbtwdcV/X2uz+cURJypae3Iwaf97gkamhhRAH+dZXapLhEWprFyAbHYfg1K/IGEadJT/HA/Md8womAaMmFVfXeF71yG0LmMpmxqtOzGNb2y2ZUyuvzfablPa7aButfs5ERWvpUly4Ak9f3RvWRpe5vytz2ErX1io2RU49G5O4bHy07NFO3C55/GXiuF3nRg/P+0tVE/Dd/myQz8SrlqXe8csNDLs3/ONPLdtx3/989lfLulz6x6Vd2Yho+nTOWYE70ok+2gj+5Bl6fqWSGR9+191MGw5eIArx1mxyyG4EjfA1p+gutn+217E3hXfZCdZ1Gk2W4/kjkuKlevvW5T/NMCpTM5LAKBFWcfm2lfLZI/x1vKNqH+47pY2hUdOswZAWFti1gfXVu3OG6kfTvyYObtsrwSA1HXDO3FPsHiRJRxiPVndLfeObkZb7ewhxJf8FgksioDapHxNNb8JtfZr7kkgmEt427oN8wvD042y2OEInEuZTxNuGSU+zSBABwZmhWVz+IpNpQbRO52JEsXPDWbvBr13oUzFiOdMFnOgKlYxmSzWVkDiVM07adMjgSa4QV4Mfequx4x9Oeeoh95fZgvj4ZqVcm/EZ1q90/we6xd3/ztkDe2XoFJnQiShUOUP/Vj72mCPAOWLrPuqFC1v1dc7KC+zuZf+FSn7x6Wy6idqJ0LsrPzL7w1c++pAgGhXHzDr8G6VNfm5dY51OVvQBz+ybUKr1XiVGGn6yfVYRU1n/itcr2552YsypUo2G3qFc/9veCKZuuXLFSK1T9KfuOAePMS6S3+6txhZTMQmhWxt/GUxgffP3DlbJxq3Z3qAVfVP3wO34YqbPub1WmMuAizvP39l2xwf7EM66q7zLCaw124Zi2339eVKQ5QiJ9/oxkYY4CQHeK/ZVP/L3D0TGsAG/b4e0F0TVDtwvXdkK/56rdGNkX9BVV/sYOnEj1uXp/iJIZD7KkHwvVs++5Nf/rWOxufOa9r7zyIoIE9Fp1q/admQadUT11q4/W+N+8lefdvN5LdGbgyNywBgwX6Z8B+N4rHOVCCjB2Lwe0jn3BG/p9EMO1lILv6+vGTFaEd8CJPtMFSUE1/8RhYU8xMVBMlYVLfDL9GY8uqzmBAhj6+CtdPOMw0Z56qF03akYMgwr5COeEc6NXo2KmyMzUIQNkoAx6vX7IYmigu5ACfMHNlS1Uv9I8JCUz5EvuNIUGECu2wIGD98eJKpSXYG7lfvASCxiwjLSnCtX9c5H1nlE7eovdDrQPgMkR28tQwWvj/ucA0kkA1J2LUSxImobawkvEIdsE7UhvCdgy9L+nt51EPu/zWZpfNLUyZDx+yOV/yZ+eFkAFaJ3ITiW6bp4BjdzlFuM8ao3FzKljAGRsWoCJBdViTwXZ6q1yIBBCTj+cmFYs+gWQZ+dxiLH1wjJrxMLKBa4cTmHjbq+UV6bnQuvQ2Yfdjz9wVS4glzzyDeB4fgNa5x9/8roHeh/UazM1GY5xB0AB9BbmJdYbEqq3jUQ/Dyt866UbPADVkDXV2wopwFbF0h7XMBmdQpTMY+QGjNjRZsgvWY118e6yZWOArWGnGtIbsKe4l2xYT4krqyAnkQJChjYivEEmII22wRilW3ircBEXghOH2uWoATbZuhMoJjsF1mmvzAO+889A8qQBKR8RYfG6VrKd0vLq7Bv9b84l75Ez8y4lMD7IYgPE9rfDX19WH3ENAZ4yW3XM/6isB1NoUG3J1KJgxnXtKZQ4vBAKwlUPDVgNcx0131PkiP52OXKAFe6cuIvbvXmYsTgE+qMA6tUiX//8L9ytnn7yWfape8eQpyi9VWkAci2wULVAsrPunRwyFoB0FGga117/xKthadOhgouG0WM3eVLrNz6xzi0FX+PjWF/QPfLEv7B73D1mz1ZfHjlS+Q8+ag0B/vGHrc7Kyrw+ZiejTvww/9uCqtf9ZvcEW2JctMiEQWGnux4tydxpCR5wRP+a6VvME9x/xzlwf6t8ilhZo+iL9McmmJ3ZJTBWRZiJ8dTDLFr6T4IjfPKDVz7+zqd5uhVDe0AWAo2G3J2jWtAxP7vXQN2yqEfgzaaFGfWRPhVupfdzkE3UF1mAVZ/TCUf+AxLBcGYMJtY6aCgyYlShahpuh+D3bpxlGfDAK6p921m0XbArnOa7dbRKa924W7GOJvRzAwEt6/YCrMzgdQ69zggfq29PC92XaN8SL+zYg+3ahxjXTKdCpI3fVqqyeLVPM8hRmHmtFk7dpuOL3sJ1nKAA2sKcobswZREOHT2tZTVnugZJ2jS1d1222psTz7lIL5ET8TwFLZCeQ9+s1QOj+SCptt2zrQktVGL6/dIFkSDoQ3vZkB/Igty8igYinqrFrj2QNhshSTcNWnr7wHERuZHYz/x/ve/HM2e8HSDW9QAkEKF31Q6cw+kG+jU8u5gbiYELzN3MxTQozFyMGZiit9Chh/OXqEALvf0x+jzyZeW2PsDeBe9/XrWOGgK8Yq1/qD6WN9qlxL7HlZcrfeMG+trZE95bfkLpgDIMbNgDd8mHIAvCCUPssl+VPLhRVT59zRp8Gshn+1jl8x/1BxOQqftoOXWT67hSfaDMkMhPS5ydD+xqlYlIPvc37nvf/dIrbyPjxQokPOPiQgHmgqm3cHELnp31vptOz5MGi1d7h6FPkQUYSIojjFy/pNNgg33ZiWwJ+oqqRTB1bovsB7AYH9bPqqnG6VyGQBt4/0sXkqHpY+4y7Hx8N11KUAPgv9QMRh/v0D5bd/oBR+STd5BpYa82gQVHjy6MePaMjQmuOjfUSErLhAgdN1T9/j8zSG+Prv8r652pZ4WqA6NauBlOGfqKIscMcsj/DnEkVaXU18eqTysyaH+LDOttRTKwgJU3GnQrjxa0BB8GreJADa1Tn+Ab76uxNxvVt8gpMISdAkOY3nhgtrgV8crhbBrGepS6t3aVSx/IqA2uvtCfAuU/AnzZ3ZUHMcqEl9+ZXujPHBBgCnHs42HGvkwqrZpa5YFJOVqazsfe9Gj3r8RFrn4FyKutcpdfjjjIJucd69CMb0Y81VJJm2iLU82+qYhi0jf/NetIn28om1fcW3kQevSPGv0fAf5xqe8IutjVhsLJXrOBF4dBb6faMKrQY6CFtx8ShB+EHfV3WHZvetyFtKf/xunSIs/z7rWjcmTv1oSZSZ3hLfQIEvfths30ba8dQkyPskVLfEeEFeAKtxxcG8SXlssmMEYRGbGulMAZUtEwsF+alidf/eSVB19lkAPcJUfapU/Xf9fq2jDHsc0rDJIIQ2zVRNHunIM+6LG9m35PcY5LK9WDq/bsn7mEbl3U+cTS1Tgs67TbptdAed6hI8Wo4+zSqZW1hiqZXr3N9iYZFNi83S+PvOGR5z/w6E6xk4z+6WkDd/fbl75W0BZHRJjncM0WfPnkayp742rEoEuAni4k5lkKbimujdo1V2TKaCcsyVnhTQylM6/Wxg0s8n9IZM5jxE6wfSZfK1FGT72mrE9wFv4R4K3bfL2QhjBjBDh47UAUSU4IfXCvOscur9+Za0ri68xj02yPI1GAkDpPT82TR69DugOEcTJajVbtoGU7yE+R6kiH3yijm7b/m2zwn4MRvGH2RwxwSgWYl/VBh/dceH3y0M4zHKOK6DhBz5wcJIYmLhLD8pjztxvcGPdBsED9gsw72dG7i44GZfiXGkQ9jIEGqXQuzJlMTYcM78RcFMBqz3+NuDmmYpxHHOSAJT7Q8qr1fln5l0+WAwd8HYAMGW+8Azs058TrUbUzM/mR/9JvvGK3TaW6hT+Z41D94therPYItqlxy8zZJXs+9oa85fEq/VLBPmRemsj3gW9xVzhO0JmiWUO4CcIZnuBrORBmBq2TudOdwcNNJr3CyPxMEUJGIXQP3QfpdbR+E5gFnEIL8TEH2+SogelnOWeaGibcfhcOFSvXE/RApClcS1s1DrhjtgQGM+FriEHVHIsr1VYz44HD0TUR35dhrhgrTZ5kjqItiKrivK0GJhdDJBfizp03k/GEchrtN+3pdpu6YNTxcuyEkYVbtB34vc8sMPeoLf+5HTZau4H3KLy88rniDAc8n2xggoB6Y6CqtHmFIHV//OWHs75Plq71a0By2xEnCwui5lPNxNVkDBbuZEFG2LgVzLHUraUkPfuolCpD1WipIqOEW54EID2PK1pgAI4uq/5SZcU6XtUFfJapNeUhNXUe/mV0Fn3HaZNgdoy921ilY6t/TmzV6k+vP/Phq52v+V0HtrMOreDmuTtFLefmS1j4pz3hhqtucn3Igz2yitLyvc8U9EoCAozkWy2QiS8kZEeiSctV+trz7XLy8HRi2NCjDnr0VD0vcUJ/g6D+utwvPy6DOoZQOSYzYwSMtgOBB0J5AoVySuB3FVj5X57nlUE9aoYkhu5V4r/9FbvOOwCi5zj+UR8xLtKhauQQvbwQNaMZimQr8gOvRQT6okDIIFVRqtmMGWYUVy/4cNOZhEEhwXBI7i7BYN9UaIKxUJJgDIyoohMMHJ9whk5+TymrlFn090cbXbOGXVS+H1YTS7gwrlgGZuQZruaDe1rTVnhp4ODZp7wi8C+jZiig/BAQbgX+3QoBJuQpmdMOzZdndW1XhfD+w5A6iMN31wEsfQ3C69qlZEmt2VmeDzdAO9DrocfxU+g1euDDcMG1GNuq9cCmRh4lomISLaNVU/ifw8+5K8AFePXHlLB5iLHOw9ma+Z25q6dboa/8CHi1vfEJUspwoU5iAV9aEKTTDbL7vm3MVHFUuPw9U+H8S+G49DSe9zjV6TdJny30YDf0Bc6pAH+D8UBjSAtt+RrmljHgvGhzzcRqiUiuFq3d0L8HDG3xIpUE66Ywk+EJghCc8807RDZs8cucbyDhqkejLTG9WyCo4VD4bI86Lj21s7En2eWlD71iQzRVUguaK6v094LsOi0LN+ywAxitd1W1MFmdIdg4V1yzhZdnyfhjUFRpDfyq9xDW9gfOerRM5jP0DaoT/aXJhImiGa3R9RBnnB5FkaYwTDHuOVGFWguFlkJN+nKnpzX461+80q5Z/O0yu+EiZKSgwdDM0goADqmwvpPvkGam98Lfd9ht/TvmNZ73nQcpROMnlF7iBFEzAvA9+toPqmYU1L9gxWW42UffIn4UwkbVtxDMMPVCuxzSx675BzcFEDlRNGIdJtXivWAVHnSA5T9+xXrHqPd5josqZKeW6WPw6aoZoSzyE875sdJP77hrPA9Zaws6DOv7rwtojWdCfEH6cQFncEdXXC+SL+55iSD2AY2J8d0DEMF1HOK7D4R7aTzjoSES59Gke9tTUnCV1/KQPnmNbRu2+A6mIIUyqoSgj6lfkajESRrWR98kEU9pE9zjPlvkkzfme7XzKIMwCDjC1ZwfWnovvs0NddctuxAX/H9n2mXi6Y6YIUaDEzt+pENOQwY+7gzJKLRD9APkbCNY49Ol1CuwSH/gb5HOeqHGjI6B83c9fLj1FiJwzMVCfuW9bu36kcgytI4Hsc64s7/xqV+en1OpqenHDLLiLGuXDri6bFBUM4orUvvvI8NFKANlpHfM+o0y+/d230Dbxu1q/1TB5+TCOHEPrid6d7HGdL/76x8+qFWBzw+4iyPMKI0cRWGcOILGD3t9LBQLvTIWDKEPI1iRHp2t0mtfC5gXBhd964yhuXLaVTlhaBIa0tm7E4bYkNfYjQCRxC9kPG+3bioyoh8FWF97POrM/94n9aHyh5ovLsz8nseUSlj8n3nPh9Q0Xs0i3r+7VfrvZ4Wnli0qBA/P7PfN9qTMwEaZhewOsGEX7KpzLk17nMRcCZX3kjsrZdpYJ/CZQu86c7/xIIsf0Axxp0onCJq8aOWNFSOJxqbFAE9bslqFMOozmNGBhKiKv63EbOtkJr2E4u7Wa18rVMckmzVj6CjnZgAY/IOviVcVwwtxPOKBEY+g94W6MbAQ/wsQhwWA2nXEYPci/3F35rwSumfZWg92Z5y7m3uweFjl6AF2aRgivxYB+aY+5pK/cVUWjwoeB4k0TvR5pasN2EjN4qko3ndJgG+RJ/fwCRWwONoAZYMrBFwf0PPlU+yaC5fC+QGyQ7WYxSjzMGfuE+94ICDajMVcqNKScblCL1uT2AkDcBnwlGPgvKi9J9KjHw4HPm2iB+JOmcEd8RX0DceJNz6pgJODvl1RT7uaDQDqLOF+CCOjt8z+yA3XR4BS6FxsucgTSopaHY8K/Nz+rEfaQhPoCyeOTnBC2Ymj2+c/+uQXaGPk21QJL2nCbQhxAE1tCE9ypsKAVXViSAgant7E6vfih4HeUVB5hiFhg8KrdzKrPk8r55yvPMBYcsBFk7/Ezhw0gB3d3yYr13mAWBlPL8K/yzvx/TpZNOC8eMrOEr/cAi+hl+fiemO3ANyERGZnHmGTKxGRw/OskUIQgI64MTgQgQCLsKgmCuWRvEDhpdFMb6Hq/fwHXhyrYp/bSG2wljUbBYZRH4QlkP3RyfO0OdVHajqm30ArpwUm+9JUHcSr95JnkyL4PhchWCEfVmSzfU3J0Pe/TB9G/TNw5lF2XCsxQLx6r835mwENE04J3okbr/PuF9xYBL2aKyPtA/zQa+jpd71yxzO7/TcNVB+gmCrjkdCsIs7cwpGaZ0bJCxDLbWSOnn3PY7p7IxcUXhWRH0nLdBFejYaICbaAp9emUhWINJlm/0ZL9ZwFPi2oQG+h8evmi5ww4nAvMrdw5+CO0xvnXyOMG+zNLyt88sIcr2agqV743UvYlb9G3iLjRQFKpwWpUyymo1uQB0uAmnEZYGUZCKG3UG1+BgKci+NXXSikl82irrXYbMovidpV0pGQvJ544UNjO9H+e1tkzAl2LfzPzEL/4eMQhRTv2fK6h1wRrex0kJj6KMduvP90ZjlmsA1HHuN1hKKdG906uKdiOF8y8y9tKw5Vc+38jm6ouDb9ydK2ucxjio26UnjW5DXD35q3lr5C545LTnFou6WZqA5NYOnsD+cCuwGjTXAEryPFJ+NbI2lT/I1ODs+9b3wXpqGHAOx0czSLawJZF1S5fbwxSFBiXL/7udcQ7Kw+DkifpymybZopH1u8Ft8C3Jdq+Dp1oZCJlyGA+zNYE7mK6Sl8l2ehyec4NHdKM2wHrKMLQQnisBLvgOGKRiu410UdDvMJvzrfA7hV/QtYsPJ9EEHUrSPa0ke+sH2jpf+KMx1a+KGRIwRzEzNON9LiFbbxDP0h36kUF7t831oaNSgsQdD8bK6CdaVQaJ5426NdT+kXQoCpH2BDBFV81uIgrQl5OhyeaEQaMVK4Bn0CjeKXGBmYTM7cQ/O+0b+A/dNn2AMORey2GVE4pP/AHhYtxzCDRPQWBt0/C7A6zmVdKbSZFOSqL7dsVlhquW+CQpviy7hmgQmhbhQyHgPtX57rxqqtfxuhEEw+N0c6tQ4kBouHavm48jh2sPHFoKwCiIuve3QtRBYM4OHXGZAeiK4y0v+jB9pgLDPy5n/foXHtloudBlOkqvLt7z7tSBTK6yr+3qVnDTj7lkDbmk3Z1cx9Xz6a/7liUefgf/Vzc3qOMWqvmFBr+jMeWKT5qLFhP3djjpaTyCjeMO++j4Ig5Dr1W10DA1TltY+RPBvBGnocXKiyMt74KVwtGVnA2DbPwicNY3rTqKQO+UAwuOCBSU5pWM/Y+Em/yfe5tCixOlRUzNn7Xz+V/znHrFEOjhyuzm1lCiZ2ax0ihCa3k+7fjVRmYOCF+RZ55Gonopz+RTfUUw0d78ecqN9hP9gG04bc+ZxbCkNcG0XrB++JZ73i1uB+jJbzjnFAjdb/PoXXZlNl2jiHHLC3ce3jtqddshGutQY0b6NDTvl78I3YvF97mQqZBf7JbgHm/7w8rfC3ti2Uc3Rntk/5kIx3AFdo8v3vfnn1I4PbCJpmJoQbL3RqSJl6ztOVOLgcPcimAfcZLVMecWmQLsZrUOR6XD0Z1UC4CJyMXVhvBgweQS4HBtqR/Y0vXt/85pU3gYZRV+59AzyiSofmctazNxcuCfLMf3SXd2fkv9++hUwIJMY2ylaZ9R7V36eBtvjn38ateHT9m3SuXZcay3Z5p2y0LIBDxgJEZsVjSKLa/TOcP+YhfaexomqJ0mAJ0PX66SNscvaRdsNW45Iyvzz0Sh0zXOHeqGNLy0Vv3l0wtyqxaxw+zh5Q8GCjIuVpPbuJrtlLs4e5GyxeifjQDz2aE7zRcsIQB66X7JpARbPo8+zGAIOWgGQ1cm1Cx4+nEALnchvfe4PjZB30H6aHmf5C+FiR4X2tUe9gg/x01ECrXHO+k8c2/c3hDT8qeuNTnyz4DYEaxqow1G4qXyLtQOfHzuiX92j1ftQQ4JEjFV/zNjIJIOrfVX+4tv7NK5wn3vIAXMDoThSgzGkjHLCoOhCLGvlMzB3rGKjPgVA2/VT96meffGcSA1MIkJUS9+IITtffFclFlNcRCPSwWsK/HVzQzjvGJtMNOmsEu8aQ0pnwZze6ABgYYspfyXGoC9rWl2som9U7U0OA+cArUwr+3reDjIK1CwCphua1ejtp/zfvICff74JRx7gqzUESlP2uS2HYws4UaifmatoGWFs997EYuvfUdt93PRriiFmFQfCPYwHjnareQkE6AKAHhAEKpbXxO2olV5/rAIChvlDO6n2hhnTpnS4NYcXsQJfqbaXL35DBHfvvJaOevbNwc6g+hRRgPvj8TQW/9t5X+Z/Pq/KmVP/MhmotjTk1a54AABTySURBVL8jQ9AYc8HNleKN08/3oO42eWZqDq5HQhi2sOPtv5dFOhjCvAqAitNxw8x7T9b1HYx5c76mMU//VLcGuBsXpFAqLXfm6RMccsYRsBGE5bbYGOPiWys1q7mZY4+t5RQ8hSt6Llh99rWd9OSUwsXhehCRpE9NKZjTobVyJZbWOnHaIAMy3cnVs1yG73aDhG7fwiqfPJSnMTZL0GuToWlH4hxo5OxL/+vrHnLHHfQQihl4Lz71EbeGvmmk8EhAOCAW7rocL3M0v3BzLlRse8jdWU87dDz56hf/f4Dk9byfac9CfpW92iiXPjkld36kvkcUYL74/r0Fd9TLV56MVElt+o0s+P6XPjj8G+TkKsRg+OIzN+ZqCbYJmerFBte8EaJu4IpppDC9yUbAuCTi3pOL1y54Zt32lLFx9+5ikzZQo4PHhiORo/nV23Ok226AglC7c6w0mP+9Vx57U5+3Wax1p+tz8HJ79N27C+6N1r+oAswKBnRVJzns6oJoldWG36lqcKe76zmPfLjA+P1wkBas78KTHPLE9TmAtVGQ88hYsDqz6L2ElCuJvPck/te7X3jkV0CyGinatRgOXNPHw5gHjDOiPMZXmKHCJ9dAI2KscDyLQHz9SO7bDqv6Vf+u6tWxtBqzajz+Tte+875xfw23gSIQMub3YulEuj7Ds/BzUAEDgfbx9ZJqZTC7gf67WxUeYy4tP1GiC/t56IEWmXFZDnZ6fdPMhW8HcKMaIX9Q/Byiyi4ILdL+SBlS2+jsSqLJlJD6QXtkD1WLj+xn7zvj8pzlsTQS8xJ53xXOxT06W87BCSfxXBRLz5PwDD21Rt1UoaH6x1vIgBRc/cLLax4A1AEDO5SVN95+VX+f/VyAsyavqfQWOoZonmX65D5kM0RNOe6KuiO8JALtVr33spwRq/DynZgFGNUrL96c/yZywl4VkuK19Eu6Kk6c4ZKFS+JXp42QiFrAqwhY2LgtebsQMy4SV4vwrqko64G5PHY6/Jy3JG/MqRhn1Ta55rXcUy5/blr+e3r6okOAA3F3d1yQf19RnnK/nkYy+VnuSEzGfcmdbqRY0b8rxTd2YhXDV/tjDyy88dWk522m+3wPhryFmuaRTCFWoYL7ZcLtLkC31h2LM+cGYI733vZgwUN65onP6hDgQNW9eimeIT39NyIK5atkqHR6B5SI56kabsfZ7gykWGHCraQUTW4UuRYGHDpLJPsMSNjYa2fRIm2CPhwjwYqRGP3Yyyo0TOt474xjbDLlj2mOLjb188G9/Df12h1hpKdTugWYld86oXBLv32VsUhKtkFPY5n8rMbG+M/5N1bK259rkVyJLdpZ1IeMAX6BW6tmAAvl2WV2JzRjGzZentU3Ipvfe18mYawYxLK1PjlsbAVwu7GrGOJKsymRnPooQ4O6K+NuHVeEQ5L+EtfyeuzEsqP/WK++jkk3drGpv78pf0NbMREDe+GJDhmNa5NE5pVy4/y7Air0AmA+LV6tymqA1tHVczsSjXM1oUcStQPuzkYmks4WfggrMMs1fDAmcGvZWNHcIvduo2hpXrohXDLRqU4/XOCRmx7zAFUSd9x1SXgVcXdoqRz/FqIAjTK2kXn/T1vDLyw7D9nbH0+6jmd0xCa8R8anMwWxnO65PAc7ZNxkjNorNzbCrTv9smWnKhvgLUY1c+kav/yBHZpn9FIgM2paN/7DWz4FghB0+OCiww+FNKiKM5MjQeTawS+7czt8AKrXrjky9OEKiB5UwcRwUTsW5wMzX3JpyCDluCrSgyoSZ7Np8XrLRnLO3FkFT8fTmbg5b+ZM1fnST2XTthfLZXVp9QwSvREgYR+a7IwLVVLvBGpqLlTqgFAGBHMbdmUm2+L1SwmEmX7dDE7gM0wrQ4Ek9ExDCChuErTUmoSxpUBz3ijsyZy/SvTtwmkVwLRKjGeZXpom83kehRoUye2HHp5/3ZSRijHXt90djluAWc/kmSV7zvlOZrtcyuBkEiId2uJuzDPq9aMcyGiHEEGT8vKkw9gS0QcyL9PEXjnTJWs3qnVu1yVNc+zq/MMOUkcaPfdWnRdTBJgVnnxVabdla+QDZCxvkYiJT+c6yZQM0j9hiFXOOdqhZTLMlpoU2LHLLy8Cv/qxN5DDCCozAzvqWoF1/c+ubdXDX5xe+LsZYzdNgNmZE66qGLRsle8z7SxWB4sL59RWTRQ55RCrjDreoSE3ZkuAAp8u9Mj9s71a2s6gyl7XaEME0H3b2Qa+Mj33S7PGbjqHHTOx/BRcCbxoJLerWYNKdT3ckZkq5V4YuOoY5GkN0hOA4N6X3PLUO0m6P6/Rg/T4gumL9m4rI9+eUfiKmT0yXdc7o1/uK00aKffQeFJXCxN/dYEaTeNRXS9UQriIGUH7qC20oyzAsn/XGQcWvG72mEwXYOL2NGnuuynXIREDkc0eSDrVVwSc5n7I6s6UpHW9MCCE0VwEwK+LhfsYjJwftezgvSUUplW8NDFdgNmhV6bU295rH9towKlsireDmfg+8/TQKSEp4UPpTiCQYdN2v5SWp3tHE9M/u1XddGA325gXJtfXcoCYXRIiwOzkI9flrOzbxXJkXUpdGpwcqouLV/mRdqRu7jpVmZTW+eVwOHGlKLLJbIGJtb6g40zfbsqIWZNzVsX6nt7nEibA7Mhj1+cv3KeDcq7eNJ56B5Fuz9M5gu6H8HON2rVSwNgQBWPDFp9UGMJmjtqEqQ/QI2w7tIsvFnmxq0Yfn4UxwnsAgbOOrWVMm9O1vXL2o9cU/GTqBFSrjOhqCS1Lv5720959r6lf6ZEDE9pQmlTOlZfuiKOPtyMJdnTyPgqsp0sAlcp0nyvh60xEC2ZtKELaknQ5Q9NZ5Y+/GOTv1WKT737BLTOBz0UH7EE9Il/mUnAZGPE5AAnoHZbsqKpUsQXO/Hd9+EDBHYluPzL1TWr9kIM9U9/+yNat0q0MM6nKtK6mJ3CSu3WMLLybEOnz5mdeeRRODU0aWpDqU+Stz3zyLuJwm8A9k37Ke7WxSJ8uVnwscH9MqLJUg567ENr383JkQEBEFLMfboCbJn2uKyCEDDXkrvoSgv6tuNs8YahD62u4sm97q/TGOOZ8nex46nA9Suz3AGL/6Ji+npu+fiKx7bD2pCk218wqb/HGfN8iAHs00rzta2lh1r2HJ+cIDBehR4jd7OtfvXIZUD64IwVxsqo/zJ28qnP/noCq6dJBkYP2s0nXDhbZq7XFYE7d6i3R1qZi91dlKQIkFiDe+aflflm/RdX6xomCd13YCaNThh1r1a3jnMDSsmqxy6HKb3CfPOP6Ci0ZW60txIK1qFtOG2bZ/5ox+RuTMc6kUnP0bRUDvvjeO1+xKLXyhpRxtEP7WOXBq3LCzl0xEnOdfUMljFw6Acoh0FRlidvMdqwIaeQu3aKRIq0RUdSqiUX2wLmbSbd578p0MRoAOt6hANKwxmwOu0pVKcZnA2Br1sAXef1mvwZVSy8yCh+u/4TnVj2Mwf60hAfa7NtyIiJRXv1Apbw2P76EbGEJmwY/ILOn++Ce1qEPXZ33VbK6o2eeTOnT4ePLzgO6/mPgq6S3bcoAwlRC76uCXFXmPpgHQQqnTqry1qdeGXtHpdRDbuF4S8DSGRBQYk4Hd8xQMDig9+5C41rgXMqdk2GHRuOJq/afC8MtYx1yFrIOhptaRiAdOrYc10rGwP3ipVci3wcz+1s3l3M/uLfgmUS2U73upAsR1DXLgPPLbtlRIpOqdyaT/y7BmfFhJPs+HIm+wjEwxzfogjKE/CU3dC8ZdKV2UADF49un87BAhGMrWK9/8stZUKWTFW+cjLGzjT0K1WlfPl5wHbQYLOXJK/FvAzr7ygGeNiL/FrtN/VDnq2n7ONXT4wbb5OCekYV37jfIQwzXlmTG3SaLaJRZ4oa9Bit1+AKvLKSaOX2EXSqZV7yWFLvNP+e0EQW3Jlt4Sb6kCzAbHTtSKT1+oP1iRGf8WRvmkAgWo461Rd1VHkMGwLzwx+OMJ4UTqWSejZKShmfzM49EGpZmSLL6r16fsWPHKNYdP8h+EXk6FYNIiQBzoFMuzlnVpZ3tDKxapUlFLjWZymRCZt7bb68wVufd7TE1yop1SdWuTB5p9Op4ll4HDeOXFZGvi/ZuY5XzsOBldKERR5GSbh1tZ0y5KHdNqsaSMgHmgGdPz/28TVPlfBpSMrHQ4aJPV4sGbhetMHWn1xfubBjt7cz5nTSZ+00kNTowljMOt2spXOjZlYmFi1XLZpZzX7o194tU9j/lonPsWblvIPvhdZmmTlH7s1qRLf6KnKgYxuVwkfxhiV+7/qnthdb4n5b5kdcomrahyO0TcqSoIIDblUl04dwXFijXnnBm7tup7nfKBXgMgOKPOTzvvhyn/4NMOhKVAThu6mgwYD6nMPLOSvV5FdwkozyWal4wpX3uTKs2qPJHDMcFxkvfOjYH99OZM/PcaHBX/t64k/PuI++aQrQ4Kkm5ALPvk0YqxT06OcbB82hFJuzEVBP3aasgcbUNhpjIwsvxrYaXExEjoz8Zx0ym0aubd/g1zy7uxpGLAl9qq/SC6ynvsdO9kDfhHLP8oP2t4884QtmVDv1NCwEmIZ6YkrNq/87KKfAwSvmqFm1imHDs5OF2DY0yjOfgP1UwjO5HqJR14fz7z6DB6D8s8cFtMvrO6gANTxxmhRNK9GejzUuif0d8u2e/zsqp9/9f7upEtxVr/WkjwOzwc1Pyf+zYXDkq3e8XiLhB5/1ouF9csSnAX/7krVPwOnZcJ331ky+mGGDmIG7b3Cr14Qaa3kWVTq2UI8mj6dTPtBJgEua0fvkfN24gU9N5QWb2vlwwabRCFMKl8HletrbOpQzR/Kx/WEwdOvrOysyLvENO18KFuHE9y5RT++bPT7c+pp0AEzeoT9+Cu+BX/Fa6nocrXXD+j0E9pNVq5ssuTdWua4UBFTOBRhlLoY90OWiajoU8mJejvtGnX96MRGBaxTvmtBNgDuj285WSoV0tFzts/rXxDjAR75cAiWIZYGKinds++9GLdKR+qM/pu7skgj6sk0H8v6xEzDOCNyIV0nAJwhgZf5yOBeDzawb2tIwlT6Zj/9JSgEmo26/K3zC0j2N4OiLDOYC0+PjbyC5ApgvDd9uQiOz6h7D7wnWwrpZcHDWmP+0WXqOFKzthyyUqSToucnCT9B99kG34PROTE9sbjkaRvk9bAWan774s54+ue1mO9aeZLs1ghE3I5nr+TS4NcbGqtZXq4Ip1Phl1s0uLOqq74htgu2J4CF84rVIWLUMGQtz3BvMcu6Bd/7nJJ6ddWyE7IMRhA5gicW8CfyPPIUXOMTdPyFmZwGbirjoj+GvQqLIbtharN2C0adNfdsQF7XCPQuZEsknHVhbtLvN3qIMffOVF0HwgK2DcM1QLKiAyJZFKhvWyAVWEeNmCXdkv73zh1VwpqW6nWfE33EOZ8sUj+TelWb9qdCdtBKJGz6p8MeVhNe/tL0pfrHQpx0R6LhW/UTkgE/I+WFMU8C+TdkW7H05FX1PdJukUVKZIHwpyOtIpx6m+fcYxBadcNlJBCrb0LhkhwCThu1+oe0y+r/Rnn6q0Sm+SZnuXyRQASN+6SeML9j99oJIQIHazaZPWZ+Cqgz0KBD1qgGMEziaVaXYkNntOsvWlgALkKfLW4Qc7RmSK8JJMGbMDB+f06EvLjgN+8svoeh28XU0BZ9eRJuF0427fwjLynbvz38qkIWfMDhwk6jv35L8J0Lip6Xh2yqSJz/b1XwqQlxoUWKZmmvByBBknwOz0c9flzXBa1Tfwv2FuYbPsmaVAzBRQHTb19Scm590V8xtp9GBGCnC7dkrlFaPV0VB7VmbPw2nETRnWFfKOBTx06Xnq6E6dlIyE2ctIASafnDakaOuAA5STrDZ1W1aIM0xy0qC75BmErm4dAh46e3gR3HIys2ScEas6mY+YUDoCQGrvIXg8Yxej6mPK/p14CsCbzt+6iRz5/syCOYlvLXEtZDzTv3dv/rw9CixXJI5E2ZprIwXIM+SdTB9bxgswYGl9T0zKfRDeM69ALcoatTKdIxPcf/IIeeWZa3NnkXcS3FzCq894ASaFaIA4ZZgywWFXf8mehxPOMxnbAHmDPEJeoSE0YwdSpeMZfwauOgnnTNnV+ccllm+Qja9ebZic7BjMpYDNIsUH7OM/8KkpRUvNrTl1tdUqASYZR04u7//7St+XsaBFpo7s2ZaTTQHCGyESasDsW5OX+jMZY6wVKnRVQr08LXdBw3rKpWpUSNNkkDfbRjpQgLxAniBvpEN/zOxDrRNgZogbd27+IwV56vPZ87CZrJKZdZEHyAvkiVRkD0w01WqdAJNgIw9SKgb08E/Icai/Zu3SiWah9K2fVxIwWv1GXiBPpG9Pjfes1p2Bq5Li7tfKmj3+in+V36fU4qSexie/tr8JT6vK0cdaOow/NX9DbR1rrdyBg5M18cT8jd3aWYeqWqmtU5gdV3UKcK45410x97VZeDnuWi3AHOCLt+YtaNpIuRygaRl/aV+dUbN/h6YA55pzzrkP/UTt+bbWCzCn6qKh+Q8U5MqLOA9n9+Haw7uhR4I5zsv1v8g5D/1A7fq2Vp+Bq04VNKq8/U8r/dHjVfauXVOYHU1VCtit6vKfXizoAYtzeV2gTJ3YgTmRnNBxpygH40J/V3YfroWsDd2Kczv6BM5x3RBezmKdEWAO9oJjCzbt116ORyhZWdaoVXuEmHOJOS3v1lE5YezIgr9rz8iij6TOqNBVSTH4grILtxSrMzHxyIuXLZlOAWBaeRrVVy757JH8WZk+Fr39r1M7cJA4nz6a/1DDQnU6QACyDpd6OSbNnuccNihSb6uLwsupqJMCzIF//njhda0aK9chOV6tCCtLM7lKSnc4dy0ay7VfPFZ4fVIaTMNG6qwAcy7mzcqf1qOzeiTc7b7i39lzcRpyaLUuBecISJJf9sbcfTyr4Nb073Xielgnz8DVyTlxRnGDRUutRyP30qhdZf4BXr8iVixtWezp6pRK0d8wUiHGG0nQVCnMV77Ic8pj++/te/fuy+ptT1GP0qbZrADvngrcEysjx0p+vWbuVn9t9p64q1QOKy5Te2LFz02b2aqDHYFXVVm9QvmxKE+Z06yx9bWSjc71sx+QMlwVZZ1ywA//D8bdZAfDYRKbAAAAAElFTkSuQmCC;" parent="1" vertex="1">
          <mxGeometry x="562.86" y="60" width="44.29" height="43" as="geometry" />
        </mxCell>
        <mxCell id="PHQyoOw9yE4qoI6ccOwa-13" value="K8s cluster" style="text;html=1;align=center;verticalAlign=middle;resizable=0;points=[];autosize=1;strokeColor=none;fillColor=none;" parent="1" vertex="1">
          <mxGeometry x="607.15" y="60" width="80" height="30" as="geometry" />
        </mxCell>
        <mxCell id="PHQyoOw9yE4qoI6ccOwa-20" value="" style="endArrow=classic;html=1;rounded=0;" parent="1" edge="1">
          <mxGeometry width="50" height="50" relative="1" as="geometry">
            <mxPoint x="646.5" y="170" as="sourcePoint" />
            <mxPoint x="666.5" y="150" as="targetPoint" />
          </mxGeometry>
        </mxCell>
        <mxCell id="PHQyoOw9yE4qoI6ccOwa-21" value="accept" style="text;html=1;align=center;verticalAlign=middle;resizable=0;points=[];autosize=1;strokeColor=none;fillColor=none;" parent="1" vertex="1">
          <mxGeometry x="658" y="132.5" width="60" height="30" as="geometry" />
        </mxCell>
        <mxCell id="PHQyoOw9yE4qoI6ccOwa-22" value="" style="endArrow=classic;html=1;rounded=0;" parent="1" edge="1">
          <mxGeometry width="50" height="50" relative="1" as="geometry">
            <mxPoint x="646.5" y="188.75" as="sourcePoint" />
            <mxPoint x="666.5" y="208.75" as="targetPoint" />
          </mxGeometry>
        </mxCell>
        <mxCell id="PHQyoOw9yE4qoI6ccOwa-23" value="reject" style="text;html=1;align=center;verticalAlign=middle;resizable=0;points=[];autosize=1;strokeColor=none;fillColor=none;" parent="1" vertex="1">
          <mxGeometry x="659" y="196" width="50" height="30" as="geometry" />
        </mxCell>
        <mxCell id="PHQyoOw9yE4qoI6ccOwa-28" value="" style="endArrow=classic;html=1;rounded=0;fillColor=#fad9d5;strokeColor=#ae4132;" parent="1" edge="1">
          <mxGeometry width="50" height="50" relative="1" as="geometry">
            <mxPoint x="615.91" y="330" as="sourcePoint" />
            <mxPoint x="615.91" y="240" as="targetPoint" />
          </mxGeometry>
        </mxCell>
        <mxCell id="PHQyoOw9yE4qoI6ccOwa-29" value="&lt;font style=&quot;font-size: 11px;&quot;&gt;needs to know:&lt;/font&gt;&lt;div&gt;&lt;font style=&quot;font-size: 11px;&quot;&gt;1. about the container image&lt;/font&gt;&lt;/div&gt;&lt;div&gt;&lt;font style=&quot;font-size: 11px;&quot;&gt;2. about the attestations of the image&lt;/font&gt;&lt;/div&gt;" style="text;html=1;align=center;verticalAlign=middle;resizable=0;points=[];autosize=1;strokeColor=none;fillColor=none;" parent="1" vertex="1">
          <mxGeometry x="516.25" y="320" width="200" height="60" as="geometry" />
        </mxCell>
        <mxCell id="9oUJ_zJhIcpEwCTHfrMB-3" value="Kyverno" style="shape=image;verticalLabelPosition=bottom;labelBackgroundColor=default;verticalAlign=top;aspect=fixed;imageAspect=0;image=data:image/png,iVBORw0KGgoAAAANSUhEUgAAARgAAAEKCAYAAADJkEocAAAABHNCSVQICAgIfAhkiAAAABl0RVh0U29mdHdhcmUAZ25vbWUtc2NyZWVuc2hvdO8Dvz4AAAAudEVYdENyZWF0aW9uIFRpbWUATW9uIDAyIEp1biAyMDI1IDEwOjMzOjUwIEFNIEVFU1S8phDgAAAgAElEQVR4nOy92ZNjR5Lu9/OIswBIALnvmSyuTXaze+beuTOyGdmVSXqRmf5aPcmkN5muZnR1Z6a3GbLZ3GvLfcd+lgjXQ5wDIKuKbHazWawm4TQwUUgkcJaIL9w//9xDVFVZ2MIWtrDvwMz3fQALW9jCfri2AJiFLWxh35lF3/cBLOwVMVVQQMIPABH5Fh/3bOStc5/5p3/uwv6ybAEwCwtzX2tk0en8V2ZgUz/31U/DDCZk7hHeq0j1F6LVX4qgLMDlx2YLgPmxmz7zQII3UwXPZXiFzEEOOAuFBwvEEh6WMJDi6iM9isEh6gBXvRoBEVr9J9V/C/th2wJgfsymVKFRNdGl9lIErXyXTCEv4fxmwtlgzEhLhnmBVaWTGFaaCRvdFuvtJkZmXg6iWC1Bi/DBYgANv6P+ugXA/NBtATA/ZhNmvEuFMx5wAk6EHDi7G3J2VfDJoys+O77iYjhmlOVEvqCTCjurbd57c5efvrHNZrtJ3IhIxJAgGFFEPVN3SDyCqfyXhf0YTBY6mB+31bffq+JFKAQKIFeh7xz/2//+L3z4yTF3I8ikQRk36HS6RFow6l0jxZiGVQ621/n7//Rz/vpnm6w0hIZ4Gjoh1gxUUElwEmFEEBXAILJIYv7QbeHBLAwvHiceh1BiyDFcDyf8H//0ER9+ecFNHlEmLXIfMcqVop9j1OHyiLXlXVDHFyc97v7xQwr+hv/0sw4bTUNChOIRUXQeTGSe9Fn4Mj9kWwDMj9xEAtmauwwvCaWxXPUm/Or3R/z6w0fc5ZbMtnCmibMR1oATi4qDxDIsBPEeL010Ivw/v/6Y9fVf0NhrkiQRlCW+zEmazeobq3Q1C8f5x2ALH3VhgOD97HmvP+Ljz08ZF5bSNMlMwliFXBWsIFKlna0h80qO4JOUMZYn5zd89viKq0FOqQaxMSZK0LnEtsznvxf2g7YFwCwMEBKTYNRSZHB7k3N6fIdzCc5HeLGoBbUekQJDhkiOSIFSoNZDLDhRxmXJJ18+5ro/xClYExHF6VQDEyBmgS4/FlsAzMIQIDUJVi3DvuPibMLd7Zgs85QuhFFRZIitEkmBkQmGDCs5xhQIBVCAKSFSHp8cczcYUXgoPXgv08BomhpfgMyPwhYAs7CQrfaKERgNh1xeXpPnBWmziY0TVKEsS1xZgnpMFfAAxFGEiCHPclzhaKYNirxgMCzpj5VBXpIVOWjlvSySlj8qW5C8CwMgyycQx+TlhMGkRyE5RkpUYowxRFgMBryd1SoB3gXgSKIY0EDoYinGBeJK4lQpJzmNOKkUMHC/CGFhP2RbAMzCAIitoRTBWMGmBjUeFZ2K4wymYlHMV2KDoIiWWFGSyBJZgxWPiexc8eMCXH5MtgCYhQFgowiHwUYRaZogppb56lSp8of1t+G9RgxpaokjgzFgokpgV4PLQv7yo7EFwCwMADEWPERRRJokGJEZH1tXV6t+JS7UHooqiBHS2BBZwRohws69ce7nAmR+8LYgeX8U9ofDEu8dqkqaJDSaTah6wXjvQw+XCnBehAnz4Y+ixHFMkhgiyzesmX62pPteeffC/oJtATA/ePtmk9UVBaqORjOl3W5hTBgaXj3IXHMFkaD+rQDoRaVsnU6HRiPGGhDVF77nq49xATA/JFsAzMIApqARWVhaSljudlFVjJhpOCMiLwQLrUCkfmxtbbPUDO0bQANILexHaQuA+YFa3Zdl/jF79gLPwFhAiGLodFM2Ntdx3hPFMeodWjoEwYhl1n4BVHT6qG17a4tWozEdXMKL2m/OH+HCfqi2AJgfkc0Cj3py1x3nPMZUHgzQTRLWul3UeyJrp9o4QRANtUQq4EVDp02p+tSpR1RJ44jImhn3IiA4EMf0AxYE74/CFgDzF2xfx1zoC97nUTwexaGUUEv8KRERDCGtuNxI2VtbY9wfICpExmLEBBZGZ32qlNDqQYWqgtETR8LmmqWZzBAk0MOzcgI1Om2it7Afti3S1H/h9k1p0CqJXE12XzWvrP8tiIBRIVbopDG7a0tEqohXrFTAMpemDp5LKDEQE95nxLHcabK9FtFMalK46paJB3HToCi0nFo4Mj90WwDMj8Tm5f0BJuzcq8E7MdUbGxY2u5a9jTX6WlJ4g2Dvi2LqzzOCwSOURMZxsLNOO4mIpuq8gDCKR7GUGDwGg120/f4R2CJE+sHabJOR2lsIN1tQLJ4YR0pJiiee9skVIDaw1o14fXcd6yf4Msc7P8Wjea/J2qokgJLUOt56bYdGHKR1gQ4W0Pr7GpQ0qu+M7h3Vwn6Ytri7P3gLlc9GlZAnCjd9BgBVlqfevij0lCK2wvZai6TMkDJH1Qe40uCLqJewu4n3ROqIKEhNzt5Wh4Y1WAfGg6k/05tpRdMfGnTzKe+F/WXbAmB+oFZnfNR5XFEg3oP3kOeI81Vlc4HRnHJwhxuPUecQCQCzHMe8//oebetITPBtSu/xUqe5BesF4xXyjMTn7K6mPNgWmhHh++q+L67EDweYvCDxSuw8tvSoC5knCBuavAhUVP1zj4X95diCg/kBm4hgjA1BknooS8QVUOagJZqNGQ36nJ9fsPfgXRrddRCLCCSR4WBjidWW5fymQMUjNkbV3fsO6xXjShox7K63WU4gETDqA8iUJfndDRfHx2xsbpGsrBJFSTgmY3CAmaatn6/Ufn732gVr85dkC4B5pWx+dv05JlIl67fVhkelIr6k6F8zvjljeH1O//qS3jhne20D2l3QCPWBj1lrW3bXu3x+e4d6h0RVMSM6yyhpeN5pJjzY2yQlDCprwPgSN+7RO3nMF7/9FcP1ddZ2D+hu7RB3VvBpA28NYk1oSCV1fulPP/+vC6oW0PTybQEwr5z9aWXG9/5iSsZqFRo5EPCTIcPLEwbHD+mfPmR4fUo+uEMaHbKrUxqrO9i4GTZhU2gn8GBvk98cj7kalODKIMirQMaoIhJ6yawsN3mwvwMKRsAawZSOyaDH4OKY0elDTs4eUZw9pdx/jdbea5i1DaTVJmo1wRiQKOS0JYj0VF68l/XXgcgCYF4tWwDMK2kvAJlnZ44wTRvfm4bzPRbUo5Mh2rvBS8nk6UOefPQB/YsjTD6kIQUNdQwzR//smObe2zTbK6AhbW1FONjeZqV9xaP+iNKVJCae+yJPFBlaaYuN9RU21rvk3gWAEMCXuPEAHffZ6zTQ8QB3ecTpzQXJyROW9g9prW+SbG4RNdtIswNxIyCUBPpZdFaWAEE17OeO4Fl7FkQWoPL92gJgXlmbIzNrVdu8aXh9nhSV6f6vPngEZYG7PGb0ya/onTzm5vwMNx7RBRoCkfqg1I1iEgfiSxAP1oIL8/xwf5WV7hKtm5IxMVQT3qhHxOFVaTSbrK6ukMZAWbXUVA++pMxGTHpX2PEtDVeErWNdSX78ObdPP6HfWiLbPWTz8G2S13+CLG9A3IQ4DvVLrjrXOqMtUhU5aKWtAaqee3WGbHo9vuL5wl6eLQDmlTKZamtrM+HlF701yOU8UJZQ5FCU4cXBgMnFJddHD+mffI7cHRG5ER0FEwvWeYxTjA/ql8JDM06I6i52EnBEFRoN2NnZoHujTHo500IBCdxLlmcsdTfYO9hDBdKowkMNJLONLI3YUmhBojniI9Q7Eu/oiGLKCZOnj/ns+ISlx49Yf/AOncM3YH0HTAImnTG99374ablCXbrwrN0XFwbIXqRNX64tAOYVshfVEU1zNvLsiqygHvEFuBzKCToZMnrymOHxMZPzc/yoR1oMcNkIIyWxtVhThR11IykENYakmWJteD2EIUJp4Py8IC+piiGrA6EqG5DA8xTOM86U/hi6zalzBXFE1GjQSFNKdMrdhN0kQZ2jLIaYyNFZajM+e8LR7RXJo09pbG6zundIY/c1JG2CRvhSURFs0gARXAXItSJ4Hjz0mZ/1tatp5IVH83JsATCvsN3PKencTwUclBPcsEd2e83k+or85pLx48dI7w4zGtLAEVkoI4OXGPEKXvEVOIQudYIXMI0UsRavilPFi+BQPvjkIQ8fXzEaOUTiaahWT1JrIy6vbvjdx5+z1XzA9n6LqA7bjMEmCUnSCMQxOi2WNCaUCkQGnJGQ3SomZOMB48E1k6snZJePSS+f0trYorWyTtzuQNpC1GCJKsmemYKvzF21WWMKnR7tojDh5dsCYF5Rm1UJzV4RXwaPBQ/5mPzmlMnlKf3TEwbnZ7jeHfQHLKGkqsR4cEH673woTPSVAE6pwiAJE5wkhijwJ14VbyD38PnTx5xcDBhrB4niKk09O8I4Tuj3e3z5cMB/eGMVv9cKgrhK2yJisFXLB69V5gnBIMTWIiKU6imyCSlKLIJzBXl/yHDcY3R7xXBljc7WDt2dQxpbu8AqYhNslFbxzzxw+HuAE5gaqViaRf3Ty7YFwLxCFnQlgV1QVawEojXM+hzyIToaUEyG5NfnDJ9+xuTqhKx3RzkckyjEokQOUMX54O1MqVCRqpm3TLMxKoKzgkYWIgtVXxgVmCgMyjx4GJWnMGMzwjNrLd4YyrJgNJ7c50N8pZcxJpDRXqfnKVppc3ChJbgoFsXh8CixgPMFRf+arHfH9cU5k/Mzugdv0Dh4QNpewXRWkCgBU6W3pztG+mkHPoQqjFJqaFsESC/PFgDzypkiVQYGqVIo6tBhH725ID8/4fzRQy4ef0HiJqRaEKOklWcRqZ9NH6n1KtU/NdQ9h6RUmHLeBA4m6FAEqX6qQClQmvDwWgPHXDAiUHiH8xqqELICUwUlASk9VixJo0HdtUqMIFppaXyoj/Iy422MBoiS6jpImdFZ6lJowfXjLzj68iHLuwfsv/Ue7cM3iJY6SKsDzaUqc+WC2tgK3tqplsYDtgrR/nR8mWfIFnTxN7EFwHxrm89lfPuVMdQCCYiFYgSDHowGjJ4+4e7LzxifHlHe3bCdJFUZYwz4AEo4xHgEN6tTnjKutTsEM4AQvAmPaX8XZj5KacCZ2etBGTzHaIjgypLSlTjvybIJDkiMBVeCU7AWSRtVW4eq3FEB7+fCJXDVhrROoBQNjax8ANrJoI/EMatRSjuyDE9POL3u0frkMzZfe5PW/iGsrgWQSWPE1l6YziX75yn0+/fpXqr/+dqEZ/72RYKkhUf0VbYAmD+b6fNalXl7Tmo73/tgbtCqB5eh4zvc9Ql3R0eMzs/Iz8+gd0ujyEkM2CKnEIuvZ3xFaxp1GPVVj5Yqt6JBJasawhwVcBLAw9nKQ5kjfGuAcQKOCIcLRzgn5Z9mZVzwXpzCOMunWRoVQatG4mosRRQHQXGpiHNTHggxwcuoQbBiSQyKiGIjizoHpQefYTDEavHjAX445Pz2Fnn6hGh7h87uPt29XVhug1qMh9gIKgYlCoD2TFophIn1tZ8LoO4x7PPgUp/hIun9TWwBMN/AvknTAKkVtM8tkDIVYqiG1DL4Sqgq4aEOygKcQ/MR5c0546efMTp5TP/yEskyTDbB5Pl04nlVBF/1W1Fq+ZmpaoMMIZWsXgheToyKoaSk8EpplEI9Zam4WILgJYpCfkrCfB6M4XaglM4gps5jacUTUfXmFRCDV88kL6YcjIpFrQ2fmTZwzS6D3g3N0tHUEJGpegp1OCeoGkRiImOxUmeGFFPnzbyrSh48gsf7EuegGBTkxYRseEt+c052ecTS9haNzU1Mt400UjROwp2oc/4VLqjUOr5w9UQgUrBT/A96nxpg5jXEC6r4m9kCYL6hfX2Ni8ze9Kzwon5dwoT3ziHqQqOUmsEtJ/jBHaO7Gwbnp+Snj7GXJ5TXF5g8I7YGq6A4VKFQkHrf6GoiSg04WgleqzSRMTFim2QF5KqUNiHDkxuFJCJaarKxc0Dc6YK1U5Vs7oW7AQxG4JxFjcy8Dq3DpgCQIb1dMsnyqfAWEbyNkCSFpS7pxgGFg6zsEXmHNRrAUkGMxUiEuhos63T2zHPQ+nkF0qKh3smKR8ohWS8jG99R3JwzuVglWlsn3dxgaWuTdG0Dmt1A9sjcjgjU4CKhqpsZrswWivuhUZ32XsDLN7MFwHxrq1b2Wuk1BzD3XO3qTYIExrTMweWoGzO+OiW7OuXm7Ije6TGmd8MankaZh479rry3bauaMOFmdMH8pKw7/4ewwxgD1uKcZ6JKTkSZJki7TWtjnc7OLqt7B9jWSsWDhEMtFXpDT1HKlCjVaYgh0xMUEYxaVIXheELuQKPqdI1F4wa2vcram++Rd9dwJ6e422uG4z7WT0gE4ijGWosrSnwZAHiWCq88PtGZF0igbVXAiBDjgBIpcko3pje5Izt+THNlhbW9fTp7+9itHZLuFhK3QOIQLiJYE6FiMZVb46lw6D5dNXedF/bH2AJgvqU9gx/TATkdn8IsdALEGrTwuH4f17uguDvn5NN/Y3R1Atkd3djQaaT4UYm1lrIscc5VnzUjL6kmmFSeEdNwola3hqPIypJJOUBaHdQ26Bee5touG2+/x+prbxBvbYdZFRnqAkMFnFN6vQznHEYiHIqvsj73zl8FMUHnMhiOyHLw07ohC1ED21lj850W8vbP4fyKy08/5vbRp+S9CwqXIc4RuZIIxViPVR9qnRTmSROdgx2osk+iqJQIjkgMIgbjSsQLel1wM+jTf/qE5uYmaz/9GdHKKrbVgShFTYJptImIcBJXGTbByXTZmN7LGTu0sD/GFgDzZ7Bn8wu1MyNVqjaozKqOcqMh5dUpd8ePuHjyBf3LI5ajklUpMRb8aMAov8WQ0Gy0iaII7z3e63MZjqknX+8drYJqFMIWDY0xh6XnJitJlizrB6+zs3dI48E7mLUdIKaUGGkYDB6tSFyPUHjPaDjEOUVtjZE6JZRFfQhcRDFG8E4ZTybkOfiYKtVt8BXIIAlRqbDXZX1th/W336Y4/py708fcnJ2S5yMSnxFrEANG6gIXUl1RxUxrnIIZfIC9qajPSEjFxyaiEcV47ygGPSZ3t4yurzg9e8zy/iGbh6/T3jnALq+Di7CSYgx4MajYuasbznVmMnePFwTvN7EFwHxLm5/yDvC+wPogGhMBnIPJGCZj/NUFd0dfMLw4ZnhzSda/JSkzbGzwWoKCIcVECaIWV7eHNEEgZyrtSs0jRHFE4RyFc4ix2LjBZFIgNgWJkaRBvLrOazuHtDZ3ibZ2sJ1lTKMNUQJisWKryVl7CIGcKEvH5c01XrUCrup8lZmuZnoRQt4nz0suLi7ZbawhUQi3fEX2eqMQCdYJYiKID4hXWqwc7pKcnTA8O2Z4+gQ3vCN1IM4Hn8XYikQOSmC0ugbVEYTjCi1AtSJQpAhMUiwJTRuxJJZxkVPeleTjTzk9O2dp6wmd3QOamzska1tIZwXxEjyfqqFo9WnhGExIowPT7Fh9PaZJ/BemuH/ctgCYP4PVLnRU8wW+CGFLPsHf3ZCdn9I7PSW7PKW8u0AnPUwxoVmWWCBSW8X8tgp0AAkhSf0Ns7Fb52mEsvDkzlNisHEDTdv08zEmWWKpu0Zna5fO3iHx1i62s4y0u2Crbv5aCeukmkpVqrhmPUrvuOv3q5OrOuO9MA1f+Wti8M5zfnGO3+8CSXDcJNQ1iZggsCPUIWncgibYdkq7u0y6uUFne4vs7IjJRVAnq1YNs9Tj1T/Xr9dUGazAP7lp5gwgMhZXerzLsWLpxjGTfIz3ntIrw9GIu9NjTHeFpe091l57QHNjB9NaQ6I48GTOox7EViBrghcV6K7wZKEL/nr7YQPMCzI6eu8Xf558gEAgJrUEUSQfU97dMjk7YXx6RHFxxvjqHJ0MsS4j0rJOjBIme6UDmToQYfVW9XPMw9ypaFhlnVdKZynEUtIgitu0DnZpb+3S2j6gtbFJ2ulCowlRHMBFZJpjVny1BFfNnaoN1lSg9EpvMJiu2kBIVVeJnPo4qNPkYnAKZ+cXOPc6QjLN/EhdWlCn5SU895KANURJg0azRWN5lcb6JsnFNpOLMybXF5RXl1hXBhmeNZWXEMDXV9fGqKnuQX1MBucExIa/QfDOk5oY5z2STdA8x42G5Hd3uOtLuDxhee91lnbfIlreDo2v4rjigWakdlBAc3/32z9iCM1D5MsDpvuj/mUySa8swMyTp/PPnyX3n5t81ISqPJ9bvpdN1vmXXnDJv+o2zFON9Xd5cAVMBuTDAeOzYyYnR2SnJxQ3l5hRH5uNSURrRT7BW6nrgkzFcUi1GodJJNXqXKdG/dyROjGUYtA4JmouEa+sk2xu0z58QGdrF7O2CWmjOkYH6kHd3Jo7yw6F45mtxUoIR7KsqERoVcaoup71Kj7PanssDsvdYEzpNZQWiFRH7SudriJip56Qx6LGhPCuGSFJk7jVJVrfIt29QY4ekcefIb1bXDahcCVCUDp7gqCwzivPCFgBLKUKRiy24rCKIqdhY7wLJHLDQjMKIsKyd0s+uKV3cUV+dEG6+TqNjR2S9Q1otSAxoV+wVtyLUJU7BA/w/uh4bri98PdfN8X1Bc9fNB+e/R5h/o7Ur80Ywvml6mWBzKsFMFWrx9pNVyHsoOwhKz2FK1H1xMaQRjGRlenePpY6Y1ORqvoi51Wek8PXUGPmLr9M/3vuACsKVIHQo5ayQIuccjQgvzih/+hLLp8+Jru5IXUFS1aJNceaKgksJrCRZgaAovXNr9wDX23nIQaVUCfkJUxRr1LJ+GP8Uoeos8LS1g4rewc0dvZgYxNU8MZWYRDTz61L/uozobpCKjo3MIXSQZZrBQm++sVXDcgg93PEOGky0YQMIWcGWUY9VqTal0lnngwWRXEYjI0QE4OJkXSJdHmTzY1d2NhlcnbM3dkJd5eXZKMBsQ9V17FRrHdB6TsFmwBs1lrUe8oyByCyQlkWGBOAx6si3tGMgheV5TnjqwuuL++IHh+xvHNA++AQs71LvL6JtFpIkmAlwUsIMfX+ZYB63Fb/+Lpt5eox+Ozv/fShVYhZjTYHk9IxygomeUHpHJG1GGNI45ilRkQzNuEaa9h6RipNkRFlnrd6mfbqAEydaZHg/uclaAx957kcKMc3A85vrynyCRudFnvrG6wvN2haQ4rQNBALoe2jOgLkRNwXVmkFLDrdnbn+WVN7YZPUkCMIYvAaaObdfQUdoaNb/O01xdUl/aOnnH/8Eal3tNTTFo8xHuM9YhSNDWXtYs8tM6KKcXMCuaqlgvce5x0SNxCTgEnwElGqZeIUllZYffc9lvYOSFfXSdvdqho6BTGBn5gCSgQmmm6cRuWx1O6+8eGddYg0HnpOjktGk4Lp9mzPAHZ9fUI2x1LSRHCc3ihDBxOEFCFGsQiREia2zMhSS532rrrTiQn8R329Oy14a5XG4Xs0bq/onDzl/NGXXD95SEqO9yWJlKH/TBnCKCIbvETc1NMI+BruvmoF8CJ4hSzLQ5gWJ3RjgzilzK8ZPbzi+ulHNLb32Pzpz0l3dpHlVaTVRuq0ttgZN2YqwaEIZXV+MbUmiXuuxVQ0yP0cVfi3UKJMfElWKkQxmYfrvvL4tM/HD0/4/OkxN7c91lZXWWo1eW1ni/ff2uIn+02WjMEV0I4Jaf9pdlDxFeS9zJryVwdgJKzqlW9AJnByBf/4y4/56NExF8MhE19QupxUPMuNBu+89oBfvPMm7x6ukXbqeWND60it+AWdiz9fkOattxHjmZ+BB6lecyVahs5xQgFSwN0l/adPuHr0Jf3TI+j3WDZC7P1MusHc90vQbcwGWiXpV6inXNgFsaoiFsVXA7bAMCoVF0UsrW2wt/eA1jvvYpdX0WYTSWLU2Crb8YyTXPE1MPf9L7Ap8Ag45xkOc4qSoOm/d3Weu3HhO9SipsmoyLkawUqFdzGCFcPsU2a+4gy4zdx1r38nYW1IGmGlWY5ptlY4OHyTnd4Vd599xPmjLxgNejTwNIwQq2IleHmm4q9UapFeOE6po1ql4o4ELaF0gXC33pGoYgnq6ez2lE/+6wXJ+gYrB4es7B3S3NwlWt0OnpjXardLUzng0b2ze/56zy1S98xMx2OJUIjFRQZnhP/6q8/45QePeXw+pJ8rGWDiFpfnI7Ts8emTGz789Cnv7K/zn//jT3h3J6JUMGKwBmZ+0f3vexkQ88oAjEfJtGTsHdeDnA8/OeXXvzvh6Dpn5BOGfplMFRNbeuMBvVy5/viG33/xK372+hb/89+9y4PtlEYUBnbkpc7HPFeDON3onXnxrVBPxXoeVrkaRDIwOUwGlOenXD19RP/oMTrowWRMu8yDnL8iI2fZFp2ldwnVw5UyjpqUrFfYeotVEQEbVdoWQ2EtI2NJ13dYPnyD9v4D4o1tsCmm2YQk9EORulJaZApqf/Q9qOZhURbc9vuU3s8J8O4DwzwfFLApkMR5XnB5NeFgrQGt4AsaIsKywf3J9zVsQt2buMxLoijFxCkUKTaKsGnCWrNJ87UH9E+OGT09YnJ5XfUkVlIjWByqOU5zXBUiGG8QbysuZQY601FR1W55MUgUkUYJFkueZxSXZ9yMeoxOn9LZ3GH98K3Qj6bdCdXicYJKiscFn7cqnHw2MDF4NAga5s7bUlPWNWNVeMNFz/PBR4/4f3/5OWd3JWOfkotBrQb1cRSj4hmXcHpVUE4ukLKk+z/8jJ3liNjOSjLv+0svT8PzygCMAk4st1nGh49P+D//6VfcjRMKWaa0KYUkOCPkKmRRAga8OrLxhPLLSwrn+O9+fsCbry2z2khoWENUbSAWEgH3hzZTkKlbEdWbxFdRdJUuES1heE1+dcrg5ITx0RHj8zOibIwtcowvsZWUPfAm4TMFZtmW+gSr9buGrhnZaXBTXkIoEUpjSLsrrGxu013dIN7eo7m1S7y0jE9boYgxTqY6kW8DLOHIQgElIjhXMhgOqY94Fh49v+LNk6uK4FW56w0o8nYFMDV0v4i6/HoTCNkpHxYgIzGSthHTJG4tEW1skqzv0N48pDw5x51fMLw8ZzwakBohNlFVTxoEeYHLEgCL+FUAACAASURBVMQzvfZmqrKuhIpS1V2JCdy4FjTUExUZ2p/gxj36vWtGJ8e0tnZp7ezS2NgkWllHlroIyZynXF2zKZ4GH6UuTA2NsWrwNjhCn+HMw9nNiH/618/58ONzTq4LStNC4zTwKVJMt9A1NsLaUPpwNxrz248+ZXM15b//6wfEy40qaffsffvTx8kfa68MwHiEXCxH1yP+9aOnPLkakyx1cbZBaSIKoEApgDKyiA2D10Yxt8WIf//inHGeU9j3+NlhG5NaEMVqYFimjemnHkX4Xwl47xBfEqmr6g895BmMx0z6N2Rnj5icPmFyeUFxe0c8yVlKDEbLUNWrVZxrzFTsVRPK6P3x5dRNt3TFxtVqBaVavAoaxURLHRobW7TWNmnt7mJWVmB5JWQ0qgFrTDRN2T43YKav1188O+ev8hlqNPQK4yzj+vYmNJ+qYDfoTWSanpW5/8+CHUGMcHV1RZatIKQoSqkeUzf6RueO5KsHeu3hWWvxzocDMxESRcHd0wQRpZF0aHQ28RsH5GencPSE/tkx2ahHkY2xxThwXAKaWLwJDcyNV4zTytMINVYegzMm9MdBUOfDDgjiQr2Tc3ivFMWEwe0N+bBHdntJsrpOY2OHpd1DovYqpK0gZDTVNi+uWngiIQBLqAoPHm7g3NRGOAw5cHY75Ne/e8IvP3jI5Z1B4w4uTvAGPCWhHNUhKqHtqQllDnkhTAYZv/7gc/a3lkmjDVaaFmPrZeDrr/l3Ya8QwEBv4vjsuMfHj3ok7T2caZKrrfqXlDh1Vd/Y0GpAveAcNEwDwfDvX15jmycstQ6Jt1pYW4U8FbczDUuq7wzSEwdaoOUEdSV4j5+MKS4uyC/O6J8dMb48RkY9Ul/SdBoqeLO88ljqosOZjDzcxvuzunYwvIZ6GTUJahMKNWRGkLiFJE1su0tr95CNN9+F1hI0GyAOogjEgtGqb9Sz7u40/83si+/7HLXU5lkLhx9+UzjoDXNubm5AWnMeWfCw6rOs3e6wQ0AI+wIHIVxdXjEeHwQKCqVQRyIyV1v09YN83lcyAsaasBft9AJ7kIoMtjG0EkzSorGyQmN/l+bZCcPTY4qzM9zlBcXdLUYzJDGohF45kYAVxZpAjtl6CkpoV+GNho57ZjZGRAMwRMZiopRydMt4NKR/fELUfsrK/jmNnX3SrS2S5VWk0QGJQ86hFjTWaZ7ab9ZKz0Toy3PVH/PBpyf8678/5moklEkXkiaFeBwFIi6II71irKB4CgpKdcQGGksrPL245ZNH56x2WrSSDokN3Yjvs1wvx14JgFENqcvjsz5PTkaU2iB3ETZKMBIxKXOIlCQRxsUYa6KwMmjocZI5xfuIpeYK/+2jh7S6DZrxNq2NlMSGLbk84aZM89TVTYpxoTm2Onwxobi7JTt+ws0Xn3F99AQpJixZaBhP7N2UiJ0naZFQ4Fevgs+dn4BoSMWaKMIZy0SFiRdytdjOCis7+6ztv0Zzew+6a5AsBVCJpMp6zBKY4UN5BlC+nYkEwV+eK6OxD2UKX+NZfyVEqJBlOXnuQ1LQQAg/ZnyUVuTqV4/0GoRmGcB7P+fDDgRsUNlKHEGzQWd5mc7hA/z5GePHT+g/fcro7pxReYvXHOM8sYcEQ4yQmBl4eVGcCVVOprrmEQ6pgAkF6zxJ1UtYRXEok+sLHl+ew6cfsfv226wcvk66vY9ZXsc0KqAeDiBtgg01T14ElYjYJPRHDi8lH3xwxH/7zWMue0ppl8jFkrsStYoYAmGuEQZLXe2qhNDPWItELcbjHg+PTvnpW5tI1L0Xngr3Afy7tlcCYGo7v7jkydEJeeGwSRPnQqrXasgKWRWcL6YgIdXOhCAUCjfjCUma8JuPP2UtHdI2e+yvtmmaCOfKEJYAYWn1oWVCNgBK3NUZ14++5OyLTxldntK2niVTAhkR4SYWlbBBFYwL2ZHIhSZF3oNDvpI/8xLCQOKUfuEYlGCWOqzsHHD4s78iWt1EuithAHpBy6om2kSzTI56pnqPOsaj/vmnDxkvIeOAFyaTjEF/hJYeE888lZlSph6scwrfuWwZwHgyZjIpKErFpaGGatp4XGd/+VUgNfVxpJxysC86Uz/3Xq3KESITB1QzCWY3pbW6Tesn71NcPebTD/+Rsn+JZhNUDVYiKDzqlMiH0LU04Gwo4vR1j19RjIbPD21IhchT9RNWREpacUQzjsn9mP4XH3LyyQcs7x2y89a7dPYfwPrG9MBD46+IEotggxDAWn79wRm//O0ZJ2cZRdLBxzEFJbkWVT2aBWJELb7yulQUbx3eONSXDHLPcneNm/6I/mhCqdW4I4ge6x0wX5a9EgBT15gMhyOGozE2btJsNukPM7z3JHGEo6DMcmJjmRNwglZlI1ThB8JFb8A//+YTGuWE1t/8lKgbh5tTb1cIgMfnY4aPQ5q5d3pEfncFkz5tlxGXJbFR0iQCQh2Mr0r51YdsOBqcC1tlgTyhaXXdfjK0oKyqihFKYxmWQrq2zcHeId3tfWx3jWhrD0kaeBuHbrpWgmteV/bWe03PpxaVP+MyFD7XAaPcMRiX5E5CBklnbRy+iXkxjAtlVEDmocmfkrOYBZmVegWor8A891O/OgtPPRoWkiQG20BagC+IOylvdgyjs8fcnZ7Qv7yiNxzRsBGp+gCyOLzUUrlKUFm1wdP6WxWMN6E5uQrOKJgg6PO+oBVHFPmYpeYS/atjPu3fkj59TGfvAVsPfkK62kKjhFAOG0Sk12N4ctLnn//9IY8v+ox9wsQZysigkQ2FqCKgBvUW1SjIAqTidOoFVzwmstgYBoMRk6y4x/t/H/Xf3zvA1OBSKoHBVyHLc5ARYgSvgpuicAQaEQbVVBcKaGisVMW73je4uhvyu0+vWG4e8bfvv8FKs+6CNFuFs/GYx7//Hf7mkrJ3Q1SOSX1B6pXERBivuCLHGINYU+WSw/30GsIir1oJ1QLQiAjOK5lTCiw+iiGKURsjnS5r+4d09vZpbW6TdFeDh9JogQTS1spst8IZMy1z+U4zf/G++sLO4UGdQftqVWklKBe4GYw5uhxQaIxXA55pgytkNrG91FdSmemNBI+lX0Sc9kpuxo6lhiWqa3m+McF4f/vcmk16Nhsyf1Z2/tXau5u+aJHuOs1WQry6Q2Prku75Of2TY/qnJzidEJd5EMah4APfYkSm5adGw+JhvGDUYHwQKsq0OaFSeof3JbEBcRnGe8piwkQhty123/kb1DRQ7EzMqXCVKf/l3x7yxfWQvkQUSTzVQIlGWDOD2CAH8DNZAh6riq3GoGrJaDxkPU1I06jikOav4cu17x1ggKkXUqdby7LA2ByioJbUSkqvklQcx2w1r3uUBG1L1bhEGkyc58l1ztKnp6wud3n/ra0wYKReiQRrY5ZaXa5PjjFlSQqkCrZ0le7PYiQBFPWzFRWYyrC14l9MFQ+LiVCFUoXcpNilLs3VDZrrm5j1TTp7e6Srq0ijyjTojGsIDaUI5/dMS7VpTdCc1SvqN7WvGlxK8L4KD3eDnOt+TikJU7XQfOJH7v/dlLStFGweS+ZjLgcFvXGBX7F/Yjgnz/x/Vr4hz7zjD36aGIibECdEyTJRa4vmyj7N9X0aWyfo1Rmj63PyYQ8/6SGlJxGw1hAZEzJOGvbyNr7m4MJpG0Lau5bUGIGyLDFJjEGxosTNJhu7B0TpEirRlGb1Dm77Bb/86Ix/f3zJRCPKVCidQW3QHYlWaXWYcn4y7fBXb++iwf9Uh/qMshiTthIasZ0CzB937f989koAjFarXyNNaTWamOEQMVA4V/WJNVVn+ErsNVf6/7wJTgxFknLrHZ9c3LD08UPWNrrsLjdomjpjYEmaHQ7f/xuy3oDhcUaZFaQC1gplluFNRKPZRNXhtSDyiq370s7ppLzUewvF5N5QRglRu03cWSfd2KWzs0979wC6y8F1j0N90dQbUQKJM7siPD8Q5IVY8mxG+tvYpID+xDEufMjOzB3D1Pn7g2ZwRNwNJoyzDJEGc2qkikz+5sd0v7HT8wfwtYd075cVgWYiaCSYqMlSd5Wl115Hz59yc/qU/sUJo/MTfO8W7wtK9URiMMYjWmLuEbtVw62q5GKWnQnZMucUH8U0u2usvv4Wu2+/EzKgQrUAwd2w5PdPbvmnX33K9ciRNJthV01XaVyq9WMGMBWPUvVfVqn20JIAMEIBvsTiWFtt02qmc8LRCly+KpX4HdkrATC1bW2us7/b4+zuEaqKKwuMSSoOIzir3+TqeBG0ETN2EUejAf7LIzZ3t0je32e9lZAKRN5g0xZm5wFbP/0PPM3GTC4ekqCkiQEcWaGU2ZjEQmTCjbW+GkAa4uKwMZnBmwS1DSbeEq+s0dk5pLP/OunmASx10Va3yiRXZQyqBOZImDKZf6p9S5Cp4WySQ2+UMylyTBRNN1vzc4f4HPS9aMCq0uv1mYzHWFmZHmQNhlI3zvoDp/Tssz/J9P6lCQuUhShFsIhtIWnC2tYO7dtLBsdPGB8fU95cM7m7wRUZTRyphDVBpdKuGIdDZiBD4NsmeU6ztUTfCdHGNqvv/JS1N96tdm0In5EDgwIeXo345SdPOL66hcYqpVeKImhtrNWplwxzSu9pQFtV1ImveCKHoSCynoaBn77zOptrK4FUl9rTedkB0isCMHUt8eHeMm9drPC7zx5SahF4GRxCVA2UqnGRSNiUa64R9rx5hGFZYGNLutThYjzi//7179nbXydNYyQKg9148F5Yfe0tVpeXuHn4EeeffsD5xRHdRpO4KWiWoZRzoRGIhpLIEkMhQm4iiqiBNrrsvvUeSw/ewq6sQ7Md2kUSTRsdxY0IY0OcHxoaBXHaPW7lezAB8twzGhdkRYFGcejyaeoM2Iu8pcqL1PsYqcBwNCSfZC/EvlqLVFfMf2c2bRAeChupiPjQx8sgYjHeY5M2JC2SxhJrq5u4vTcYPXrE+ZOH9M+eUpQTGgINY4infX9cNcUjnEoId6OEcTmGpMvhL/6axhtvwcYOtNphHxhX4q1SeLidKJ+d3PHbz54Qt7oUJmU4zimcw9oIUcXipqdyH1yCanxaJV1XTXuHdRlvP9jmJw+2WO80iKhq2+5l/14e0LwSAGOtJUFYAt7Z3+IffvET/sv/968kcQuRlMwLjrDHsRFQH/b/gRlJXJtINWGNUKogxEjS5WyQ8X/987+R/v1PeWt7HQPEVQaARgzxDsvdZWRtm4uPfsPNyRcko2vaxpOVJZkLafJIIzCWpNlmmDtyiehs73Pw9s9g8xDbXcM0l0IoNG3+EsR5BhAtguMyP+3mNh2bci7V7+9PwK8ZGN9yzGTAVb/HVe+WUT7BxE2cCVmzGmD+EATW3k6z2eDu7oLTqzt6E896w1QJ0jmVkMzI5+/M6s+vsnw1VWSlDmgsYPG+qpu3TaQRYTdSlpY6HB7sMzg7YnRxzN3ZMReXZ0ies5IIqRuTxhFeDCMnjPISlSadB++x+/Z7pIdvQHeZUiw+cySNJpgmmRpuJvBvnx3zL7/7gl5hKaMIp0CUEJlqRwUJjc+rbTCrMEhn1dko6kLnPsGC86Q24u03XuN//Z9+zsHGEtaHNhbG6nR8vOQI6fsFmHlwsAJLFt7ZaJC+v03/+pBPnpwxzAZY2yA2Sl56shKSJEW/bulTCUVtBEfSCeTe8+vfPeS1rU022l1a7TisZsaHUpsoxcQx7YM3SBopk/0drj/6FyZ3l2FQRiFDkpWGcRG6o62//gbp7gHx5i7xyiZ0NoJM3IZUc1ja/SzTgq96oYR4GjGV4/LVtT4vw5RQMtEfjxjlk7CdLEwrwKceTP1mqiySVmnkZw5bTKjoGk8yRqMxa40mz5/bn5E8+oOmU7CZT8jVr0177VJxaWkQ7SWtlG6nTWtri+WD1xhcnnF7/ITe+RFtLSk8OBuRxQ3ortDdfp2dn/ycdO8BkjQpjUUjS2TDoqRimCh8dnzK7x4fcdobMcZC3foBgt6FalcFPKJuqg2tM3eGUAITGSEf98F52o2Y17fX+M9/+y6bK22aVkhFiebCrOkOmvLyxtor4cFAKDqLnadt4Y3tLv/L37/HSrvJh1+ecTspyDEhljQmcBhf4+oZFYyzoYmzeEQ8qhGTLOKDj4/Y7rRpvbNLO6laqFThlxUbpPppTKPTJGpYho8+Y3x5zmQ0xKkQLbdpL2/Q3tyjs3VAsrYNjaVQd5Ik9aIIUom1uF83G466XkaezYcEe9mhcp1FuhsOGGUZEkW4Oc5l6sHoVHIB1B3x6nfJ9BlGsJFlPJnQG/TxazXRO//4jsGlPv46fKuK0LR+7f7b5v6u8mysgmkS2Zio0aKxvE5jfZfW1iHDkyfkx0/oX1/joojO9h7LB2/Q2DmgtbkT9siWBKRqFGYtVoW7Es6GBR98ccSnT07oFxZJ25QaoUSVWri+lmHnBoPHYyglwQdpHREFEQX56I5UHDtbK7z9YIf33t7mp4fLU98sEiG6d63nuhh+d1f+nr0yAEPVYcyq0E5jfvHmNmmSsrLc4ZPHFxxfD7ib5AhJKAwkmg7w+V50Va4CqxargawNC1REHHd5+OSG3yw9YbnT5O3DFZomNGcSNcHTiGJMZDFG6TZi0naX4ckRw5trSlXS1XWWD96gtbyONJchaoLaqhgPkKD8hDAp3dyErFseTHu/1C/XWc/vwYmph54HesMhwyxHbBT2O/rmKRqYejIVT2ZjxllObziqJAizOqaXajKT6k0fc67YtHhTmba/DNmaWopvq4WjSdxYZnllm87GAYPlfcz5OT62rO7ts3xwCO2wO2ahHrWCMxG5CnmhOOfpY/nw0QWfHl1xM8zRpEuUNMizwK6YKnHwvLxJwhgjDvocLbBastQQ3tzb4q/e3ufdN7fY3uzQiMMuxKbuNSR6D8tflJ/8Lu2VAhhT8ycoag3vHK6xvbnG7vpTPvjkSx6fXnM5mtArFWdSPBYndQ+N0HktSMZt2BdIZwMGBE+DwSTj48dXLK+ekC6lJL6g00xZaqakkUUkNBsyaQukID18nXRti5VxFiQ2Sy3MynrIM8ZNsEkYiM6j6sKArtzaumX37P5WadqaYXkByDD33pdlCuQeBllJVgaZslel7uZnfJ3k1Xur//NHXCGkhBV5OHb0hjmlN2F+fEv79vg7A5qpnHHuA2vpQxg7YUEAeaYWTDFxk26zS/eNAqyFZgNNG6EiWpWMkkJC24XrQc7p1YDeKKPRXuLXHz/lvF+icRsbNSkIBYtBPDd1tEIGzytOQdRjNSPWjMR42qmysdTk7f0t3n/7kHf2V1hr22mo24kJSRDmAeW+l/yy7HsFmJrkUw2hj1Q1N1p1HksF1prwD+8f8LPX1nl8dMFvP3nCv352ysRAroYcJVNDQYSaGIkSlLAdkXem6jivGLVIFGGbhutxzi8/vuH81lMOLnn39V3ee2uPg602koD3BQ0pMGkMGkO6HJomTdtvShAVS5ULqcaieql4pWp7CwlNr+ZDnqrpQd1cf+5i3P+HvsSskgeGGYwLwVVygFCoGCZc5GfTElH8XKPreaJWAaMG9RF5Zri+y7nu5eSz3MfXHsc3BpCvjG9m4egsGAu6pwAPbk7xOw1Wp38ggDidxVDznz/lLTzEEURtao9ZxeJMTIGQuQKilKGDk0HJbz454Z9//Xuubnqsb+7RH5VMfAsH5JlSao6xliiyWBvkouoV5xxl6XGuoCFKSwva4lhrxrz52jZ/91c/4yevNWhVfXjr0TJ9XrHBCsxnKEW18tTqE/xuIefV8WBgttoL0829LBCLknZSVt/Z58Fru/zV35b8468+4HeffUk5zmnETSLboBBfqX5jgvQ+1NKoBy9RWIrjFlmZcHzruB1cEbsBnz38Fz79cpd/+Lv3ef+dXVabKRkxMVngaiV0N60FVcGebUFYhzj3pU0wW5WgnpD153wPIcNXWFZAVnhK52eNIOrD0/nQ4g9Z0CyJSfEoZTWOn8n1zT1/Oddgvrvc106smgidfyswdTeVIPqs3hZ2xbYUYnCAjRJ6Dj748ox//LfP+f2TK4YTcK7J+HIM1HVEFoMQG6G11KQ/GlBmBXFkQm1rmWMpsMYT+5L91SX+6s0D/vrdfd44aBEbS2qFsMtV4GrCodrqNOb5sfnzmweX795eKYD5KqtrdMTAcmR5rxmx/j/+jP/4/mv8/vOnfPz5E46vr4EYZxpI1ALTBElQK/jK1VSx1d5ACYUrGfqcjeUtRnfw6Vmfu3/6LZ89PeYX7x7w7pvbtCSlyDKakSe1OkfAwf/P3ns9SXYk6X4/jzgidemuqta6oYHBzACze3dWcY1GM9peu0/8L/lyjcKMRu5d8u7O7nB3ZqBlN1pWdWmV8oiI4EPEycyq7gYaQAMoGK+bVVd1VebJOHEiPNw/d//8WGVMQD7tCWvl6+TrNuyPbcYCjLKCLMspyxKnCZW7jhMuPBC4fYMEQ23yN8Bai2gdLEkzttaqZLEfQ56uvp9tFY6jNFO0OmOy7urUswKhoFYETMgRKsV3Uegb2Duy/NO/fcyj3T4bRyU5bVyMJ32SGDGCMz4vR4KVMeoPqMX+ACvzHtZkNCKh00y5dO481y+scGOlzupMSqeekMaKwGk+Nf5qXU67RhMX/aSz/mPJz0LBVCJApC1OGRY7Ma3GAsuzNW5cWGJtq8+jrX0ePt6jOxySO+vL2MXTSho7KTcQ5fnsSwuHWYnVDXIzYLTbZ68/YGP/iN1BztXzq8w3Y7TyrGd6XPiuxga2TGkKCXwh3zcK9GMDcQB5XpDnJaVxoDwWJsaNQdDpqNIxeaqb4omcfMTGfQNYfHpknEwok3ErxBN8VXH7MQeLt14KgQLY7o74+N42n93d5s7DPQ76lpGLcDpF6cTrKeP8VyiN8Wun9MmchUGrklTlLM43uXFplSur81xabDPTaTHX0DS137DWEbAZjlFiHu98dFzGPbd+ZDkVCkZEnkiYe/JFXgt7A9wSYWknitZShzOzM1xaKdg5OGR9c4+NvREPd7tsdTO62YBhZn1KeEXOg7dmrIoZFAatUgQojWLUH9K/v0u3FG4/PuTm+Rlunl9kqZWSVsWSFiK8VTVO4KqiEs+RBj++oe/0tx9GrDUYa8dFnZVl4gMukzYuwDEt89SRuqf++HXv+JHkqWj6sb8YAlYkk9+NweAQfXIiGAUDAwdDy/pul8/ub/PR3S0ebh8xsDFZ6Sv/IxsROV8pX9oS0YIJtBBKOSIcsSuZayecWVpgeT7l3GKbSyuLnF9o0YrBGkckEI/B9mmMaTo+VikSjt3nTznjp0LBQKVkpv//5GuqBmGRSKALDJUgCpJ2xOrsIq9eXGSnV/Lp2ja3N3bZ2B+wudOnNyzJbEZhKwoIzw/jq1u9Cau1RmzCwGZ8/miXe5t73F1vs9e9xEsXzrA006BTT0icxSLE4pnosT4dWytCP6LnPSlO89Ee/IUq9XMKlZbjr3rqW91Umv4PMbTv/ranv7nanqGh7rFXWoIV5hOmfFJi6Xi0O+Cr9SM+u7fNnbV9dgeGTLUolEISRWQ0kdGogsB26tBJhFEG5yw6hvlmwo3VFucXZ7h8bplzSw1maorYQTPUhVrrFcw0JYXHbV1gg3TBepnG/tz4HsZu6U+w3E6NgnkeqZ6xFc/JUbVR00pR08pnmWhHbU4xM7fCzVurbB+W3F3f5/d//ILNvRxTeg5mXChaE4tTFhUpRNdQkmBsRJ5ZREfcfrRL97DH2toer1w/z9XzCyw3E3SivNsQIkkeZJOv8fJPv0w4aKo2dJ7zMhBT4E2151Ce4jdlFUkb82X9DGQSK5rYoQVQKR9jHb0s54vNjA+/XOfDzx+y1y0xUZNC6hQSU1JFr0JzO2extgSxGDtEMIiUREpxdmmG/+l/fJOWOOr45oEVoYNyvjGdigLdq61slQl/8MTqmox/+vtPLT8rBeMCuz1unOIS2lIQtkCJocABdRJW4oi5xYi5epu7tzUHe0MyU+Kcd3WINFGcYBDKYsQgywBDkmqa7Tm6/UPS+gxb3Yy9D9f49KstLqwu8u5bL/PLGzPMJ4pEgVYahQ6RCnOagkPfU9S4M8J3lelWvc5NAEeqTovyA1k531KEAAG7yf+tVDXLFiWaUZHzeHePj7/a5r/8/iEbXYskTUhalKH41YZGd4I/gJwyKAyKEqRgOOxTq8fEzmCHQ2y3oFlCg4JU+yoTcQ6pinkV/kQMrWPGnEHOgwXmFMzd18nPSsFU4iBwuzrEGMQWKJtjVYmnZPXZAENrvLJRwrm5lIf3BoxshDihcJbSaAojOA1aInSicXjul/5wRJKkHn9IUpRV9EvD7UcHbO/+G2sbF3n91kVv0qbQBGJ8w7fJKT/ZRJU3P+lxOFkYP0mG61PFj08r8a07TJX78m2uEZi+qyI9dxKRejK8/9OKC6TwlXgbpupcVOLt0/uPt/jg89t8evs+6zsZR/k8UpvH6hjRoe6tdOCsT9Srgk7iyTerRMV6LKhyQCQFl8/O8dfvvk5DQx1LIj6Y4AlgPGe0HPXI+gN0u0PUaAZfS48/p8LGnFSdvaqHNWFT/inlVCmY54k2WDyCniqP8Pd3t8m2N0jF0VzqwEyd0jlKVYKuUZMEHWt+cfMSFMIfP3nIztGAOE4oJGZYFjjRSJT40KPNESxpGmHd0BOPE2Ml8Rw1VrE7KPjXj9a4t9Xl4vlFrp9f5PqZNss1aCtf08TYm7f4XjYO0CHVSx1bCscCiu7kPDx7Ul7k2TU7W6fRrBFpT0WKSBi1TEDsad35jDFUCbDDbEgnNsSpX2LTMOQUjDz+zbPv6Nkw8fNvnZOw50RswJgcjrw0Ph1Ca0ogd7C+n/PR7Xt8dm+NR1v7HI0SbDxHQQ2lPCmXq3KHnC8E0ZS+B7aEuKMLkUsLpshIo5yXLp3h3TeuceviXAhOJYgrkaKAUR96QF7AfwAAIABJREFUh9j9XTa++oKDoyMWbt5g/toNos4cqBoEXiJxPIMyuVpTVbbyT+OnnioF801SzZMpLBIrpBiSbW+w+8WnuEGP1uIM7WvnSFfOEdfrvk+xCLFynJtvEr1yhVgn/Omzx6zt9VCRL09wRIHjRRGJ517PswFx4k3SyhwVfPjWEnEwKuk97rFxlHN/45C1sx1+dXmRlVZCp5kQRRNrxSsav12fVaJZUR+GN0wpmR9nUdTTiHajTi2OGYSugTlBwQTFop5Qfk8ZnQNrS0S8kq6ncaBHIKjQikxbnroznlQCx38jz/zLs2TyDjUVaZl+f2H9oeV7Qgu5gZ1ezp2HG3z2YIcvHm2zfZTRzTQFNeqNDi5WvqLfTVSmv3JlCzlERb7nUVmSpoKipJ4q3rx5iV+9coHr5xaYrUdELriPxvmSk26P0d077N75jOJgmywbMpytUawuEnVaIL6hnbjp+3vaPE37t9/T1/2O8rNSMOANv6iy2ocD7MEe+dYGo71teutClh+xFNdoLjdwCRjne+AgUFvqkKYpTkdkHz9g/eAIRQNcFLJWBVGe+jnPR4AQxzEQ+TaiAg6NKEFHMaUr2TkcsX9wxO7GJkfbu1xZmefiuUWWFpq0ahGJqsxjVfGehWLr4yEZORamP27f/NAieHaJ2VaDZi1m2C9CMH/KeZvCUr5uZILDWUMaC7OdBjOtxqTX2MnN4J6isV64VNGUwFvrY4a4ijRefFlZbiF3mv1BycPtAz6/t8nnX62xddSnm7nQujjBSUxmFLGEtEvhePSz4inCejAXRyQFNSWkYnj54ln+w1tXuX5+joaGuCryRSHGYA4P6T+4z/7nn9LfeEgzssSuJO8eMOp1qTvAVe2Op+XrYmQ/nfysFIzgq0PrsYAzkA1xR0ckoyE1JXQHfXoPHqHjFEpF/cwF4sQ3ztCSUIhjdT7ll29exKaa3733JVs7AyBCXIxzgg3pnPWkwyDbJ45iPNg5OYMBTOBNFdFYF7N1OOIfd+5yZ/mQS1sDrl9a4NLZWZZn67TiCE1E7GFAlCvHBZiVVJwkE+Xy4y2VSmnPt5p00pidwwESN1AhnjFxbULU+msOQm/fGYSSxZkmSwuzE6tt3Kx7UjTpcD888RRVP+gi/ByNVX3VUfFwYNjYH/L52iHvfbnO5/fWGBWGRnuGUvmWOEnaIIpTRllW3exxo8CFLOYQ0ne2QOOIdUHdZVxdafNXb9/g4lKLhjhqYSR5mZNoDd1D+l/dYfujD+iuP2C+GWFsjnWW/uERzcMuc6XFRZ7R0evsyhWaDEm+6RT4EeVnpWC8PWqhNJAPYX+XYnsTukfMNlPqqkZ3OGDr08/IBiUrN0o65y5AvYlOU4qsQGzEcqfGn711iWarwX/+X39HUY5wVmMFCqcoHehYM9teoDfqIoS2KGEM1lqstaGtaYSOE+K0hXOOh4cD7m58yR8+vs1br17lz9++yaUzMU2tQUXEYvFtzkNK9zfSIvywUn107GCumdJOFdrknhZgTNo4nW5+Qo4tZs++HymDLUfMtlIW5zv+Cm6y8KcjS99Wvu3eGfeCcAE4BSqK7NzBwFgGheGjL/f51/e/5MN7Wxy5hMbcORJjOBwOSJOUZqOFiGI0GlHmBSpJwifIsc+yNlBeYqjFGkWOGxzQ0Ja/feddbp1r+Q6hmaCTiFoEtchhD7fo3bnN7mefkO9sM5dEpDj61vg4Vl7gjnrQ7UGthbW+OHjiAE07fhNr5qfWMz8zBYNfJNr3Ci4PdklGXazLkWFOKganhBhH9/YX7A5zmlj02bPYfEja6oByPmyYCG9eXCD6u9/wj7/7iKPBgNwYcDGCxhqwRhPrGIfnYIWJqR9pPUbtjRFKoymdRnRC1KiRyYg/ffaIuw/WuXFxiV+8doNr59osJcq3/xSHtY5RnpOmCZOlctIR+eEzaxTQiuH6+Tlu35vh9oMNSjEoZQjd1cfj8Ypi2ic4btEoLGbQ4/zSLFfPdJhPfOfLqt2GoyI8n0SnxlncT9kNTwthP08cylgzbgFjTElRjIhrEVY0pVNkVtjr5nx6Z5s/vP8Fdx5sU0RNaCwSS41+obFWoeMO1kF/UIw3bBwlU/fsxvfgrKUsDfV6A1uOcHmXRGVcu7jI3//Vr7i8mNKJhRQJeJaDssTtrrP+wftsffIJab9PG0dkCqwtUKokVgozynCD3ANGRYhUASISSL2PT+FpUC7wc1QwAK4AO6IcHiH5kMSVnn9ULCmCdoZIIvprt/l8sM/qL37F7GtvIlISi0I57xJEDUXtpSXEvcL//bsP2T4YEasWSELpHBjf18aKw4kJ+6JqvVlxzviwiSPCBv6wUgFO0CqmXxR8dGeDe2ubXDu3yC9vXuHq6jzzjYhaLLgkoXQKLWNu+h/dmxbAltBKFReWOyzNtfhq5xDdXkI5oRzzTD4JFMqJn8VZnBlx5exFVhbnURJ6Co21CT/KrSlRvvUrzlsU0mQvz7FRzO7hgLsPtvjsy3Vu39slszUK3WZYxoycUGjBKoUKHNDiggXEJJrmrA8nj907n9qD1uFAMDmpGnHrwgJ/+fYNrq3UiK0jMgbtSk8cno0o9rbY/uJD9r78lFY5ohFZ4qLw3M2uRCtLgsaUFjXIcP0RsuBb6zg1oSs9DcrkafIzUzAht4ICGJGNDrHlEK1KhNL7/04QSuKoRDnhqFuw/un72CRh9vwVVHsOFcVe60egoog3bp1hOLjKnz56wOO9/ji5yliDaBAxOEyIKAGhA2UohaOqsNVUbUcBFMZpcusoSegfDTnsrbOx3eOly2d56eo5Lq50aNcViYNUJPCwngR7n+ZIvNjlJABlSRopzi3Pc+XCWe7vfIlx1vOW26eP4unXcizNzXDr8gLL843AIFoBrfY7u0bfRqoSkmrvGwdDp9i3CV/e3eSLO494+GiHvb2M/lCh45RSxRSlw5b49aM8lw82PBEnY+VSgcOVvze2GkSTpglZltGKI26eW+GdV1a5eW4WZS31SFClBVNAOSLb22T3sw/Z+uxDWianDiTis3wdBsQQOQfWUhiL7Q8pun0S5xA9yWSHKffzB57bbys/MwUDVCFfm5ONepTFiFSsfyBUyUcOZ3LSSNFQcLi7weMP3kOspnNeE83MouKIyDmMFCx0It5+9SLWGNynD9k46GOpYW2MU5oqR2XixPhsTUK/64q6QTmf9xJ68lEa370vilKc0vRMxhePj9jpljzaG3Lz0hleu3aGs7NVxfake2Hlfvmf7QmV8uIVjHIWY4WF2SY3r61we/OQr3YzXBz71wTSIutkCo6ezmgZd+PmlVuXuXp2jk5N47ntAg4iFSIyubcfQhxCbgxKfOZ3Nyt5sNfjDw83+OzhDuube/T7BnEpJHWcrmNt7AtpjUGJB+K9cnkG6F6B9OOmaw6tnO9UQcG5M7O8+dIKr16aZ7GmyEs3rlNzziJlzmB/l827t1G9Q5q1mNhaKAusKQJG59DWK7XIWMrBgFG/S4INXdlC+xKC8hvn9Jwe+XkqGLEUgyNG/R6uzImnyCkd3lQtTYkFYoloimXv8Tr7M8uk7XmiZgeJI5RYtMtJBVbnUn75ynmcKcg+vMtev4+TFk4SyrCYXKjG9lGlqnVtUArOo5hVspw/rxXGKUzuUDohTmsUKudxd8juZ2s83jqi2y14++Y85+dazNY1ScA0RE82oGOyiGFSef6ioi/eKPNqMUkVZ8/N8tJLV3nwr5+RO4NzzieVicZYn9VTuXOqAt6dRWthfqbNy7fOM9Ouo50nC/NuJmED+AxTeXp22HcSay3OgdIqHD/C0Pln0x+WfPX4gPe/fMg/fXyHno1xKkHpJuIijNHEKkJr38fZmQLrSsBMOldUYw1KtlKojL87b0HbHClLLi21+eWtM7x8aY6ldkJNIEoEY0IxrAAi5HlBt9vjbC1BlTnaWUye42zhffixs+xQzlDkPQb9PZrlAE3N2y7VfE5xhPw3BfO9xXK0vs7g6ABdFiTKP2LlFKB9oZqKcc7icktMQUcn2OEAZ0x4KL79uGdet6S65PpKCylXGfQO+fdP1inLGpGuMbQG44xfRtailQZRxxjrJ+TRXkNUjLaK0I4Cyyh3GBIkjTHOsnlY8A//8gkba0u8+8YVXro0w0zTN4uvaV96EHo/Uhn+PiFPj3/7IvaoAyT2+FFWWDILM/MN5uY6jA4GiAvuoQqdjZxXcgHiBmNwpiSKIq5cOIsrM3ojTSeKPb9XUCje6ptYYy9KQZrShOeSYkQY4RjoiN1+wWd3d/h///QVn917jE06GBX7iCHBxVWK3JTBYhCc8soq+EVhoJW75V8jziNuQAi3G5TLiVyPhmT8xes3ePfVBZZbKQmTYkStQZT4Cn6TIGkdqTfIRyPAl70kDgyeOLyiJjVYRBvyosvR0Qbt3haNdnvShuT7Foz9gPLzUzDWQV5SDoYo509Qa22ogZyabOs3hManVCvl6DQbxGnizUuCUrK+IRhiUOK4em6BKH6Tfqb5wyfbFMM+Vsc4rYPVYnEo3+weh8NMgDbHCcBimkdMgfLgXF5kZFmBEU2czPDHTx9y78FD/uKdV/nVW1dYnU99WrmacKxOckmYuv5Ukv332KwOf2D2Sri3fsS/fPSAD+6sU9RnEbGhgbqP3PkFrcZRoUgpdJxgcPR6fd7/03t8+m/b/Me/eZuFN68TzdSocnyqvj4v2jXSsc+YHZYlJtIo0Wwd5vw/f/iCP336iMO+otALOImwLnQGHbtoYTSqCmdPiMHVMdrJaWcwLC9XqSlDRMFcK+K3b7/CX755gblaTOr886vyhyC4mkrhooio0aI1t4Db2MM3WvPdUpyrsronecFagdKWshwy6B9RI8eFQ3ISjvsBJvd7ys9LwVSY1ign7w0QG/xaO9HeFctX1Sis6uljBdoLsyStOijBOosd8yOqkNbvF9/yQpu//5s3KOUef7q9gRNFbhzGKNqtFr1ulySqfF8mBx08s/9vVfCYZ0OUEmqNBhg4GmXUmgv0VME/vHeHzWHGb3/1MhcXEmZSX76fjBeQB7G9EgsL64lFdZL2+vmkIFBAKo8X9IYjdFyiVSh4sCWqKIist/1s2KT5yJAbH6lJ0zZ5cYQU3u4SEaw1WJNj4+QHOWT9ZvfFmQXQHZVs7h7xf/7ufb5aO+JoGDHII6K0SRG6PnzTvHgP5mmvCSFpEYworIC2BRE5862EN68t8HdvX6KlhcSZUF9fQf6E737NiVLUanXm5ubobxz75FAxLeN34BRaayIU2ShnuH+IsgZRNsDm4b2nkDrw1CuY47W4DjEWhjm2N0DKqU0epHJVqgfqexP57o5qpoXUUn8IO+eJhKiS9wHnFUSsFcuLLf7mt1c4yEfc3hpQ2NSX7A/7JLEOjckD9lNhNBPj/6n3IhCoJA2FAXExxDVyLIVEZMR8/GCfvPyUv/zFda6fbdJM/RsjBBVatOgXvFE9LOl1lo+yWso8Q5c5sfL3ZsucqMxoOId2DqM0RiJiHTNyjsKWRDoFF1FXNaIoGm+Uqtr4hxCHVyyF+PbP6zs9fvfvn3D34S69LMFJEx3FFIXz2vp7a7lKyYByBi0Fzdhx/fwsf/bWVRpRQmyGRKLQyufdnPxEEe37YockzWA7MeVzM4kg+p+VKCKELC8pDvtIZiCZwEOn1EM6bQpmShuf+LUv7nKeG6M/ojwcQFZ4BSNqHGmp4hMKhROv3w1AoqFRgzjENJwLprL/PIcOFBAhdV4rLp9t8+s3LzN87yF3N3tkpRk/TFXlOxx7sNNP+in3IKCUZ9TzwQFB6ZjCOpAIqyx7wwGf3d+ioRX1+AYXVlJULON7OpZm9sRh/N1X2VgpW4OyJamyFP1DEI1SQlMLq2eaXFmaZb5dZ1gqHmzs83i3y87RiLKEYmRJI0OSxogIxvoTVqnAeS9wjCz9BUgF6nYLw9pOn9+/d5tP7mzQG0WU0sCQgsTYUBs0PWEeZnFT/+H5pjC4jS4bkEaGWxcXeff1C1w+0yYxvt2OdhNcrjI0q8tXeJZOEuqNBnvWYIzF2nFPgPE4JQQOtPj2K5KVFPtH0BshM83xSyvD+bTpmVOmYI7L+NlXBWTWQWkw+0fY/hBdePIDkcqW8DKtaJx4wuqk1UCSOIAZbnzxMT42Ju6e4B0J8Nr1MxyNDIPRPda2jojjlKwoEZUCOrgKgQzoa8C2CrEBD/Qpp8FpnPMV34gltwWKiF6e89GXD0g0xO9c4dxCgzgKIClTG+IJ5TIN0Dz/Nq6mREPI0RiSuIxilDE3N8/iXIdzi22ur8xz/ewSCzNNBiXcfbDJFw+3eLB1xNb+iL3uAFeMsJJ518g5z/PrDBIl1RN57nE9j1hgWDoe7gz4/UcP+OCLdQ77GquaWGoYp7EolBbstHIOMp6t5x6Wjxi5MiNRGdcvLPDuGxd59coSTSBVDu2UXwtOJq12x88r/KAUUZrQaLfQWmMyEygeJjhPVdOEC0egA11YzFEfd9hDmrMQVaRdjA+x06RlTrWCAQLo5oL74rBlyWB7F50bIqemgDg5/p6pdHanhZnFeXQSUXXom258Nv1QKuXk+w44FhqKt19aJc9KbPYlu/s90ij1zO5KMBLhApSnmYBzz7wfqcLOEwDRL44Q9hV/1h6NCv7xX/6dVjui9volanN1YgXHu7dPXXc8C9VPX9+/e1oE3zIqEkfqSuoUdBJYWZrj6tVLvHzjKpeW28zVHamzYC2NmrD46hluXl9mfT/jq0e7fP7VAx6treFGhc/r0QprDGWRkUTJN47j24rDYZywc5TzwZcb/P692+RFitU1DDUsMRbtM7Ff2K5z4Eps1uXSxUX+8tc3ee3yAi2BxEBkgapS+yn9ldxYYwgSx0TNJu12G9c79C13UUD5BFbkrEMrSCwUI0N52CdangQUTpFOOSanXsFAmLww17Y0HGztogpDHBKXrLPYcWQoKP3SessgVkikmT+zjE6TsSmpmOKKnUQj/d/ER4c0JTEJZ1qK3751gbqy/Of/419wsabA+TwXiTFEiLMIJcfRholFMenUqIIykXGMwKfSG8RliGQoMTidUEjEf/39H5lpJbTrl6g1no5ljH14qt5NfCtHRICadrjc0NRw/ewcl1bPcOv112jUhWbsQ+YUBc5lJInGScygcMwkmtnVlKurZ/n1W8vce3Cd9//0AfOzHc+kb0qiyp0cf9rJ7XCy3moyb6oKBx/DuMKrHGSF46sHW3z8+RrdYcyojGi3ZjGlwtrAuVz1CxfL9w21CI5EDPOzKX/7zmu8fHaWjvbFor5Jn0BILQx4LkqmHdtqsQnEMbrVZHZujv3Hj7yCEW8JK5EwZp8O4au0IRaFyUuGB0e0zPRV/xvI+61E4RdQCSFb0dfAWpNjsz6xGCLlWzr4RLCTmIcLDe0jrCREs0uIqmNdAuJpMxVT3QuD+KSmsGXF++0NEdKm8M4rZynMX/A//+//hbgTISqGEOIWCGHzqvHFkxvCipqyrCqXzFMJKFciYhDnUEqj0xpKC9vdx7z36R3OzNaZvbZKLKBUoKIUzcl2WpXdMpmH55vvMh+R6IgrZ5dZPbOIESFOfE+gSCDCouJwR1J4V8qBuBSDI3bCXKTQqzOszv05882YdiTEaGKpVF+4Z3dC/R2L80/mxj8DzxInwb3yT6aaNWF9c48v726wsTdCanPoQjEsKq/Xb1KnDM9L1enzWqrxeOpP5Ww4BHxi5kzd8bfvvMHLF1q0UoUYG1qyeo0yxmrD9YRxZsTUfXs7WUU1ktY8OQmFiogQnDXHx1QZPdVBZDNG/QOaJkNhsGO+Xn2Mm+Y0yKlVMOCfrzWeHVWJRYoedn+dMjsglgznAr9H0NwqHE4OEKURIpTUSJvLyOwFUDOIqzEhUA6dKE7oJq9khIgIFXohGYH5dszrt5Y46P+Gf37/c2xmUFENpWO0KKIpINHi09THJYyVZyNPnuZOEcxpPXahrGisTpHmIvd3+6ztd3mZVWJnGZohqa4DFWg4AafH4iqcaerEFp682SA6ikEpUoRI+VosrUoMJQqHsjky7GMPj+gfHuJ0TGNpGd0UIuutSatiGrWIvBaHDHo3xhXGTerC96eO4kQ2qnMVMBSytJ3xVgkKp2KMCLcfbHDv8QEjF5OrCBtpVEgEdJXyH7dLnTzfMJKpqakonEJtmY6IanX63S71KEKREZkh8zV47eIiv335DIuNmFSBdqFuqQJbRMbgLsc+efpe/YOTpEGyfAnX+ZJ8OCC2pddGqurFFPhyrCe19wECx+7ufWZHL6FdndB93d/HKTNiTrWCATwehqCw2GxAfriDKwc4m2OtHUcmxr5ope2Vz9VAJ9Q7SxDPgKtBaILlfekJ4bOHN1ywfMLnOh2WnAtuhLAyl/Du2xfZ6x7x0Z01SmeJdANjJqDyBNJ92tKaqAE35Wd7p8krPiue4MhJhCRtekWPh5uHrG3uc215BlRKFqwXb5BX0ZkJ1O33sp1ylZ44Qhm/0FVntgFn0a70lBZEiBlQDnsM9vcYbGwxWt9ieHCESyJmVs/TXFikPjtPMjsPrTa4Ag0YfHQvCma/P4GnPnN6CPI0hVNFB8FgQuaw4EQz8mza7B4W3F0/YPtwRKlmKdE+MiieOsFbl0G5TH+AOz7rxz9WgdKUTsiGI5I4JpISRkM6qeHVy0v87a8us9pOSaRaN9MW19QNTltqUxjf5Jd+farOArRmybOcxJVEoSvm+LAMes86r2TEObLBHmawjyvnEV0LfdOnZ+90yKlTMCfWQeC70EhZYIZDBgcHYAqcM+FsniY1nmr/qTxptY1iZuYWEBXhKRaOn1rh2Y0X3PiUd2HhVNGl4Cq0E+HiYspvf3mF4aDHo50epSuwEo8jFkHrURFmP+0uq/PyGEOc86F1b7MJiB+vJWV9s8edB7sszszhiohmS2FVBSd6jERcMNXDdatkOK+AT+QLTf0waYRags2QfIQUOZiSwe4Gh1uPGe7sUuzsY/a62CyHKKZ/cMCw3qQ2O0/n7DkaK2eJOm2iRoKKvAUpTuGsQtD40vQpO6sqfhw/vxNuZdhZBYYCn0qQlcJ+31Crax7sjNg6KhiWYFM13mRubLlVDhXHnsOzN5/glMKJxhjLaDig3Wmi8wHt1PHKpXn+7I0L3Dg/TyKTua/kiUc9bTiOfzXdGE18/UC9QdxuUxxsU9qQK+UCBlNNA1VbNe+yURYUvS5JlqETf4/WOeQkVPATy6lSME87XFXFv2Kg7I8Y7B+CqbCAp1/EN6F35NYisaaxOBeKx6oL++N0XEd08nOnLj7t3ih86Lqj4e1r8wy6l/nn9+9xb2uAk5hSfO2wH0ewhqb3C8cX4Um48RjTWxiDcgpczMFhyf21AUtzAzbXtrh2pcPiygz1NArKxaGMGzv9VnsCi7GCkels0urTK+VSgsmg7GP6B5QH+5RHh2Q7OxxuPKa3u42MMmrG0TQEnMBhj/bo72xyuPaQ4tEDijPLRBfOEq3OE7WbRLUGqBRrI7RLIaqBiiY+XWVhhGdW0XJPPxGf56LJROgVwtpOn8/vbLKyssjmRo+jHKyKvYswFVGZttuel0KyajFiwiTVEkFMj8T1uHVxid++fYXXri4ihUGSJwH3Z5VrnBxPeHGYBwWNlKTTpKeFonTegnF+4DJN9iWCdoJ2EJWO7KhPfZSjm+CUYE2okztFcqoUjJdqi4VtUKFWpcUMRmRHXRI3SaqbjjiMryCCcT67UycReqY1jRsyOdImn/P14wkPGD9hCqgBf/XWJV8D8+/3eLQ38q0pRIVK4W+Hto1D5SEPgoqxzFnExYwyWNsqsH98xB/+9XfcvHme/+6/f43L5xdIo2iMeVTDre7uOOg7rgVHnMUzmZe4YoQ72sEdbDPc3OBo4zG97S02791nvl5jvpZQjzTKGWxRoKIIh8UYRT2JMUoYHu7weHON7PMPqF9eob26zMzqeRrzy6i0hajSj0/XfLglRHXEVeTiCkLIv2LVcUCBZ9UbZIYHuyP+8Mkj/uG//oHLV26iRLE/dBhJQ8OzoDS/M9DpI5IGT7sw044pDjc4v9zkz39xgVevLZGYkjLPIW68GD9ECaQJcauF0ZoCSEIC6PRzA/9xGoit+HB1t4/Ny9Dx0Z06gBdOk4KZnhyZYP7O+D6+DEfYwz7ZQZcGcuwUnoga1x6VWHS9TmNpAeZmA2fjd3kClRsVKBmcw4miFK9kfnHjEkq3+ac/3eZPnz0kbi9QbzSwzlFaF7oZBrJImTrlplwjkcrKqNSmeF4bZ9HhkC9dwvrukJ3tHml7mQfr+/wv/9s/8eu3r/HOK9doz7TDeO3UqEMKoPMlFopAIKUAM4JhFzfoU2xt0v3iS8z2FvnhAcWoR80ZbjabxM6gsxEqM34DK7AUWOsrq53NMGg0mk5NUSg4uP0l3ftfsT87z8zyOebOXaSzehHml6EeU9E7ALh8QGlAdIpK6oH7OLi3+DKzw1HOv396j395/w73N/s0Zpe5u3HgG+OpGi4VrPn+u12cQ4tBC0QUmMEhs8mI//R37/DyxWViHFogaUSBpmLixn/LT/LfKm+6FtNZXuSgWcdmPYwYf+PB1RMX1l74OQYSK/S29+iMcuIsg0gT15vfcKz98PSrJ+X0KJhpmTqFwYG1MMqR3hBdWFRUHfeVdTGxZ4CgoBySRMSNGsS+gvXY0f6ca8KHy4+HOK2ziPjE/aWm8MblWWx5mf7REWvb+5iyR1JvolVMbn0yXjWwSdZvZV88bUkE7Mf5mieHUFhLYR1Wa1rNFlmvy737a2h7RIeC2ddfYr6Vjqs8K4dDrCEqLZQ+DI5ykPXJdjfYX7vP1qP75Fu7zI8MzaygVhbUrJ9zLZZIuXG1uVE+4mUrkBwLTofKasBpYmdJopgSwfT65OVDNvf2uP/JxzSWVpm/cJGvAKlNAAAgAElEQVT28jJRuwVJjMSaKI6gMIgJSkwCnxIgollbe8AnH3/CowdblKqNiixR2qSfWTJT4FSE6BiY8AEdd7SeTwRLJAZncyI3YLUT8fd/+9dcXJknUb72yOfSyLjU5HuLANYSN+vEzTplVyiNr45zoo6diZW7J/iEvlGW4wYDVFH6NV5d7vuP6oXJ6VQwU89NaZ9nYIYjiqM+qrTouDqfKxU0AW4J4FgJxElM0mpCFHkwbapL+JhG45uG4qp+OhbEN+WogBXBd5hcbWmS6/O041f4v/75I+492sC6ITptE0nqwVbRvnqbJ9Th1G27gDMLVkKyFiUAhfO0EHGk2B/ssbrQ5tz867x2bYmrV5dRScTIlCSBqMorF4cqje8W6Bz0DuhvP2Z//S697XXK/gF20KNZOmLrN6itBqgUIlBiQkHdpOxiDMqGCQwqc3xfiUT+tU4os5wiL8iKkuHBPrtbj8iXV2guLZHMz5MsLCCtWSgU2AIhQinP04PydUbLS4v8+q03mF3Y5v5Wn8f7hqOyxOma51ah2nhunF4v38FfECyYjGZsuLQyx1+9fY3XLi3STiS0YnFYCTw/7unP8OnXfdZvPdZiXYlqNUhn2pidiLIYeojGMTWrXuNWlA6RgB1l2F4fV5aI+vGtk+eR06NgxhhE8CfD9lIiCIYi61P0j1Bl4RuDj50AL5PvHqgrUcRxnbjRBh2B0n53fOtxOcT58K3HCfxnVLQQyjkSBbVOTOfmCnFZ8G8NxZ21HQ7zHi4RrPMtYxUCMg3CeXPKiYOQzFWFZquqHRcSt7ySsqBK2m3Nr9++wcvnZrmw3GG2mRC7EnEjJPDRiAGxFtfrkW0+Ztg9JNvdZLS7wWB/m3JwiDIj6q4kVTHKGq88VTDJEa9MqsVd9fohYB2ucuXCFxUZlgt5J6CsRTtLjKfNtPkQsz1g0DtguLmG6szRWF6meeYsaWse1Zr114xASUQElEqxNNOmfrPB8pkzrD4+4OO7+/zhi3VU1MA6n2ypFVO5KNXGnNzLdPJbNe9eMVauh0NT0E7h8tl5fvnKBd66vkpLWRIxaGzoAloB0d9yGT3zt4rSQtJoEbc6EMUYC4lSYSVPR53seI6VU7g8w/QHXsFMWVPPwiZ/Cjk9CgZOgK9VPKFE7IBisEsx2CEV37OnIpA++ei8ZaIxTiPpDHF9DlzkgYcKexWOPbbnGljAR6oaJhXe7AmhPIVBJ4LfvHaZ2VaN9ge3+fzRHnujEmdGSKworMM468ci4JTFBqBTYdBiUeLDuSbY+g4Z93t21pBoxy+un+Mv3rjMSicmVr5uKnIWZwvvUvUH5N2MvDek3NuiWLtHf3eDYe8QKXNSZWlQepDXlEjpSaadJD7M6SaKz47dyWoOTk5Nhfm4oISnrIcQMldKqCtfcFiUlmG/x6jfp9jbZ7izS76xRW3hDMnCGeLZeeJWB9Voo5OYSBRx1CBKNMlCm2arSdps88X9h1gKj+Q7EBeN69ImFmKV5RToTkUw+CxoHTarxmDLjEQpFjs1bl6Y5c0bq7x0eZm5CJR1xM4xHf0VAhmV+y74y4l1hUakDhJR7yzSTdqU5gjtLHpshXkgripDM6JwyiGFY3SwRz7wmBnOW9lPX9ly4ncvAqH+ZjldCuaE+PZYI8gOyI/WKfvbNBIDLp94RON/JynzBgVJA91eImougtEhciHHIBu/b75pon10I9gt/jdTjnEFvrnAtNesCa9cXaHeqDP7+Rof3F7n8cGIXHL6ZYZyEVZibKSw4rDilaU/9QP46RTiSlywZipMQWGYrce8e+sCF1qaSLwCEltgsy62t09pC+z6BkePNulubGG7u6SmS+Jy0kpxmyp64yZcLQ58N+rppResJpn8dkIubccL2klFJVldanKFcazOad9TXISaCDEKYyzm6IB+r8v+w3vE7Q6txQVaK8ukK6tIZwaJ60Sts4hKSa0wl2punKtzfrFGtjekkaQUhUZZE5SATNoAj5Pz/LMvJEBU1njeWymIVYkiY7HV4q1bK/zZq+e5vtIiBL7RKuAg415OoXThhRgHgkhMEs/A4JD27CoHrQUKt0VUFkROfFdJsSgpQUqsBhdoYXXh6O5sUt/bobZ6HqLAfzjGyOTElxt/7v9vFczEsAvgossxo0Nc1kWTEauS0hrPbVpBWqKCU6X9u0RTn5mnMX8Gag0qmkcIe+NbzW0FzE5WlHJPwmiihCiOyPMSncRcOjdDvd1kbnGBP35yh6/WthjlGa3GHC7WjJxhhKHAonWg9iwdtrBYctARioiK5DyJFDUds9BKObfQIVFCYUpPbFSMKA93yTcecf/D93C9HjIqSJ2j6XJiOyRyhb//KrLlJhiWl6n6l7H2/ga//kQKvn3m+ybPSRxEzrdMxRksihJLjuJwc43e7mOSx3dJ2m1qC2dYvPkaUdomrsdoHXmOW6t59fo57v7+SwQhilPMyCE2EFyFoVW0nuD5VkyRk9YjkshiRn1s1iVOFa/fusbrt65y48IsZzsx9WARPnkP1e1aRF5wvokkENVRaRMV1yCznrVO8OB8cJGcuGC7ayI0ZZ7hsgEUI6jVgh5RU/rjx1MmT5NTp2CeOPtKS9YdkA9GKPEUAFXN0TP9G4HmTJvm/Jyf9Op60xwNL0g8TgLGWrIyJ00bKOXbknZamjduLbK80uSzO49578PPWN9cp99zlDpGxSn1pIEiBqugBGfF88WIxeFzR8Q5sDntesTl1SXmZ2OUEmJTYoZH7N6/zeYn72N2HqN7h0TGeBdOAgeKsz/lGjsm041ACApAApPlfJpSiJAPcopsDwq4d/hHlg9zOpdv4lqzFCpmJqnz6vUr/MOH99k58PlHWmtsWZJE3tpUzowLZHEFWgzziSEf7CM2pxM5zl9Y4JdvvMTLV89ythN51rhg/TiRsav3w/fOxkc504SoWUfVUspihEb5anCq/lsRvsot5MmIw2YjzKCLywZIq+0Xo4KnhaS/G5nq95NTp2BgCqRyDgpL0RthhlXD8WCqu6peedJ01Ya/W4SoViOqh6SucNHp8/aFTXDlPiiNxClDa7AWnFJorWgrTW2hSTM5z42Ls9y+v8G99W3Wdw7YORhQ5IbSRiApSiWgYqwoSufdJ+UqUumS5dkOt66e8+UOZYGmxAwOGT2+z3DtLh2bU7eZ738daURrlHVIaXH2BYVVv5dUTMkE5eLBSgHfWjIo10iFYtEsp7e7zq6kxK0OzUaDJNKIgpXZlCvnltgbbTPMS7TWlGXpQVFnPZ2lK9EUqPDVrMcsnV3i/MoiZ8/MsLxQZ2W2zWw9paH9clNSnV0vnhzra0UJxBpVSyCJKBUkose8xs7qY+ejBiLrsPkIOwwWjCupOPFOi5xKBQOVr+/AwOigS9YbUCPkoODGBglwzJJx4luLSC1FN9IQQw1l9OGlL8Z/PjZSnAhKa18PEnIkBA8OxpFjZSZlZa7GUqfB9Ytn2N7vs3swYpgL/UxhXMTmXpfH20d0R3mIWECeZaSqpNNUXDrT4vJKA6XAFQYpBhS7W9j9HdJRn8Rm1KtcDqOwgQZUQobvMZdImA6rPPPewqzi8YLvOnFTqn2ctz+pqlYOnPNJbFhfnexwmOGAeuHItzfJd7dorSwT1VKczUmd5uVL5/jq0T7DXoaKfZMXUQrKHMqMixeWfaaztmhnWJ6PmG83mJ/tMNOq0UgUifhNUEF047jZj5kW6/AfHmlqnRajTovyaM/TMIjgTJXpDFQdJhFqUUw/N4wODxge7NFYWAIdc5qUzKlVMOB8NuMwIzvoUg5GgHdFtPiuAMdSqZxnarfOQaSQRg2ppaCqArap7GBevJIB501sqWikKlfAb66acoDibKfJUrvJaNUxzBzDXBiVwn4ffv/BF2xtbSO2REkcyooMlBkLrTkuL3eYbQTSb+twRz1Gm5uUB/vUbEliCiIpfeW5E7AVzWbVgfLEqL/RoBnHfF+AnJxwF4oTq9anbhyZ84yEBlcamjqhN+ox2t0kO1ilXq/hYkeNBrdW5/lwts3B3ojcFIhyiJSIy1FuRD0quXy2w7VLC8QGFtu+KFTJpMC1KlisntUkF+nHUzCuOiwjRW22TW22zcGGUBpvn7uq9KRKDcAiKJTWxJQUvS6jg30a+QiSBhOFPv3gJsxBP1xPzSfl9CiY8fOcAlcc2P1DbLfvyb6dVzBqXOszFe8QX4ValpZavU7cqEMS4ZTgxPOiWZ7cK+Ke4yD/hnFL8JKPu1+Tk6a6HyV+QScCqRaaNSGPwURQlhZX9LCmSxTFwT3SNGoJOs9ZXWhx4cwskQubw0Bx2GOwvUd+eOQzaJMIygKcz59QLqg5VzVt+5Y3KtNe+4sTV0W/pnJmfOfHSQKlOM/Do5QjIqe3t0m8uUZtto0ooZm2ON/RvHL2DJtbQx4cDtBxAta7Q7GUjHr7FIMDFloL1IDYQlQpMipIblKlXEUEf0ypaHsEAa2Imw10u4GJfPtbba0vnwilA2M3yQnKWmIgLzLMoAd5BuOVDsct0GlqsuenU/2+csrS/4RJiq0HTbLDQ8xggCs92GVDbY9XGv51inAqKcFYR73ZIm74DF4nVS3QDzViv2AjPG1i5CbfVUjyEnTIOFXjUzMVaGqYTSB10NQlywsJZxZT0qTEFgMP9NqSuZkWV84vcHapibI+uc+Vlt7OAcO9I1xeevdMK0qlKNWkiloFMqSTzH0npZr2ycvcia9vLxUAPpmr6c9zWOUw1ZfY8Xcnnk3QiUW0Q8TQ3d/haGsdO+wBJeIsC9rx6tkVLi8ukCqII3DlCIWhUVO8cvMyr9y4TIK3XLzzYJmQalSkTmH7iV9XTtQ46/oHlTC1Y2taK2jWkVYTqzWZMRTGd9X0NVqeDGtMveF8gqHNRxT9LmRDTlehwKlTMEHGc2SwRQ5libI2VI1GGImw456HXlTYyLkTokYTnaT4/BV1DHs4yab2vayX6nrVFw5tPaZQpZKPeX4dns/JAKXzX6ECQZdwbiHh7/78Zf7uP7zBpcUmDPZJzYDicIdzix0unpmhqUAZ5/lfywHD3Q2ifEQnrVGLUkzpwvYJtBEu1H5/m5uUYGFUHLbi65CQEsH4gkns+B6fVkM6fUaES54w1kPQVfxXqULTt+nzpRJrSUSI8gxzeEh+dOQ/0AwxmeXCmRq3LrZZacXUsz5x1qPBkP/hr9/hN2/fZK6hqeFpNqrx+zEFrGzq+X3vxfAdZPLZgItB1UE3capO7vBgP+CcQqa+qlSASASKPFgww7Glj3W+UNieaHPz4xpop8hFqp6tJbTOtFCOODjYpiiGaAks7eJZ4qvGZ+O3CpTO4uop9ZVV4vYCSB0h9f5q5bhU4GZIRnq+yMrXxMTDn8Z/VWMGFuDECa4IxYvVmP1rkxgiBQtK887lZZbihOX0K/7w3sfMauHlix1Wl1qIM6hyBEUGB+tw+JhoeEBsM8SViNPgQId+2OM6lvEYJkBr5cZNcKzgnIytmCpK56Z+nqo4msp1Ge+PY5G6ST6Kn+pJHlL1Locb/796DhU7oSe/VqhSUVMRLWux3R69rS1qV66Q2xFx3KCZCBfma5yLDUdb9/jNL9/kN+/e4sLKAs26DpnOQAjvUjHsTUUIVAWyjuehGpN64ncvVGTqy2kgBXE0WivML1xge/8IJxnGWqKKiuPEvCklpBjoHtBfX6O5ehmiOs44jHOgLJHSTyqXH0mXnh4FE8RRKZgShj2y/iHOFFPdOhQ4GwDCkKtQMZ85B806qjODJA28URwdO0GPn6bfZpa/5rUBP5i8bDzS48+02kQyfiHgIxgqfE9rCcnZBeK3NW0Nh6M+11bbdOoaMQXa5riyx+GDz3G9XaJySOS8KeQ3p8a36ArK4Qm3Z/qTAwB1bDyT1wiMM4zH+SsumOpT4NX07VuZoE/HripTV5eJQpqeRGHqTaHGSYWC8zpCNsoY7e1SHuzjOhGIdxGWZ5v88sZ5zrY1b775EjcuLpHGVQszN/U1vaPDR30tjv1jWjTiLU6XEidt6q0FkBTrCmzoCV5RhrhwONpALhaJxY4GDPf3aOaFL7UeE1VJlXD9k8ipUzDgFwVlTtk9pBz2EFsSiTdnqxYQfr7c2ApwQGEdcauFqjcgiqkcp+PX/rHv5cTPT3nS00veAc004tqFeTqNV9gd9lld7HguEizKFdjeATv37xANe8SYE5nFx9THEz89dXxushGniwKPb8iK5LO6nqesqC49JqgT4RgbcYVvcMLCCb+fjPiY+RPG5DeUspZYCXlZMtrb43DtMTPNhbHSW5ip8+YrF7l5bZmFhXnq8VT5g0y5cCeMlJOu208vwcJKauhmCxvF2NyNK6unJ9X/11sySoSiyBl0u1AUYAyila9rU/pJC/ZHvOtTp2AqJnVX5ORHB7jRkMiURGGZegXjT+yqNSziDeDcQrPVRhpNX0FdXfNHGfeL+xQRqCWKi+dmWGImMHxalC1xWZ9sY43B3jbtIntmvsazwNUnPgvG+NH0m924cjjU8gR7zMpE7VDl+wQcoQoz2+AG+uciY1xl3FmBk8rlWSP9/9h7kyY5li2/73fcIyKHmlCownhxx/ded7/uFtWkzGgyciPTTsatPqaWWmunhaQWZaTYJrLZ/R4u7sVYQM05RYT70cI9hsyMzKoCCoUCLo4hkZWRkREePvz9zKfinkLqVOOVydkZR78+5+53f4FkJWQJw0FCr79N6QgVJQlVIRafdE4Mq579NiFMBXy9FLaGuFTweSi9a7SxAlVCq6fRdXnvcbMp5AW4MiQTN5Y6SlO5iF37KHTrACaw7Q51BbOT4xj05bDaxGNITIAUQEbwJgQ45h7ubO5gBhuBg1k1e4QbV3ZdmirLAlA6SG0QGRM84mYUJ4cc/+kfSV2BjalDP+RebWe3+SaYGhAC99Ek0TCA+KDTsIQiYaayt0bFb5UXmQgubd+vtni0yh9Jqi+rSpxqSNRii5zpmwP88TEm3QmOZUkU84ynKAoSSULZmrpzDLfNulJTl+yeJchmH+ln+DHYFRHSlW9XpUJS9ZTjMcmGj5XyWjzLVxGpIg++wOdT3vz6jHQ2JSW4ftemSympqvRVSbmdCJKl7Dx4RDLYiBns1tBt2rlaVPEKlauPF0iMx/oCKChmI97+/Ce2fEnaElre+2ZU8jqBc4n9WWpMdi4WTWwspeJDkTuFspzSMwm93oBMDFrk+MLhvaufwVUIBrFOEXOvmutrKYzrgHepwM9FHY8nVSUrhPzomNkvLzB3n0TRrEQlJMbq9w3OV6VX23n/r54n+caorUtWA9aQDPvcffyQ89PX4NuV1xeo4hYV/Czn8Jdf2N95iOnN50xyVHNrqTTfR6VbCDAKWsLoDD8bY31BEuv0+BhNCp6QmjlUN3R4SlHSwQbJ5iZi2v6ZnyHFnb8yqRotkWKCPzygfPmMnivoi4t5YTuecyHK+WLywe9DKv5QKEUoxFAilF5wEpe6MQwGA0g3OJtOOT2fYj30TULPpliTIhSESOlK+Rsc5wxNxPXK4mstMnUZluBBZL2hH3Hi7dOnPPr292RZH/oJklTsv8HaoCCuE+l8TvPAAIlgBim9nU1G1qLezdVa7yJRQmDw+Rh1VUZjjTz/ghc7N7c6bh/AGEHV4c7O8OMpxjkSDcUkNPplaFWeNc4hp4pD6O/skGzv4EzIE3tLswiuJ4km+qhnskqwqLkZ4+MD3v3ylD4lPXUh010VozJHHeLAiqpnVSXJ6hsvUIowE8PYAWmG9PvQ67G1v8fuk2+wgyHkJcXhEUfPXzE+OiXPS0xZ0jc+iLS+pF2EpNbTSJWWU+r7txLJsKyViVatmCQqU8V45e2Ll+y+fk2ys4P0h63ns9ScS0xv2RVEf2u2n1YjarWREWy/x+DOFsaY4MvSgS8VSFccn3eOyfl5KOsbO7zy4W5mhNwo5N4igGn1oFfcaISfTjDOxUIWHiM+cDHVpAVQCWkTxZBtbiIbW7jIwbT9UT4v0jk9k1BAPiI/fsfo3RseJAbJQ34XaQFE+/dz73UCombBz3W3hPSYTqA0QimWIslIBlv0dnYZ3t3H7t6lt3eXjb270BsESfb0DPvwkPHBIeN3R4yPjhlNz7AzT+aIQBNqfSdQ1/wWfEymVWl9K9N4y25VYU5lQYmNDpUWHJQlJ6+ekT64Q3/rPpKmCLZlv5L567V659aASwcF0dFi0h79rV3U9HBuitPK+zjouQIWN89nVJEyxCVpWRKqNlT8qI3XrvL7/UatSOpL0BKX50wOD5FZHlnt2FG1Jj10URJNmbkK3hh6W1tIr0/w4JWGH/zcKIY3OFdiTYmSU5y/Y3r4Cs0nSGZbqSwvYJ1btt+GG6i+C+SACY48TfBZSrKxw+b+Q3p7j+nv7DHYvY/d2YUsCz9KE1CLybbY2rnP4MGY4dEJo+MTitEJxeuf4fSQ/PwUmU7piY9K+rK5sTaw2Fh1mqx4jWet1Bao8PIUUmBT4fTdMzaP9+g/GCKDHaSqWuVj/pTKmZJwrVtlMZojrTm6OLMROyQd7jHY2Mefzih1FlKq0uhcqix7oiFmyxYF+dkx7vAAe3cHybKYNzooioNQ7S+YMddLtwpgvCuhmFGen3P6+gBbBqVuKSEhduUAI9HJLvGCwQadS9pjsHUHwWBtgtygIut6Kari1OBKj0kKcGNG714wfvuKzMCsLENSaG1HbHfRgi5GG0xqL25vhHPjke0tsr17bD18woOf/ghb9yDdRNNNfJU2VGO6TSVUajCQ9DbZunufLQDnGP/5n5g8/5XTZ0/J374mKad4P6XKLle1rDYnyTzn0m6bSEgPGYLDhVyUGQVYQz56TX7yAje5j9naiteJsTpigh6mdm7UBrxuG9BIs2mGjdGCDJHeLrv73/Pu4IQydyQErtW3fxbH13jFaoEtT8l/fUry+CF2uFFbCq1U7pI3q5O6VQBjxYBz5OdjivMJqQTfBV9ZIRWqdICiBuNDHWExKaY/INkYgjcYtZ+pAqaisLB6aR+RKcW7d0zfvcFNRySRu1FLqCOk6yxJ88JAVT2y8YqOApi1+OEmj/7yb9n7/V9hdu9BfwekD/Qogztf1D8qcxnyFvXLYhn+9BcMd/bIBpsc2YzZ61+xvkRcQbs2eNWIWoEpDfPeqIyqonTtm3j6WYJzM8ZvXzI8fMzG3fsh1SS15wyVtSTEHV3c67eCqj3BCSIZva1dNB3ginMcBe0NY85jOuqoUvXk43MGxQx8VcfJtrj5m1Tx3iaAUQIoOIc7O2VyfsauTRDNISKvj2a8iuF3YihNgqYZ6XCT/tZO9GCvJtdt26ouRwFMBTF90JS3L17z7sUrdDqtORcfqxMYrlYytPamjV3jRJiZFDbvY3d/wtz5HtI+zAjOimJIJGQ7RqLCVE1M9N1BBpzzmL1tkvwBxZtfePVsxF3j2UDoWxvy2WjTltCwpn0VhxWy+cWD0fyUCYiFLOvhz3PGbw45e/WWwcMRdmcj6Ha8IJbG5K3wUfLoXhMFw7FvLII+gLgklv7dO5hhDz8T/ELmU5FmHBUCeBs4Pz9ls8hJvGtwVuBTxDbfHoCJZjXncqajM2bjMWYjAS+o2uBBGj1MfdxNnQSFpLcZZrCBDDZD1Gn0QP1sqXIfEYGzEcXxGX6ah0xvMZeKix5W4i8vDFYLunLOCoXUDLlkPP7xb9l6+HtIdqGsgjFSQoWDy2ezC7UPQGxG7/4Dtn/6idODl+jZIWXuKcocVLFVLBnUpVI699a46AzUpbczFfrGMhHDZDxj8vaI6dsTNnt7kCy3cylU4DaTRo5OFbGC7GxS9hLUhvJ/c8PQ6qzKAgiG8XiCK4OrAFHnUm0HN73t3iKAUfAF09Ep5yeHDHopgkZAkagJF6p8GGGBGEpJSDY22dy/D2kPkbAoWGSrP0cqC/zRGeNXb8lPxww1eDZ4aZJOGd9Eil9EFSOQpBYnMMlzxuUMvXuX4f1vSYa7eOkFfUVY+QssxsVac9GQ7168IGmfrb373Hv4Da8P35GpxZUwTBISE0qkAnVWCI2eyW2rtdMQWBkWSRx3D/logvXQE0N+dMbJywM27/8Iong8pqrg0V6Qt1Dpr61X230pJA4Q2OjTu7vNbNTDjScY3zyAtIs1YRBjSZOMs9mU/PSU3mSKscOwZFpntn+1btu4jq66XYoKdbh8QjEdk6U2IjCoWLyxeJOgJgFJUUlxklDaBLuxydb+PUgyMEnLoeAzJlVwJeM373AnIyQvEa8xTXEoiOYxqBrUr34RX6pRcawGNSmlSZioUtiEOw8fkW7voEkIqVQTEmRR+dhIexnMhTJ2khWLRLNPb7DB9v2H0OtRIJi0j016GBMSWlevkG1b5hacJ5rO48sRfGi8KvksR1RJsRTnY85ev6M8GyMiWGvnFbm3VP/S9Gbj5Vz5AomRkICqnzLcD2JSKYpbelV91JT9LcuSyekp5WwWN2JdynHX3L/7dV10qzgYLQv8bILPp2iZo4S6MFrXQArmZxutA5WIlPUGZDt3GoD5HGbXOlLAOfxkwrtfXmCmJX1jwReoCeASkkIJzqzmYNrmaCUkdSpN2PmmeEaJJd3aYP+Hb0k2MnydXKqKiA5cYAUoQrDGrGcEJHA+0Vok/T7pvX0G9/YZPR+x0RuQawGlwyUtvWMVsaDzlqRq0dX6mhjgGtUqqHpcmTM5POH89Vvu7D8kSRKcMS1fVm2xCLeL2gBT25Gq4FIDpIaNvV3O+ilT9Yg29avEt/kDg0qJLwq8Gk6PT9mYzkhbV/8UdIsABsrROdPjI6bTMT0IBbU0x6Nht5YkZPSCADAmWEBcf4BsbtdKyUAa//8ctTEBbIujQ04O3pGVnl7SQ3EYoxgD3ipFklCqXWl3rT094wItI8CUiTBFyPuW5O4dzL0dJFWMydGYnBwEL4YWRx5tMw3YdPaCmqsAACAASURBVDc9KgaqE7IUs7fL4PEDjk8POHMFhfeItdFXJSb98ho9VhtHQInXq1UNWgGO1vuGx4K3lNOCk8Mj7pQOUtekVtVo9ao65NZR423bFkfVxH5JDYPdbZKNIZqlc/XV2xH8wUMsjfkGLUcnp+ycnjO8X9aBj5Vt7TeqgxGcCqVNSbZ32djYZH97m9HknNyXMYtqgvhQHMtLqJ8j1tK/+wCSPkh662Ts9yJj0DRhWjqGd/cZbA/pJQWYArEeY0LGTe+DW/w6z8wKZNoAM3EFBmVz0GNwZxtz9z6kacjGJ8HHxUf3gAZSAl24F0rMbmRiBLNANhjwzV/9NSa1jF+/xPiSfmowdfa/wDGFdI9atzvcvdUtNQ/fgJwjo6d9imyb3uZ2yH9SX7HN8N9skN97kegctxZER0uZZAwefENiEjIfnBWNLgJMAJa8NOhMyTe2kSQkCjXxmk0Kqoar/eiP5L3/oPtcPQ/KKinPoeWMcjbG51OM9yQC6kpUK+/DkIu02tmqguaSZSTDDUh6oFlg8as4jE+ya11ekl20mlTPhld8PqMcjzCuRCgJnrAx6a9KNMcv2V2Wrl9lrasTeyshx4sRTGJIewOwvWD/jder62K3nqS6i2GFiboiX0UuK+AQLdGyoMwn+CLoTszcDBeWbe0K4lm2hut814rBk4BJkbRH0t9ATYIaG40DGkMUCHFucpWFdV0pHlaPkdb3iXFT0U6v+Aj2BVLO8NMRupj/Z05EivylGpwKalOS/gDbG4BN8dIkfm8Sna/vi0VdW1sBf1m6JQDTmsoxhoJoLphjccMdGza8bgNBNDJN0anGP+CmAWbh+Srefg11ZvwP2rnwh4/ZwbVSfVbXvkzft/qqVmwsiDFUHAdL5843reIc1i88rZXsTXvrkiD1Amm1fVX3RKe+9WNYtbcSAAyKbYEl1O5oZsHneS3YrJqnV6UucOlStTa8hagGB0qJZX+pSuC22qREMJLmmsr8ZzGhH0xw22gP900BzCcSkeZUeK1j0kyUamF6jblEdP48aLHX8VNd9LvlEbpqd/8ouNMlQFyem5mjCjSJ79VCa+9gVRDjKpzR1mRrX7hyn9euc1vNnvtl+z7rgW1+Ela5ZubOmH9vTfjlizl0aaq3fj33+ELt+Vsdl2a+BImtAdY6nfMSdYDge0+YVQBTcSosjFP42zRa7ciNt9ZEu2ktkFle/FI/f5thvCnxCD4JwHSNaHtnaRZk2MQDuzjHTs/tWlIPUFjelwhq+2i923HjOhz4/a4X5lgVeTy/1KT+b8X1266edeua/rt00+qdsRqbC3QZXVzKfMPmvtOF9zb5ld9Qg4hWoFJdtV50UouHi7+j4/B8+7qOvS8Hs+qYVGqX2K5F4K3AWalSL7QRVSs9jLbGs+Neq2DyJkDmEyt5uybZPNiEvKOLEzqifNV5rR60dHTcwoGL8Ofa6bJ+Oe1dvNl0aXLkMocIDayuu2ZrV1xqF0udsQ6vapFtoR3L91z4bo51Jz7nPNBBt8bDdYxWN7y1uRYu3+craR0wwOWW52XaIJ1/Vgc0PlBtzhZqvWIdfd763UVq7EoPd1Nr4MYBpi0wmI7j8wKFxH/dyrlVqou5+3RIEMIHMBVXoSuOYvvZ22VA5iWKrqe5/PVXHWxXXVl/hzb3uIK6vupSvcj8V11t1I4l07mB6Px3tW/gOgnlg+h6lqjCsn67/X3dR+0aVk0TVki288daBxf7fIFnuna6cSWvErPOq6LVrVuel13s8iotRted2+FsV/ndbaEuEF3WPjWfP5RqUX7NOVc17q5rV9eYrLq3X/MdzLdr8Z6mBZi05tYi5tyGVODrnrGrfW2mZR1WLs6V5Q28+X3XGH9eSt5Wr9TlI6xEwGlKXbRFpIqzvgxQ1FxRezLp+sG7MboACdqDttheWThvCWDeE2WWFnlHR72vlLG457Qn5lUAv51Hlo6/l+6xcIJWbVnYwRfv96lBpmvM1wF/G1w6LZDSvFXgsQjG7TUmtDjYa959bwRgVH1dzTAa3HAiFB5muWc0mTLLc7zTeA6xFk8Eimol6TybKC39QjWZKvE7BKQupDLoELOuldYqMCpa/r75mTSfW9+1Aaj9t1mxfenKD/GQLLPbVdb/zp8uRQyup65JGpo6PwBzzW9zHPGPJmn4/N0vB3zSWInmHNKYMyx1bV7NjFpH66Bu3RnLjVednzoNgHTze9UWbKg2HW3N7VY5XqCXpmz0e/RSQz+RJWe7rrasaOZ70Q0AjAIe1QIVy0wtMzWczkp+PTjl5+cHnJydM52VUGWoY95foUoSXeWXr6k9k+cQOCrFOgTcVZPzqrv1PJa0V8177IcK7T1mCVTiOUss6qpnWfhuaYqKLB0L0uq6RXX5Z1xKEBXJ6AIjrt2K53r3lg7OasVzLevoWicuPG8NMEuP2xy4yNenm+Y3vDaItRu6xHnrckKshSu1zm4ApuFoFaK11RsXz7KICpv9Hg/2dnjycJcfH+/Qhyqx6HrxWFneKN5jd74ZEUk83s3wJqHQHu8mjn98ecTf/6c/85/+6WcmhUO9xZJg1C5V5at2rUVF15wznTaLT7omJt0d2lZ6XQVkGta02WVEq0asRoG29WS5dTK3wOpvWsfmxaluGVAXFmH9jGuez19anlQuEsRFur2PZAFgukqX1MAtFbexutGLoLJy81jx3fz9G4GsxTvHNnWxiV1aizCGFbjMbZLxEksiTeS0u/phuZuXOZpmTitqSrwpQj0rzRC1DBPLg7sb/PHH+0jyHd/f3WIzsXO/7Rr37vtfnW4EYEQF9YpTECscvDvh7//jn/i//vPPTOmRDTaxaR8thbLQzgHtWih1dytzLtRNQa/5HqoGd+5a8Tu/ZvF1UXPphr+t21Dt8EuzWmrRr32sa/avA5n5NnTPgvZUrM3Aa55x3bWuSl2g0LWwOhfVJa5VkV8Yw/axy1Ldrmpj0BbAVObgOa6jC61l7n2xXe355juemwU7y6otaB0FE3aJ2jym8QgAM/KOX9+OOTv5Z/LxGf/T//Av6W8PSa5JBLqIboiDMRgZoCTkWJ6/OeJPT1+T5wnpxjZ5YcGBLKmj5qkGg5acqHPfVIeDu/XiepljTeN37clwleU110rVkKQpXBF0VWrGSsxr/3b5ebt2j255eXWL27v73ERfdf41gQss7/idwNHxuy6F5VoOpmPDuIpgM9cuBcS3eJBm/izv5F1+WS3OumpXawzaGeWWqQNgrjwcke1zIeOjkoXc1EVOMQM/Lfjnp694dzjj3mBAP2syIapeHZgvSzcAMAJYjDXg4eQUXh/MOB2XZMNtfLrBbDylPxigKrjCdV6lLY8vczDzYBIGaEkobziYjoG/6ng2E6AtDyvzdZCXl5Zqhz/DwnmrAGbJf61DMTvfqgVOZs1Dql6fLaWtfK+PLZ5DxzN2tM9UWZQ6qN4cZB5srtTW+gchIc2CEB7P6aiwpcvPWMFH16Y1xyjNXyjGFK1q12UpRLFXT6AaXmmaMeztMFDL6zfPOD8fUZZbaJqs6tZrpRszU4fUlyHda6EGh6VUS1kq2XCLvAz5QMwK+R1Y5ESXlJlzH6V5q83iC+cpjVn7qgi+qGBDdT6xgdA5CX2nouD90wis66ugw1g+Fv6UVh+FTaBSkDdt9etRaQUt/uKyHBnSsbDWcDDS8YxX0aPNj06IAJ+H+Rio2TU+Xd7l8eZL7Zrr945WLDz0+4hIIbDR4SWWWI7jafCUFBTkQUcTY7uWfr44PtcEPjdjpoZomg4vNQaMDTl1FVxMMm1M0KVIx6QWqOpM1SJSO+S/0X80YFKtl6qzpGpMBwdz1f6s/Sui7C71PGkJ2XOBJuEuVUa4+bt2P+/i58VjWnfKMs2JSGtBNHRI02vN9QxaW1xkTVsXqcsitbQc4zjMHVs+tHait+IB67uZKw7katGt1Q9z41i1Ujt+pRe2qxtYrwNgtM75Ezi6AHhOocCFKpupQa0JuY0X+n/pfh3j8z700QFGiblVVXEieAMqIadJqCKhjCcjNjY2QkLMoqxLjC6JF/G/RRa0rW9pLxVZPKYL1+IaRKToxCC1klfrY8ssViumqHVscdvtXGhdjVgjIlUqhEXxYfH8So/Tpc8xMV+uoQkgvQxDsyi6reJgLsPVrEum1R6CRVHkstRUHIgbBdraKBoRaf7Gq0ao5mlXtqvzmXVpRlydNOToFQmpKpSUUOnS4dXhJEUkRSWpk6ffBN2cJ2+1ZYkS8qqWeBxeCkyqQIFRSLTE+JAHxsSFW+8MdOtigJqtaYtD9S1boFNdp/37q8rw89NL6x9LG67mbtLeKroGd9l8u/6e8dJrojyqvmoDcrtZi3twAzCtrbZqu5rQrzIPRO0+qJ8qLs65rBL18YXnmTvWFXVEfd/OZ1zsZpYMMmtprk+1Eoe04UzjQ5iVgNJ9tXXt6gw4XQQY7bj6wnNVkfBhDwuVNxCh1ATIEO2hamOyNo+nh9ceniwkir8hhLkxgAlyYWtKquKdR62ys7PFZDSiKD0JglBi8WTWk2qBaWFup4+HapM6pRXUVItGHXx2m7noMndeRPOsdFusWFSWNhzKaj1Ptw6m0w28RRdl61vyE2m3qtUnRiS4N4pEALQ4hEKFWQklFo0JnOYEPPUIjkQ8qfhQO7nOW9O61+LNW8cXOYilcy5QBqx7xotomT/W+ngcsfiducSFF7adFe3qehrVCK4r7iGE4vbtSeulSmxocGKZaYJXi1EbUzg0fatq8aR4UtCQOP+6QwJW0Y0BTOXWHHregqbgE0Qs0/EMEDRJKNWj6tnuwf/87/4NT7ZThqKdMvv8Dhzeuza8xc6sgYkFcJFuMeKqz7mKrnrtC1W/FwLQ5e5nFaxrQv8dMAWOJvC//K//OwdjR0mGJ8HHrPaCw6ii+Rm//+kx//a/+2vu76QMkqCzuMz87RKTOk9aQ1dLgXk5anO/4SZXv8al2xVxY91mIkDiFRstal5aHIyFw7Hwf/zDL/xvf/8PyDCIRSJTgnAbqnAGBi3MKLOaKbx2uvF0DaIgajBaOSybudrEnjhBjbK90eebuxk7VrFUNYcXJV2owwKolGnz2quueaILYNJ+/5AJu27grqwf+IB2XPaeQhiFxFcst1AKjD2YIyUVH48HLqZKACUoRpQ0EXY2Mx7tDfnmTsLQQpPZ9zrogieoRblL0KVsv5dlZ6+nXdr6f/5omyuG1CtWFQgcSwUwXmAwgL3tjH5qKIlcpISMxMEnK45yLFoYGdW2dP/R6GY8eVmccAGCDSHJsYlKwbaZVCOc9AwMbMidX4HCki6inbWtY0zbisIutrULaH5LZKm4jiCIxtTiMV6lVmSxHOagJImln6X0U0M/gaHE63FdAHOJq1z6Rldo0YWnXk+7uufb/A8NYKWax1UwcAMw/QR6PUOWJqHaQK2sbmL32vcxLYD52HSjHMxcTE3HZyo9ANQPr/VLayBZBpmmtJRqh91hIQvcOnn4pljH20T1M7eS1DaAX33His6RhfeFeutf6UK6aJ23I6C75m57LUnrc7h2UxlskTu/ic30FtVFilRJS/FjZeJuvqr22RY6tXLVCsIiG3MRZ/zB2RU/c/LaeMx6Db5KbVV1APfu1NuqHucdznucWnz87fV16WWXwWXueAUR6Qav1Z0oo6UC0PifKqFMS3DpNIBT8B68U3zpQnENIXAv7fVR/f66dAGXpFsFMIvoa3QemSvgsJFlr3kV6Rqky1P7l79FrDEQvU9jNJg0bLTE0PTK3Ln0WxGsWKwxWNOkAjB6TX15XbhxE9eqE7G02O9LXWt9w2puMP5XOT8aIuZYsDZusFJJAaEyZBCT5hp5yUZdD90qgFlFbVHqQ7iNrlgkCFaUrnv+5qmSVlXxPhSx6zIbL+rYahHpJvvwOu/1vtfqYkSugS6rm66sS/MGMI0ZI6kTsN1kpsfPAmBgXv784Gst7K6dA/hbA5g4MatJCsxVPakUi8h8fzUcZqsWlS738dVIO/+89G8+4JRL33DdaZ3frfnBVebaik69+BKfZkJ/NgDzsehK4PKlgk7F0bUmb/vzykz0GkVTvU7fii+1k6+PlpxNP1lLLqZbCzDtXXDJLE0FDJXV43KOXV33WKLbPFofg1pGoIpLaSx3rVfXQBC+FNUY5tH4wLwffciA3LSSd93vFvnti+77gZPuFisOby/AsAwucyx4VGK9j6fQewPLLR7ID6JFkIkfqyJdbaCRxR/GfLKWADDGK8YsZlX+ELppy0/X9d5r+7rC/b7cXe3WAswqqjibG13sXyqwRNJKQVh9Zr4mUQU08xThP0ZUGmJNKq1c9L7S5ejLBRf4ZABzCyXHLxxELkNzo1Lhx8qzG7ZHREK+o9Z1VgUvfhy6znstXst0X/sy5sz6lA9r3+ds0fyEW41+3j33lRodmUYXgE5O53OnT12W7XroUy30TyciCSy6uNUuz9psgLW5cwGLwvfVl+vSEl0PLS6cLxEb53ReVf8vnRUevEm4teJCK0fkC+y4W0RS2T3oXks3TR8dYOYVs91WoeZMmft+ScGrIa5ibv7OWZM+Dn15u/I8iS5jQvc4NcqvZrTiN53i1Aqz01f6aFRt0nOfP1VjuCHOqQaWGkXnbBVXvtZXun66bL/OcznhU5XP7it03B66Levk0+pg5t6/0m2hLiPtKlF1KbHOV/pKLfokANNM4C9DgfYl0mIoxRzIXNuVfyv0CZ85Av+Xr+TV+Qwhc566GouVXeMuqNdqJl2WZD9nvcwqZV+lIGzrzZZSOcq6cao8aNZJ/l3frdtobqlPTVcnLkZTz9G657imjXbBG7JaXyYer7IT3CTdIke7rymKbgM1lRiWuZgq0LGZqIumtXmHva+jefN0fZzm9dAn2h5WcRefWuf9ldbS3JDJwmve8/crfSW4FUrer3Tb6HKROG1ngpsr5PWVPi+6QYD56hPxOVFlMbqQ5b52pnOZM/pK70+LDqs33aM3qIP5OlluM9VpSllwdGx7E8j8KM5lhuwKhuyUgtdtKp85qHxUDerF157nKWk2iOq4XrBZfAS6pSr6blLAi6Lmq3n7pqmyRlSTNOTcvapF6Cu9F0kV274QptE+hXkF/G1R9H66aOq60y4wayqgVS0YoerkthlakAvLqBLPDK9P5xnW5VJ/UYnYj9GGjqMoihdztZ5plZLxc9demOFfNb/XRJUJ7/PozxsBmHri1Syb1mZOwYImKAZVieUVol8MVa6SlpVCKm69WQatCKUL6PMYlE9DVTxX07t1f1dj0Ir30qrgOiAqreBHe7PN/s1QJY9WgRmydq/U1h+fkpv56ABTPaiJzIN6j5YOFKxJEHooPbwavHpK58EJg96ANBO8hdI0mf9DeY3FXpWlHpS1O+b1KJxFuzfmWidxyYG91OZ+yWvVepE17VrH7FWciCdUeJQkCSKpWCBBQ5FjvITtwXvFlx5fgHcSznsv3Uv7/SstU5jzoYcMKop3PqT6Uom1k0KZXwO4qPywxiAIpgQxJlYXWHGLa8sh24zjDXryKuoF9R7UY7wiDjAGY/tgEtTPUJ2R2AQLWNMSoirnLyHWsl5yMV265Xqu5sNAZu0irTwpG4luLV1WuPtQaoPOZa5XAY1KVfyuqpwEXlwoZ+JKfO7RAtSD2OrKV5mYX4HlqiRAURaISTFYcA5fFpis4nDCCFgRUmsx3lKJwd0XXAUuHwYwN6LkVaCIxVlSCz0LCSVSzrC+JMGTGRBfkolns2eZjU+h1I7n1mU9Rtf8vKVz9lYY5lf1TeVaTqiF3E+gLKa4YoIrJniXE/o/wL7BYbUkw9E3kKlCUSL6fknYv9LlSRTUlYgoiYXEKOJL8I6G21EMSmKglxqMKGkasg9eTNejp7yRfDCB8xA2M8GZhM2B0E88aU8YacF5eUw+U1LjsTphOj3hzqbnzpAAPDTcS/jLo+KpirGHhAGV9aIq9l0thEaBfOPKVG6nbnOxXabWh4W/jUBqYH8LNpMCpidkPSXNMrwrAMHjMBRsZMK9Hcv9OzCwyujkjGxrC5LFVJOflcHyltGcsTm+e6wJvEovgd3tPvt3d3h+OgOTYjToyVShLEqEGds7Q3a2DOkNmnZuLB+MRSiANIHfffuAv/jhMW5yiCkPGZhzdnoztpIJSXnMpp3xr//2L9jbMPQk6F/mA7Wa8uqVee4GH+eLpKCoDf1pVYPOq4Q//vQNj+72GZopqRuR6oREp6RMSJjw45N9fnyyT9+GMdocJhhTCVdf6TpIEULSY4uKwUuY/0mWIUCmnkd3dvj9D9+SkpMyJWFGqjMoRkzP3zE9e8eTB3fZ27T0kptj8D8SlrXZq1Dzz8a174HHD/b4F3/9A2eTET+/OmQ6OcQ56CWGh7ub/De//wP/+u9+T4ata+20r9p0jtQ8jNE2wgez9YfUq16kLzFF5jxJtDgoRpRMYDMR/tVf/44S5T/84zNeHhzgCkNeOgbbAx7sbvM3f/iG7x/vY/GgOWIqrdl7gH2tHW8364vv+EuRx8Yhivy6KFaDCCQIu7tD/sUfH/P2+Jh/fPorJR7BkKrlzkafH795zL/7H/+GR1t9sksZDC7r9Lh+I7kBZqlyDhKshObcGab88acHpD34//75BSfTnNmsYHdrkx8e7/O7x/s82OljygIrCdaYup6uj4DVPPtiJ1w/Nn/xc3whaZSgGPUk6nlybxP5b3/H/t4OPz8/5OR4CiZh98EePz7c5I+P9tjdyhAcSPmBVe9voTx5C0iRIO60nDMqK6mJxe4HPcPvvtkm/bd/yU9P9nlzcsRoNKGX9Hm0t8/vvtnjDw+22TCNI9710HpLhnjvP+hWXcXQOxVEMb2ik2D+nAHnhePXg1PGzuGKkp3hgHs7m2xngs1zesaQGoMRE9VVcS2IJ5igwgMGxWTVjqiDqTmYy+pgViu1ZGVZw24di/8I6+SyvgzrzNSr2mW8NH6PhL5VceSuZGYtuck4mTlOTsZMz2dokpFubnF303I3FTaB1DtEpoQLZags7l2X4Gi6Gv3FoztcxAUE58f5tKRWwWrQh+ViyUUoFHIHZ2PHwekp4/GYXpJxd2uL/Y2MTTuhnxpE0uiv1DYrvm8/d62bZqxvEGAgiC7goj4mV6VEmIhivCcTIQWSssT6gl7WR7wLjndqI4qDGo9+BZiV58Hl2lULlRXAAODCS0o8JblaSttjRhCfeiTkIow9qINNCxsCiXrEBCsTJOicYAtfAWYdXQwwnvmI9QAwJQClWAoRSoWyhCyFqa+sSJCo0KckH72lP8gwdojSY25MPhLAXIOINK8VaY51kGhU+IJXJUHZFsMxnrzMyYwlA0o3o9/LIpcSH0A0LPTWrS7XJV3tW3Xe9dAl3V8+KbUBSyov3jkPLMGYhL70cBiMK3DeY1QYJAlZwHwSH68jQphOGqf13N1u4Il+O9SlFDAKKZAl1fJ2wWnVCwaDiqefZZjomHdTQ3JFDmYZrbo5mC5qUFoJ5jMv4FvXC16IWvtRiPq4q1WFSU3NwcyjviBLxv3rseNX1/8SF8ncplV3l6dmZwSC16hUsiloePOta1TeA8ErwNdz4tIm+nUn/gY4mMtwvBUHU7tsKFh18TuDi9LBIpfepKVVpF43ttHrrOjfeevs+9NH4mDWU6WuCtGfC4DVvrJEwUfDf1rz8V9NoB9KnZOnRosI1lE0XEyPKb71adHpUc1vAhRumpa2OGlspFpvyNL+emEtCSqNe8dNjdAnrE19WcFFuLTP/Ve6FK0El7XhF63vpAnCqLeXxrzx/g26jV6Jt4S6IEFbQcCLLhlLZ1fLqPvbj8af3yzArIyyWkcrJvlXuma6bN+uEj2lhTRfgeImSOdgnhaH320RWM7f8/HH6SM62i0e0tafMb2CCKo+fJZKn3MpW8nCp1W/WXX8K1BdSNV2p0oo2auNn4wJ3zlXIiKIuUxFiK+gc33UpVYIwC8IXssYECwxSFhaYTaVTvNmxuOKAHMVUaV1XgQXbb0rIGJQr8E6YQRj5FIlprtSMSzZsS680FeQWUm1eSky3+pDmg0CuIhNQT3ldIZNLNamLfGmmiNdto6v9OE0z0FWupawASgGofAe7z1GwpoKGrVKRqrgqDKKrBiXyunsIrpAJH4PDqZJBnUVUtWQqqH+HDy7bJphkXBNrSb018X/SUnr/8AYxJjWLulBQ9Su1C6hba2vmdeZzXHxa3xhvupfrky1xUgUURciqRVSa0lNRu3T5H14GUsIpRYCTyofvdvfU0SqJoouvC5JIhhjUFXy2QTvPdYYTHxdio35Smup8v5/L3OjEP1ifJy0HvUO50ucc6g6kiQh6WVxqBY3HIn/Sw0cOlcRsiUKt2b4B7X5M6f30Vz5xjsSEcGIBVfCbBIBhRAaX60pV4K14Zh8GLjUpvWod2uyVM7TlQFmSTxRKgeI1g0XKSCsEGRD8eCLgunxCb/++ozJ2Tn9wZD7Dx+wc28f0x9CnaIx+L+s8kWpnGyrZtWgftUH+0JpwcJMld940eQZTtNa54LXkPFrNsadn5FPxpweH3F8dIi1ws7uXe7cu0+6uQlJGser2nhsw44vAUhj+l6VdbDd5i99HJtKmLo0LvNuj+2jPi7oGN+hHvEe8gJ/eMSrX37m7OyMLMu4e/8eO/cfwHAj3jB65NlmGwgpahfVCvM93x6TZp+4mLnoBJjFcZcoj82ZI2MjGoNzUAKKkbohPsrvBoeYAmYj/Pk546MjRgdvmbx7x/TdAW48JU9TDl/eYba/z+befTZ370J/A/qbkPbApoHFqxrolTZkVgNVpRA31SRuP5Csg58vY8tcBFponLSC3ov6BFUaJSCCaIm4IoRneAfTMe7gFWevXjI6fMvk9Bg/HaPWcDrcZLK5w953P7Dx4CEMN8N4CSAGL1Uax3gTI9HlHUAa10ldnm9tHkddXgAAIABJREFURz7Ll8nNVCqOBlyW1Q5zS1c9qg7wiEAmBFF1OoXxGHd6wvjtASfPn3N6fMh0NmOSpOSvtjjb3WPj7j67+/dhexs2B4jxiNgALl4iuCQ0PlAdbRWWQK9ro2oP6BLAdONRh51GqxvPY24zGTRMUl+CzmB8xOjgOWevXnL+6jWzw0MYjxiUBYkLnVuevOL01ZDZzi7F/Yf07z2k9+g7zNadiBqVo5A296jbrDHFY9NWK9L1MK3u6Xr6z5sWn6AazyqWMUyK0FeqijpFxJEmNuhUyhn+7ITp6RGTF8/QgzfM3r3FjU7pFxMGvsCLUJiUsUnRwzeMH35D/94jBvsPSbbvwHCbOj+HBp2axwSQabWjkxZ2sS+fI61Gx9efwnYtcxtmk1StrPzZ4fyE6euXTF++ZHbwhtnRW0bHRwiePgYnhsnpW/KDlxQ7d2H/AfbePsPHj0h2tiHNwCTgBGwSUm1IUnOiGl0PqrSpyvzYLfM4y6O1FCowx1JXu0vFvdAEjAcv/nn3H/EOG3L5gXOQT/Hjc/KzI/yrX3j361OOX7/AjSf0UXp4MjyZDyqnQghRoTZDBhts3HtI/9ufyPbuk23vkm7uINkQ0pR2UKMXrbPcVyy4QbArOZj2UHZ10CJ1i2e3kSrX70XtWHU06DcU9UHprt6jWtITg89HzN69ZvryV85ePOPs16f0ZjP6Zc7QKokUlOUUL4KThML0OJ15fLrB9v5Ddu4/YvDN92RPvscMN+MEtmFZiEGTMG5Kw72Y1jAokSuVaruQMJJfoAI4bM7NtliNTaAq2WWbI3dYCqSc4SYj8tEp7vkzRr885fTFLxQnRyS+JLPBZKIieLF4SVBJwaZ4MaRbO+x+/wPDB49It3cwG5uQZJD1wrsJkoIXi49hIhXX2bSuDXpKrYOp1o+uAZj5XpCgzKknbTNdPSFlZciCJsHlXwusL2F8jp9N0eMjpj8/492f/pnZwWvIp1iUQT8jSw1lMUOJYCQe7xxiLHYwoLCWsRdOckd/d5/9J99z58n32IePSHbvIWkfNRLzxESlVZ3prpHvq47oGN7496LCuos+H4Bpl3sJE7Rhv03F4/mYdF19mOTeU755wcmzZ7x99pTTV89hfMq2gYEryXwRUgPYAp8o3ggh3D+lKC3OWdQnqEnp3bnL3Z/+QPbwEfbePczOHcj6eJPibYpIGljzSPX0EuIO7UBcsxn4CEpfnOI/jEuV3xjqmUsTBy14FcCj/hwpR/iTI6Z//pm3//W/MHv9nL7PsZKjfoqUZUiWL0HUUTEgCSoW5yFXj7UDvGQMtu+y/fAbBo8fIw/uYYZD6PeCOiJJ8TahJMHVUfGmFqUbL5o6/VXHGgt0BYCpJmqQA33EVqOCVUG8gp+BK/AvfuX856ec/PIz+Zs32OkEk0/Z6vVJUotXT+FynPMxt4vHSgzB0nCX0hjIBkww5MZSmASX9Ej3H/C7//7fkD54jPT6gZ1TE9k6i6viLX6jACMC3vuo/K4gJoyZxcUAUoV8hp6dkB8fkp+e8o//z7/Hn5/Tx5O4krSc0VdP6nKsyxEt8NbhUkVNUAyKWkRTjE9Qb3FemInhyAv9e/e58+133Pn2OwYPHsHmLth+3CEjax5Vd7VYJNGsWoEMBkhBky8MYFp8pWhLdRHmf31KzdyUzI5+5fj5P3H49E+Mf/kVe37Gg40BiZtS+ikqDotC6ZFKaauNjlSMxaY9rMk4P8spncEMNjBb22w+fsjOX/0lZn8fBgPIMkgyvE3Jo7YsxGTbGl7CphADk5tkQkskusbpxGvFcgeUUp9TllOyLAF8zGpukFLxx6dM3rzk6OlTyoPXyOgUMx1jign4AsVhTKOBrCqPCIoRwaqSek8SvUadEZwJ4JKLoRShNAlF2qfsb7Px4BH73zxh6/4Dkq07MNiAJMUlAXVFUiy27og4gh2a7y8NYITSFYBijMVTUvoRmQWjDmYzGE8o3h5w9vTPvH76Z8ZHR/QFMkIKjUQd1pekzmPUYX2wAGIc3np8dMBQNSgWjcmLvBoKY5lg8ckA6Q0hG5Js3eHeD79n67sfka0dsAmkfcgGUMTo7cQGpSUlTfYrAQmt+lz6f57WzalAooKWiqQGFYcrJqCORIDjQ3j9ltMXP3Ny8DPTs7f42RhmBYlz9IwE6xFhzYStVWIwajCwCBq8rSVkHBCxeA2vHMtMDD7rMct6bN5/wL1vvmXjwQO4swM72/gsBTKEBLCBc9XIw8g8UNbP2sqftBZgXBultAQ/w7sp1ijgwBUUZ+eMXh9w9vwF5y9eoMdH9PIZPS1ItMRoESa58ZFdB1ETX0FXEvQlSuo0JC4isOElUFihRHASAKfEMsNQ2pR0a4eNB4+48+Q7th5/i9ncRre2UOkBKVJl7fqNAIzE53SuCFZmEUQcninWz3CHbzl7+ZLJ61cU797ij48oTo4xRU4vSbEqGDxGFaMaRClVJHIVYlxM9hXG0Qt4jSy9CJ6QkLokxZPgSXCS4pMeZriN7uxw58m33Hn8hN7de8FCaNPQeF8ExbAN0diBAY0czA26tl8vXQJgfGUyc6A5Ph/hzk+Yvn3F+bOnFL/8CmdHUJ4jOgN8KwFaZfKP7xBARKNCWH0YT9HWDBYQE8QmSSjEkqthiuCTlGxzi/7dfTYeP2b47TdBTzPcgWQAEu3bGl1HhBj/1AYZqMzesAZgGskw5GcVX4CbQTEGl1OcHzM+fMf5i185//U5s8NDdDplK0vJvCPxBZYScHgczrgaYMAg3gaQwWIwGC8kGhIZB4CBEsUZcBKYfJXA+ThfBrBJMrS/QXJnj/69hwzvPWLj4SN6W/uYwR1IBmGHjR1MXb/2ywMYrXUY4NXhSg9lgc0n6PiY8dtXnL94xvjNK8rTI+x0RFoWpK4gA8QnGG2nx6BhM6scMeLB+Kg7AC9Ka3pFNaUJHIdaFIsTizMJpU05L0uGd3cZ7t9ncO8hw/2HDPbvYTa2g2NYmgUu1JhYltZgo+z/edJFABN9WVwJ+ZT85JDJwSvOX/7C5NVz5PQYc35KzxfY6EeGaG3M0NrXKCrCJepdosQREs0G0dioj6AT2uONQY3Fm6BrmSHkQIHBJT3M5jbp3j5bDx6zef8xg519ko0d6G0EMVfaAFN5cl8BYCrxr0oALS6HfISeHTI+POD0+TNGr14we/UCTo7I8KRZRr/fDx3mXeyUoANQcUFzI6BU8rsFbJDtvMGo1CY4bzQAi1EctWMzRkvUTUl6Kc6E4hkjb8iTPsO799ncv8/w3hO2f/wjvb3HqEnxMRteUEhrLfbFLqBRBnyeAFNZJCowEMDlBe78jPLNK6bP/pnz5z9zfnSAKab0xJFRkvgc6wuMB+N7CGm02sQreR9r/oaJpCbk5FFxTW7kKhCybozB+iCrexFKMTibIFlK7h2l9zixMNykv/+Q3W+/Z/jke7LdPaS3gbcZpSThHIQU/bA84p+UVs8pBRCPcTN0esLo9StOf37K+bNnzN68xozP2EoMgyQo57V0qHNxrGlZRIODSlXaxLcU6AFcKoApMcTym8T1bQSVBG8SZgrehn7PvTBxwpQsrKm9+2zee8jG42/p3/8Gu7ED2Fjuo9Kjzs+Bii7w5NXWu4dyQnn8mhf/4f/m9NVLsumErWLGZir0kpRclPH4FGMTrIRi9gE0DD56vYlG9leV4DwUOkakcY6rKgioAWc8XmOWe68kopg0xbkS75RBEkpjzrwjf/uGdwdvePf8Jd8NNunt7oIJmyPYoJNpP5toqzPWs7K3n6r4kugupQXF+ISzX//M4T/8R7LpOQMcmQ15j42G3dOgIejUavCJqxazCs57EpMiIjgF7x2aCKFOtY8bl85lURNVEh9qJJdGUKs458hHI4abG3gcYgyj0QlHp0dMTt+xPxmz93f/iqQ/CGKXtFj+uCl8cVStAVfgzw55+Q//npM/PcWenrGlyqYVJJ9Q5iVioxHDSEzSxtw89vjAzUROXaOtR6LPmKIhrEBLMCFkQytPeQHUY1XQoiCzKYOkx3bWY+Yts9Exp+ennLx7zV4x4cGwjx0OqQ0pFyD/SoBp3NmiKU0cojl+dszp6z+zgyXxUwa+oIeiRYlaQ5JFJZBGs1YEEmNMfa1qIah6fOnAKv00IcOiecmsKFAV0l5CjkPVkzhP3wdOxCUGTB+L4J0hdYqVkr54PIbx6BiOnqNnD3Gb+0xmnmy4jW2l1az2FlN/+swpAnWKBXKsKZge/8r5i/9Cmh8x8EWQxQsgKgDBoCbFmQgG6jEKiRPEKc6VbPT7WGsYT3PyYoqIJe2l4D2z6YzECIkxQUsSJ7710fihwcxqjaDWMJtOMB6EnM00YaOXcnb6jrNXv3Cn+BusaO2RbfGBs/osrUeLXrk6v8NTrUsPziGTMaPnz9goZvQEeq4IKblN5csCuQ3cvFEwLvSxIXCupdHgOU3QlYomGJOQWItg8b7EOY+30TqnsUpHDEpV9VhjsV4xrkBKj5ccMQmJSchMwnhaYMtjrJ2CzIJznsmoDNXtJdQesgs5mMaD0FPOpowO32KLKRZDpo6UqAmXIDM3TjaNVC4EVtkLtX+GSVLStMdoMqHQIG17B4kkZIMMI57RdIKPYS6VU5aBYJuPimIbd25bQ4YLO+D5KeXoDNncwSTRSzFA96WnyedAbQ9LVWXkJgyMw8zOkck5tpgiviDxRT3w8z1goiMcqPFYr43bAZ7T02OwBpOl2I1NSiucFlMMymC4ifElWpZUAQlhd51Pm1kVc9MIQEYV6xWcx3qhODtFT05hZx9sP+gPNDhK0mL5vzhS8EXO5PUrzGRCUuSk6hqxUIOE6muAqkT1xp0/jFJQPTgk5lQy4GBWlKAOKz6k1RAbxYOopI3ce3B69FGNAKKN1CDegylJKXHjU2bnRyS798Fnl3rENQATNNBEqw5eKWc554dHiI9OcWJRm5B7okft/O9DtnofvxNKI9EL1FJiKHKP6W0HGbBUUvVsWKGfGLQsUV8EhzBjEA2aGF+DRGNZmBN7CBN4djZidnrGcM+RJb0QadoCP6kUv58xLcaGgOJdEebNLKc8O6MYjehrtVF0PXFc9XXAoyBqQn3qNEH7lkJghKJpj2Rzm/PRGW46ZuI9AyyZVdIIGl5C/2tkw0UbbjgaJRGifkcV8YbZ2Tn+5AzyEtMLrbrpOuLXSav2sPbhCn/LouTkzVvIi+BwioIIHo+J4ysE0EclKOI11ElyIpSG4MIBwRNeleFwk5Qe5azATac4NyMpQTUJJhUVDDZOnpgZJopYUaVTNSNUAEGxAuV4wvT0jA3nIYs6GG0/2fKgredg4sTEaxC5i5L8fEyGCTFGJhSzbzQ1lWo4Fu+K/r5elMImFMZQig1KvKRPsrHL3ve/g+E2/uSE6cEB45NjpvmUlASTDnFSolpGuPNRabweGkShGE/Iz8ZslJ6kZ2uX67o79IsQjGqqns2IIGWBjicUZyOK8YzB2l9qLdcrleu+4ozBJcJMBDYGJFvb9O89onf3Af3zEWfvXjM9ectkeo53U5wXElMGE7dfkM+9hsUizUaszuFVEZMhpeLGUzR3YfLHnL964UjfTtKOv9tzr527XkvP9PiUxBPCNwgWVB9/XMG+8VH3pVF1W23URiiNCe9pQrKzwfb9R6SDHXTmKY6OmR0eUEyOGc8OSdWTYEjUhNpKBDcUNUFP463Goas2h2gg8UoxnpKfjKBw0K/0N+v7Yi3AeB+VgF4hd+h4Rjma0MNgiKVHIJrG6l9B5DUKcXh15MCMhNJYksE2vTt79HYf0N99yN73P8LGHfTsjNGbl4xfPad4e0B5fIoWU2bFBEt0URZPlhjUl/V9limot2ajKeXpCJmVsGFCzE00rTWu6V8QyFT6j2oyjMYUZ2M0L1gqskhbTpbQv9pElZQIpU3wgwG6uUH/0UM2Hj1hcO8xyXCXrVnB4OiA0dEbioMXuKM3zEYnjCfnZOIRVXrWkGDAxdCEqmieRLWj96gPqVIThMnJGb1ZQVZ7ZVd6oko0+Pwo9KfWf5s2YDqP5jN0NKY4G5GqxIUOakIRNVszFdFB30GpoNYiWZ8yWn+cTUm3t9h5sE//m/ts393H9rbAGcrjU/KDV0wOX3J88DOT0Rl2WtJzEt0TPL1EKF1OKLYXffQFkmhtqTegyYzifAx5CU7xGrftxeG5rA5G0WCCcR6mM/zZCDeekmh8YK2uV+WyiA5Y3gcTsyi5gYmx+OEWdniHwYPH7H//ezYffQeDbbAZJH1ksMnm7h02v3lI8foVx788Z/zugOLkEHUFMpth8oLMJq2JB8sQERaLm8xwJ+cwmsJusICYJGmevW7756uWaWk5ainH+jDo+fmEcjTB+BjV0tK8Ba9OWr8OO1qAbYvrZbC5Re/hY4aPHjJ8/AR79x6abeJ9ilFha2+fLf0d+ctnjH99yumb58zevsbNRjAZYxNDgg1GC9d4cTup4m9CO4yG4m2jd0dsjGdkc8P5mQ4MlW6kMWjUEdAIqKKuhMkYf3xMORqx4YLCRUxQ5lZpeaqgUFHBe8idUhiQJCPZ2kbSPtnGDjuPHrH3w7fwcBdvEtQliDckd+6R3L9P7+QhvNnl7PUrZq/eYcY5kpdoMWOQZTBt4NBLtAxGcAnzCiR3MJrBNAfn8I5g4TJt/oy5BbUWYIzYoOBVcNMZ7uyMxGuYtNFkhrpG7RRZupnz5OLxvQSzMWC4c5fB/Z/Yffwjg/uPsVt3IOkHcImKYQXIMmRnh3TQ496jx3B6wuunfyI/eod/+4784BAdz8jSaGJb0tbHdivYUmGS40eTxvTaNQs+0zncJCpq9FCigRuQPCc/P0fznNQIZkU/VeSivmTqQYcDhg8fc+fHn8j+8FeQ9cH2KDCUBVhryWwaPG69Jbv/hGxrh+1vf2Dy9hUHP/8TxdsXzM7PsN7Rk4pDqtotcdOrWEjFOqU8H+HHI8hz6DUBdp/rAAWAqXMP4Ctdhza6Ll963GiCyV1wMLUGtdHjPbLXpsoppSEAsjDCCGFalDzYu8c3f/hLBo+/D6Ey3uFtRiGWhCSCeoEMwfZT9u7fYe/HU97+1z8zfXEAhycUp8eMnIuFC030c2qSX9XKZgXrFJnm6NkY2fNIksybjDpoPcCYJBS7VZiOJpwfHgeAUR8ntGK1xEb3ZdUgD/b6fSRNMDsbDL95xOaT3yF3viXZf4LJtqIm2wESWTLBS/AONUlG0ushmwK7W9zb28G/OWDyzz8zLi16eohngqGKuF3gYGJnGOcpRxOmpyOGCmlmo04r/uaLkI1agxuVbWIE8oLJ8Sl+lpMlKcpsOalT6+/CBFfxuz/8yNYf/gL78CEy2IKdeyg9RFNStdhoeCjxGCcYY2HjDvSHmI0thnsP+O7Jd4z+4f/k4D//v+SjKT2TYq3FOo0+LorGxFOqhBA69YxHI9zZCMYzIIPEYqz5LA1/RpsNwEXu0lK5acQxEstslnPy9h0ZQirhNwXhvUprbDWAcppm+BK8Sbn73Q88/rt/ibn/CPn/2zvPJjmOJE0/HhGZWaIl0CA0QYghOVrs3a3dfboff3a2t3dmO7s2kjMUoIToRstSmRkR98EjsrJaAUPOmk2DdFihu0uliAgP99fdX1/bgGptGTJO/r/H4KMeR0qLNQXGDmFtxPUbt4i7B0z++BG7v/89870XbBizksZxWiSqOxVnC5qjY8oYEWt7DuD58powtRDxiDQ0zTHzyQEuBmxGTLsAhNauRDQfYt4GZgLODBitXad85z6s3SIUIw2HxtiLaSg3qEgiJJYUKZKg2b7DEfbGO5jDKc1Xz5jte0ZWcvSdXnyCHqqICZ5QT6nnR4xoEGyOQV3RPfENRVTB1CcnUDdURn33vvTvQUQjezNT0W7uYG7eJV6/QRsshR0TUUKiGIToSRtBIBqjCkIEcUOwQyQGZDBg9OHPqA5eEb95rtjdol1JUVhuC6kALwbEe2Qxh3oO1VALIjtU+OpJTnVbXYBCDF5J7Zs5i6MDDg92GYhPG58GMTIaFgmahY7Q+ECUksH6Jmu3buFu31PrsqjAWHyMtCEixnUtSsSQWsqURLHUTCEWWCJ2YxN3+xb266+YHbzC47FxldBN3aVk/UqA0OLrKYvpISU1RsquFu2iVXUJzTs0vibGFpoDFidfMTt5jo0tLi7HXYlxNCFZlY0QcURTUaztML7xABluK1FUprzUK0+bbq7yFKyYVAFtMaFAGILbRIZbuGs7sL3FQWhVSXW3IJ9MHxCMGNPS1gdMj76B2SugRoN5am52HIBvjSyX7fHuC5rkoliSElh5rH7Si8WPNpGdO8h4B5ERphjR1bh0kzUXvirIr1QZCbTNt9NV2O07sHWHhRsy8wFvhcYIjYHWaI5WECEmMupEtMHxq+dMDvfUuu30ylUcI+nyeByCw6TFm3pCB480C8L8mHp6qGU04hNfdVwWm0Y0xcNA03pCFKrROmvXdmAw1AJECmIihDOi+I7EXPiYH0LEIlQYGROpCMUIu3GN4fYNpBoR0rnlzyIKNgf1hEEizrU07T4vX/wVmgPwJxoSkLgyv/pyiQUTCaHF4vHzQ9rJC3x92IW3VLtpgp3HpHBWSGaaxbiKcrzFYOMG2KHyf6Sbf3qCi2SQMoNLmbEVpcl04DbWcTvb1FVBS011KqEv+/P5OWs9TZhST/Zop69wGxuAS3wbV3HSrkoX7qW3yccAbctsf59YzzEEJF4UbVtKK5Zy+wZu8wZSrgEF1hTptiZ/PAF5mWAsF1bq8Zf1KIKBch2zfoOmeEoMB+papW8K3Za23PUMESue+dErFicHjEOumbl0//sHFukieplzWN1zVcoSA6GZE+YnxGaa4tYafeuitpK/SSVvoZQl5da2vmILEKfjJBp16n10Zdh1zJTsS9dtwFYjqo1NbDUi1vPehpsAeU2QUQtFIsYEiCfMTp4RJy+RqkBKPYeLZtglI5jAOSPU02PqySEmNnSERd015OQ5/akPgxQldjCCckgUe8aMOg8bymHvkNjpohi8RIIVGA1wWxsUG2v4zvS86MwjzoAzkdgsWJwcJW7glNwV8028uoomg7rLupSoHMiLOe10ggSPESUI67slZx4CQQxr13Yo1zbBVjppTXJRiIkGIjk1K1FJvYcdf6woWIwpGG5uY4ZD6uh1F0wWzum7riMdsFFd2rCYQlunsfrPvYf/qdIjPOuy0COYhHO0ixnN5Bhpa2wMWmsXA0WIuBApQqQI4ILmwIgxRGvwpYP1NdUk3RGWd9TIMvJz9pFdIE06Nc7hxmPMoNLq6vxdnQFBL3lWM/qdBFxsmO+9JDZpnC4ZqEu3CBuVCWt6MmV+dJLSx7Uauc8ynkmBvdApGlsW2OEQquqNPJGIaszOjLb694KGhQRiVVKsjynHw9d+n0BytwyxbpnvHxPrdnU3j1dbwcByaXdLPHqYzWhOjpDQICl5amW8Tj3y2G1ubFINR4mPRc7fAd5UDIw3N3CDiiaogtO+PeoO5cYTmbfEiPLNxvmcOJ3ColZlebWHZ0XybNOarUgzn2mkrfUUYalYXIgUHlz3UMbIKIJUDjceQVVBr39YZ3dcqFhOPUQU9zKCXRvhhqpglkWmZ3O+JSqvXSEWF+Dg5S6haekqky+QS0Fe9cUM7WxGmEy1fuQUdKG7oOB7ZlUQTTN3gwqqAomvN3W7yc7qvPKd5oyIM9iqeO13QaenoWlpj6ew8PpEjoC+FZO3T7Howdc9C6ZBTDiVM9T7pNrs3SQ11qamd0Zf9H6Jmf0tZyQgIVCsjZGqwifwv6u6Tq6sUqNKZ4EZDHExI85m0Cx0Z8y5D1dR5Gz4q+tIFT3tfEo7neC8hqhtD9dEVqdnANrgMVXJcH2kz5Ru5U1y+TpfEZO6bURrkPEIMyhp07o1+QT0nQmu0PGToNS20gam+4eExmu92GXHuvCVPMn29ml397G1Z1wO9DaZ3FTbgDHK0ZpAIUSo24ZqNGI8GmhegxFFzoNmdeojdmajpNaWebFkDL3PMxJjoCoL3rnxjgJJlygIDalFTBthWjN9uY9yXyX+klO7+NWURCCUH9ET65r511/THB6Ar5EU8THZesiPmOqFWs98OsViceMxUvT3m7MzR4HD04CxutGKo+m/NqpiG62NGa1tEGLs7G3xYLymOlg8krhKXGhxbUO7/4rFq12UPvPy/J1/dMncOUiODAWggVAzPdzn5NUuTrxWuUtUEN1kl7T/PTALDTKuWLtxDQqrFKOnrMzOQuGSR/Z2iwIpCqwTNm/uEEotOwh5bfcTM2NK+AsgbYR5w+GLPeJsDq2/VLNdomD0yuJkhkwX2DbgOmBR95zlSWS3SRfvcG3EcGsDOxopEv0GurVvQi6zF/PFGawtKcbrrF/f6SbzpZISAl0bkeMZ7O2v3IyrrVx6E6WbuJ7Y1kz3dmExQ0KLiO/wk/4kC1FzTJ1zDAYDNjc3cINEoA7kKN+bncjqnx0WU1jWtrbY2NrEe98z0XOb0ZhATW3MZ2OgSM3e2skJxOaKK5mo4G0X4UyE+b6G+RRmE0zTUOiIXOjCxoSDlOMh1dYGZn1MdAaPTzlFf/uZ6RgIuBKzts7oxnWCMwrqSnKSVgDi3qbtA6YNMKs1S771Fx0GuMhFWmJ6NNMpYb7ANMrPqi/3F7jOnFzoGAVcZXGlQ5zR2gqWk/syXdMZ5GlsouhO64xgxCC2oKgGPa24BKVW/gYN+cWoUbDpnPrlHuWN2zDoofqcWR9XUNIEjkrCPj14hdQ1xurO2eWQ9u57jLGzPApxlGWFFGVK+V66TW92+PTFsjybmKzZoiwpi5JFULoGVSjpVHo4jEn4USWRMJ/TTI8h1MRYI1JxFhq+KpLGRkg3JUCoaSZHhNmUgkBhRJ++JN+nNUDpMINSq5idJjtaWXqRPSz29SLpP2PON0zvAAAfu0lEQVTVihkUiWQfTeGApNfzfU8xwORlOAum9TTHU1zrLx2ZSzCY5O5MZ/j5AvGhu5JgglZ3dl+dzXXNW1ws5jSLOTQ1hICxJPdnqWriqSUuaTfOu1t+2SXWRmlb4skUfzzpfResTrwl6BVDarMZnKbOHx1R+JbkfqaCruwVX0U/X/LY07EDhpZmdqKkQcaT+ygqEVHP5E1KOfhAGz1xPmOU6BWJaUGIZp4u728fHVveseWzeSKme+9b6vmcelHr5pCJqPu7V3fbVckURBaLGc3kCMIcGIG8Ge/IP7bEPCn1vkxO8LMZRYzaPUDO5EKuSBBYtDX1Yk5sGwg+wWN5nchSs+fjvVYChIZYz2nmM0jZ+d2cIkEgycJSvC90XD5WAvXkhEHbXpoL+Vo7eDaZUs8X6kdLJKSkIAi6E5JN8BTHj3rg6e5LFgcHSN0k361V7IVlYV6MmZY49TKWvBy6Agyt0QhBq06/ecbk6dPU5I2VubqUvKO3SFTicRNa2tmUGPRzanr2iZOvnijlYeK4aT3UDXExwzdznBMKEzHBI8GfmQDZtW29p17UTI4OWOw/J8wOIcyABqQlSqsYAk16tJ1yj6IAfECjh2rVat278Quao30OXzzj5PAQJ5oor2kVebtN+RXGKG2DaC5MbOe082PiYqo9si9uevGPLzksnIMcoj2/F8cn+IkCvK5z2eVCFwmgmc6ZvdpnvvcKmdcUaCKfqgCDthNJb740hJQysWlgcUK795KDz7/ANS0uJCKwFALvmxACS/wuBCoCi+N9fD0n8/yeJ5eDvHXD/t4eJ5OJ1jgUgjcNES3rJvO6Ro/Bd/70QCLHz75h97OnhJMZLBpt0p3A3Nh67QUTDSEaQnT4aGgkUhtPY5ISi14Tj5oaf7DP0eef8+zTT7qFk0tO+4BxouJBpMaZBmdaQjvn6PAAfzr0eTV1y6oEYNES9w/xz19wdHLEaGPAoLBqQTZNUunmzMOIZVANoVmw/2//yuzTPxEnr8BPiNLgTUOQBZEFxIXiItrfQRuZiJIcZT47g0OioQgtu3/9E7uffkwzmXZN9SxAyuANxoIrsEVFG3K+hfbeCrNj/OGrZe7SVbQwc2O6UACFbghpQzzee8Vi/wDXtEjTpAhQbhd79mGjMEJoXu7x6i8f4/f2IeRiG+klrKTQ9UrizamHDQQWxFq7RE4/fcrn/+8/KCYLBm3EtQGTaFpMsoxzImDuAeJCpKRl/9mXLA731aq6QC52kWKkOTigWSwoywE2FCzmRyk6ljVW7HzoVOiNRENpLNEHJp9/zrNQcucX/wS37wAB2hoRh9iCKMqupRi77V0MZGBMCguzBXuffcrLjz9izQiufQPgzwjztqYNjmJjwJe7z7nhGwqW1uRV1y8xgBgH1tI0Da8O9qEwHM0mDPyccVFQmIJ5ff4SlcTj6qJn+vJr+JOF0jB+8qEmIrlKp5VJVlAUSI3W+n2VJXrNkfI1NBMO/vpHTr54CtNJolRdPW4Q0cSuINTzmvXRGk3dMFvMacsBhUSm0wkbl+yMV0LO8+KnM9rZDB8iGJc2veyOXiwD62hC5PjLr5k0/5v3/7uDa7fBrQEDNDlSjxXNxd8liX+XZsHx11/w7C8fMahrBk4oYiogNnR5jkrZuUwhMQm3aX3L0fExzSXKBS5TMCK40QBXlSwixGCoZIDzjbpFQdvKKmaSfPGYCZ0ihRWmsykvP/8UMxxzc30dGa/TQbkxpGvJdFJo0UMkhS7VzeFowuGffsf8879S+QnGL5C0i6YTZdWY03XQhEgsK4IbcFQvGO/cwzi9XNP75JWVqGreGIO4AgYDZDCgdtqUzjCiqWfUiwZDeSrkv/waQflYB76l3X3Jyaef4obrVHfexZgRjbEEHCLaOtREk3AX3c0kthjfYpqaMJkye/kle59+Qnt0RBVhYKzmeOTci44ZxWhrGiK5S0E5GjINSvextTaE6jW1uP/gshpMSCUyA2XlXwgc+5ZqNCTU04R3XEQ/EhKdQqSZzZh8+RVf/du/c/MXBrcZoIpQDojO0SOGOP+7aJGTA06++Iy9Tz6m3ttjo3QUvukwuNAr04gJiw2C1o4ZRywLpvOGcmMDceUKOnf2eBeJgIxHXL97h2p9nToKbTBIKLQQUZZNutS9S2oiEeNI0FakMpuw++nHTL58Sjg5VKURGq2a9Q0SGkxosN5jvXKDmDaqeeznTD/5M0cf/Z64/5yRNEg70yzESwY2IHhX0JYDFkXFoii49egRrqo6/z/FmriS5jfJEhZUWziH29xk/f49Nu7cZuEcx23guA7Mm8BZnH/1mm2MjAyU9YzZ119y8PEncHiMCWCDqpKYOvpJEExIWabBa6JYs0Bmx/iDFzz7w38wff4NdjGnEihSxwFSNmpMmERI/ZSKqmK+aAlSMMdh1rdYv3OHanu7wy/fBlH424It2Ln/gNHN2xwbw1EIiRBfF7L6AefkasWI8Z4qBNZ84OVfPmL69DPC0StoJ8ACkQahVYsyhvMfoeXk2Vc8//MfOPj8U8p2zrgQrKTX6fcQSz/TQATnaMqKqS2YFwNuPHhEOV7jMmLT87eI7NoR2bx3F5m84qiZsdh9ThkDhbMEIt5rLYIBBeuyqxOMKhgDkcDkYJcXH/2OOw4Gd9/VEvM2oi0DtO+wkOgaTFRf38/g4AXzTz8i7n5NUZ9QGE/jW8ReHrYMot3ppsbQVkN27j5h6733sOWAszr1aiqY/llHARmUjG6+w62f/Zxn7ZzpVzOq6HDOEKKsXHVmvO3+jhEXGoie5uSQky8/pxhscM2NsZvbiFX3VbzXVqcRbXguNfg5zI9pX73g6LNPmHz1FNdMKWNLGeh1e8gVvWl6hYZoIq50zOY10Rj8YMz4/ntsPfkQu36Npmkpyqsaok7S4a4JIzGWtZu32XnyPs1iztHeMzYNjKxFotC2jVLVSseoDeSEVE9phMIU1JNjDj/5K64oGJqIGA+MUo5YLy0hm6uFg9bTHu9x8PmnTL76Ajs7YmgtEiKRlmUb2HziywhvEN20584xtY6tW3e5/qMPKTa3EWNXJ2RvuC7n5G1r3LUtrn/wAdYv2J0vmBweUJqCED0hZvZ3ddSiOMCRG3Cb6LFEYowcPP0Lm+MSa4I2q8doVb44uvQ6cdpBIDRQHzD9y+9on3/BoJkivia2LU5ykPQyBSPUxtFUys527+c/x1zfAacMele9lVdUyv5eAFnxEFOVXHv8BD855vl0RgyviCEQ2vqcu7UMLosofmJFKMUwPdjj5Z/+wGiwhrt7n+jUrRVviK0qpygNSAPNlDA5YPL1F+x/9Geq2TGVBIroNcWgl86QnCo0m1pboYbg8cbQFBVrt++z8eQDBnfeJZRjQtNyUS+Ef2jpojn5RwYB1MVgvMbWw8cE3/LN7xdM975kUFhNnpdcGJpnqLZwITs+XnvEbzvHyYtvOCwsIdZU9QRGY8SWXdRKQLPxBagGtLMZ068/Z/bFp1TzY4ZOcKFJeItPuThxJbKqXokaD7WxzIsSs3Wdu7/8NYO7DxA3JIil3yC2nwV8CQYD4gwUBnauMXr8mLWTY579+yFm0VC6JaWmdOS/johNFZ0RG5tU0Rtp6imHT/9MPH7FeGMLKQa0QfBYgpj0uRKLw/ka6gO++eO/MQ41ZdB8Gg3N9gggOz2zOgWDCK0t2Lxzn1s//SVm5wYMB8nX77/3KqsZupB7V8EeDRKEGz96H06m7M5+z2TvJRuXME9qz6KQcC2wfkEZHe3JPrt/+HfGz76kdQax2vJCGsW/gvGIeGgW1McHnOw+pz3cZ6MqscEvy0CihlGjGHIvK0OgFIMH5os5rYwY3niHax98wODOfaItMUEYDDYgYT5XXyT5tQrKu61rbD54j3ZywDcvP2eyqHHG5HhwCt3rx2JqKCWSaWo1XWAQIodffcaiOWF88BI7GCG2oKsoiiQLRjBGmEymnOx+Q9x/wTjUFLGlbRaYoiLGiO8R6XeWZqKYAEMTBbe5xc2f/pzxoydQrS+rZS+QSxUMzimYUjjK2zdYnz/h6OVLFrsvwbcMRVm7OvMvJjcH7TBnY0shgdIFBpVjcvKC/YPn7Kam6HVQv9SLhqqtHTJ0FVXb0Ox9za3tMZGGEFsQQXCsdpGTXjioB/IibF6/wfqjx5T37oGU2lg99Iv3ri7+0u/9G8m7niGKpSo3IERuPHiE3z1g7/BQMa9zAcTUUlRCym1S/7tsDaYJtJMJr778RNPSg1eipNT7yNuQQH4Q3zIQuDleY2M4YHJ8rH2PALU3V+1niUabruEZDQYczOD+48cM33tAu75JaMF5hykGEK9eVXW46HyjWUZ7SqHcusa1ew+ov7qD3/uG4FsF7RFN6cg5XaJzOohgTAQ8IQZMW7MxGHHyzVfMXz5nvL7Jq/2DpQWTFIwYQ+EchXO4UFPKDJoTApHRaMh8Osdah2bkJwg/ssyzSXzAo+1txo+fsP3oCQzGeklkfOl8uTST17iCSEMrBqkGDO/e5+5/83z1L/9CfbyPbWtMaBGfF2tIn8x/R50gPjCfTynKgsI6AkITPHU27pMJaKOlDFDGltYE6skRthItqJQcgxNMMuWUWjPnEGjos8UysyXX777L6J174B2xqNAmDebSm3HlJCVOqZMkhNwJS0pYu8a1hx9gFy1Hn/2FQjNXMOQM3yypYV6K5Eg0uAguBpCW1nsGw5L5vKZpa6qqJMiSmU6sIEFL+PEtX37xBWvjNawxyXrJ7fKUUFqCgr2Bgrn3zBvh3V/8ivLBA+JojehKMBbjVQl1mNlbMGwxVaoLCg3EosJdu8Gd//4/ef6v/4v53guir3FdhDWlAeTIm2higG7o2pjNhJqNwmnS49E+G1HpYUHALGvQQjvHNPqd1noNVROoFwtMofOm2wiSZxDJfcwMc+tYu3Wfzcc/Joy2qScLZTdIvcsvksvjgJLoL0U1r4wLhu8KO4fHfPO732KmhxTeJHo/pc5LXYqRxK3bJt/TmAqJCgAbRDMRM2NWJjaKNcZ7TAiUgyJVA/e0ZKplyWHq/DrGIrYkFAOOvWHng5+x/vCnmI3b2r3AlOlSc+xoFcOJyaW7KtJV28acP5sXsxaWGmtgraR4t2LshcV0zmL3GaVtCGGesnt9ws9MivAUaVIpp4VJIUJnhOBbrBGkdLkHO9YkEz7Xp4lQB+XkbayqMJfSyg2CtykZXiBgmUbHrLzG8O59xj/+Nfadd/HlGkGKBBrKkj/giimXPsIXV/F0cg8xEQE3xK5fx1UVa48OOZn9Fo52KUJDEVucRGqvvC2JpDRZGfrTiCDRa2EvaMJp1xYmHTjNFUlEa3lcY/Y60PEJ+nSizxB8FOY+4p3lJMC1B4/YfPg+du0akQLrHNE4XlcU+xo+GFEybpzqUldgNiwbH3zIbHrE7OlfWBzVGCPYoDxzprMSTDLftZTfGJtClDpbrEh3cLXkIuQQGxGc7Xa9mN6kt0x3YVLMSrldC1pj2a8915/8mM0PfkG5cx/K9QQiK2l1Plb/CvvPXRnot7fgdKdLkYO0X0XjoCxho6K6H1mfTXk5mxDbI0yjo+ly9UuMGn42jphS26NIsioBEdqMfzmLT6n+UdJOHGNqqaGUHKastOyflOXd3dNMp2qoRWjciOLmPbZ//hvcrQfEwRhvihRpyrlS+VqvyLgk6cB36T1x6hJiNArIDgwUFWsPf8zWZMr0KYQjpasIbU1lC7xPVdnZUkiJZ3prIjElIoicITlJ9zBVXUsvMBDNSqpDDkUr7qKYaGsch41n6+FDtj78CdWte+AGRBziUhHqSl3gWbkkk1fU2hCl+cs0luIs7p2b3PjgA14sjqmbGc20IfdPknT9EmPvxi5zZGLmDYl0ky/EvuMSu8Mvoabla5r3mxWMhj4XYpnbkri2zTs/+yfcjXeTctFs4VwxH5N+u8o0DRdJlzae1WRyX+zmFuMnj5md7HL49M9Iq0ldLmVOZ1LvjJ91vRp69ygmtDHTcVwkUbI/nik0Dd74ri1tFO2jvLAOt32djYfvs/boQxiU+Bg1N0bNIl0XV7RO7PWSNzajvYWspbhxi50Pf8yhNJx81lAftpQ+UAQF7jXRbbkFdlxckpWDPhHPZD9HMgcSCS/VHDZJ67XfoFeSUWDxpiDYIcYWvPPTnzN89z0Y64Ydkwu2SppyvpJ5jYJRFM9K7uWiOcQhCuXNm2y+95DD2QnN13NlQvfKzGVCpnDMJmJMdHzL8ziFy76x6NTzKVXd4XHMpaTduM7DX/0P7O1HRDMATkeMlpP8bZGsSC4OEUEsDGZrnZu/+TWLxTGTp3OaNlLEFhP98o1cNEXeQDpXKW8cyV0T7SZgotItBiwzawmjMet37rL17gMYjEAC3jdqFdn4refGVZBVpRnzbSMWhuLWHdZDTVPPOJxOKW3F4uCYoSsQIj5mjJPOYlkZtFN/9hnyOjeg/3rCLiVboMbgRUngG1cRx+vcefQjirvvwnhdScbz6L7hZHkDLkttXZFDjiFCM6uJ5Zj1ew8Y3r5LO1xnYSu8FGo+YVPbhthxyOQL/nvMm2iChqKNozEVdmOH7Ucfsv7oA0RKTRVYoZP4fkoUZZebA3LrHg9+8RuK7XeozZBWBgRTEcWlavbvdCSymWhS3oaJuhu2RqiNobGOuVEAvrp5h/HDJ7BzA6ZT3bisTSyJmVdI2eDepg3hPIlE2tDSNA2hHFPdfY/hez8ibOxw0BjcaBOPU5c1Lu3UvvTJ3zuSttgra429h8Cysog0VoYYHTEWtFQsTEVTjSlu3OLar/8rrqwARzTFqbnSC+ZcIBcTTkE+m05l6t7iKMabCDVs3mD7/Z9hArz4wx9AFjgfiHWtodFT/vNFk9gkra4N2dIhO01/ygoRoREHRcm0LZi7Eev3HnPz1/8Mwy2gwqZ2KudNzg7/egvkdS5ERKBwGFfhfY195zYPfvXPfPPb3zJ/8Q2jwmLqGccHrygHFcb+7TdGen49AiYaZSUIgegErCqwWIzZP5mzfu8em+//hOr2PSgGyvsrBisxdUNckpSTy0/eYB/8R5TVDfVsmoC6kRoZMuVA3+MqNu4+Rn7uefp//pWT6YyBNZg4R6gvxQkFeu1lzn9PtuKDKAWmjQrqi1ikHFG3npk41nZuc/dnv0aqEQyH4ArlBjaay5SP8boN4PI8GDn7lDo/pUZebMRsXmP94WPwgd0/fcR8NqNKoQadIyHhN99dNBfA4kWoY8HEDdm6/4h3Hn2IHWyi7TNXd+P+Jby+ZvVtEwFxICUtYMoRxb332DyZc9BG9nefUy4a1jY28aFdycb8dpIqrAOUrqCOLU0TiKVj2ras377Lzi9/xfDeA2Q4BuuIxqbaG6N4QrJgArEjquqhvVdULrqvKcKTuIk8SlVqqg3Wbj/kwX9xfPl//wUfPZWvKZInAaeQSTl7hItoq1WpsWxPi4K6xlaczD1NVbF15y477/8E+85tGK0RncMboUWIMcWJlwGqS5XMuQomf2DlpPsXFtWSQQKxHGJ2dlgjMj+eMP3iC8S3gOarBMmMarZDqr+1CGrSF46TIIzvvsfW+z+hunkXRP3DJRAp5wYgzgH031rRvT+PlRBcwIwda+89YTGbs3t0iGkXeMlA399pG7BC6z3GGJyxLLCYjQ2u/+qXjG7fwY42iK4ipCZgah1blrxumeozkhuLXW05O+dXl0JecAaiAyvY8Tbrdw3Xjw549fEf4XiOaaUDzLvvuWQ5nVZC+bjekKJP6Yl03GiE9evvsPXwRwwfPIa1LYIr8QZatAuEyDINZRmHufgkziiYeOrRnaiw5DAWNKdFLMEVhOEIuX6dzcePWZyc0PiGUCvpdJREBuWVriZftqQ4fv9uRYmnCMwiffM4itZDTGOJ2d5h6/FPGd59SByuIykcjfSBy6tpWv89xUTp+n4HEwnOYXdusvZwzuLwgNnnn3CyOKGQVCd0ZjVnO9+kCNzKrDhHBKz2ShaxSiw1GHHtyY9Ye/gIKYZKsCqGYBLlRIIb1Szum85XXrP05Hwls+yxnjKc0dwzbIWM1rj2+EecTPZp2wntpKafJCk9Hyz2/l89wjIqm5Wa/tTMezHK71PHSLV1jY0HDxkmUDe6ktYYMvW6rsYebJJ//q0WzHk3wvTOPSsZdUccwZTYasDw/n3Wj0/YD57ZfiC2auZqC027DInm85K4NNOgq7lYHjf0VHQkiGFuSubDbW4++inje4+xa9tgijQxs8mZf02lcm+g5WXlr7dJEogn6p9HAtEWjG/dhQ/nPJ3XHO09o6xPKPzqBFZZkovRVfhevPBjsm6jU35DqYas3b7P9Q9/DsN1IqUmGSTu36yvuh7YaMnDyq7+Vo7L0prOBcP5XzQGnMOYAfbaDpvvPeZ4cULdzmnmLSFGyqJQsqqYIqvnGqC9sUr6W9lmk20rFrGpfnC4xs79+wwePMBsb5E3ltA715xtZbrvvui6luPlzvO7E75Gl/IfzfJjnQaMKafFYkyJKQWRguu//BXzGDn6GBZHh1Si7U6CD4p0d3ZVPumw2v5kxf5Ll5ee9GJoRptsf/Ab1h59iN3YgXII4hJ+sAyVytLBXPUVT+NK3fHexkmcwPP8nxjFNYhQjSnuPGArGr788++o976iqk9wXej6gm+7MLFKb27EECLMfUSqIdfu3uf6hz+B63e0mt0UiBTKahhX77+kjGTNl8rfmZKX3jQuekUku++6AcryGgXNU7ElBFU0O08+xLUzXrUzjl9oxOna1jbz6ZwQ4molc6dP4rnDlHOVgjFK8y6WaEve++BD1h4+wV2/ptQOhTZ2c5Cd1S5b3KQJdVFOWf8pCSFcMnKr+uvsyUZCV+MSMLTQtsSjQ+av9giTE6z3+EXNYLCsWYgxEoJSLa4ouF43gWVjr3xoIRiHL9fg5rvI2jYY27XgcG7VGDvdOKq7uacAMfN2zdtzpK8Q0t6TOnQaEbxvOX7+FfLqa4rFBJsUzHkjfhGm1V/7QZTqx1UDzGiErG8hW9tQFGAsXhxBLETl7zVxGV3UjSGmM9Ynu/LUt0zBrMrl60zaGfH4BfHVN4TjA107nT7qww5JWZ3BRE59rwCi9X2taMZutb6J3dhCqiFYlwB4XdV5jWYCKiAxKJyvYEzvWK9RMJdI+uYoubKnl/MSWmLbEH2LeE8M2n9YSWTzTqeaOsIyHN5XMCHZfInYW5/UsgCqMdEWCgWm14wxXWNxfevS3fp+K5hV6SZLUuAQ8Y3yuoivu4lzkZy7zrvnFKTzk2NMVWqvJZvKFpIpnqu+lQXfcLrJ15njnWdYvtXK5rQkOhS/UHIv32oH1Zh4krsiYHrrp2e9dLeq3xsrKyFVMlEEsY7gSoK1iRYlrem+XlpFMC6U/vB8dwWz/LVbrDEothJCS2g9RekIoSG7MEtzOhsneeX3FEx+X6c9++Cz0Xh/10WdJYKVL+yUgulQ9O+5gsmiNUQR79ViMUYn0+kF/dq1HPu/qM8TmzkY8K0nEHFlidjcV0DLO5SCMzXd+EHBXCKRGHK9Uega5sUQepsFrKyVczeBvADSe3PtWkoh0cZruZUPZDJ/04MwTlurF0n/Pd+eVTmvWllWMnTXYPJPQ3QQrCWYuGJqEYWY6Tbz6WcumU7DLrVBTO6S9riORAPmFP53UR7HihkXe5P2+zRPe5JL4rSFbDZ1TbdzqUj348wa7983WT6ZnZtYjSAGAppbE8R2VfaksZfzvusHWUrafXPvLt17beemxKTMJeZyA1lW2Z83YCvY5qqCyRuDsATFRNQjWXGu3nis/h4u0ooNpr8vE9zO8q6ErvlBz5ePsaftev6dQFcdHLuXVzCceEqVisiFtH0/yKoEtCgu9sYws9b35XSyVv79vF2sZ3x282AJvEfESKIMyJN7ye9zmeH9vbVg0lpY3sveS+lnd+cSAiukMYtn1+bqh3v3PCmYQEi9rpefyYkLfYKzNxHpvf879IXI2i4THmVJUQoFV/I7U5WsWfm8cBok6qV7yfJvur/Tu86ZYN89C/X7Icv7ZHrYVsjxt7PvP/X3mTGL0G9LSzyNqaQWE52beur1N8k3/0HSjY+rLv4K96+uHB2fU+ORf4Wexs6ROlUomk2dCa7ybPjueWTfWsGcV1ekJeSpVqF3J5T5wXSKQ9NdYrJqVJbhtfR3+r4oPdBRTlk1P8h3lOzL6qQ8fVtN34GNZ/fDDHOlDXS552SJUY9hIBjNaQrS0yf9wb5A7PfBWjlPTrk7ndXeux+5x1T3tsiStQC1JLoNm7Rmkz5fLk9Bez+s3udcVmP+RusFVveLv3NnK9NNtP5sFLSwKqxY4apCVgG+1SncI0w89foPO953k9P3zyTm+svfdVoyW1t/EusLZ98o0fQ2i2T5iuEH6+VNZNkDfuXWSuhyU87cxyhn9fcp5dJfbUsY1/TDL99ZvrWC0Q5/SxWQTzCeqq7t3i+nJ6KCgubMdZx6QsyZS/0BX/n2kjssKu7Sf2V1Ui0n5eX3+sxYS/a8VneYZeLceRbJ99RKeQPJxZ7ZATqNbXYb8Cm+pc4+6azFVWB95VskWZq98ZH89OrZXFjguIQ1/l5RJLLPfmb5J9zuFGB46mc+qdepiivYFecKyEXU56fHTP42QDXrrpAiSp1S6RypU8d4k+/+fo9/3w4RhNNQ4xvfnV6098xn+tphZZO5CCA+X87zeL+ji/S3Df73e6p8f2TpCl1ksfRE4urEPDOn/3bX7e2S1YX/Xa/9De1RvotV2f/k1e4u/oP8g8ubTdLYQ/hPe7+nTfHzlNDbLVdPnfbH7Ac+gx/kP0EuXhQ/uLxXV77NyP1/4oTilPLGV4oAAAAASUVORK5CYII=;" vertex="1" parent="1">
          <mxGeometry x="590.04" y="160" width="58.95" height="56" as="geometry" />
        </mxCell>
      </root>
    </mxGraphModel>
  </diagram>
</mxfile>
